<svg xmlns="http://www.w3.org/2000/svg" width="14" height="14" viewBox="0 0 14 14">
    <g fill="none" fill-rule="evenodd">
        <path fill="#A0002D" d="M6.99 0C10.89 0 14 3.143 14 7c0 3.876-3.11 7-7.01 7C3.11 14 0 10.876 0 7c0-3.857 3.11-7 6.99-7"/>
        <path fill="#FFF" fill-rule="nonzero" d="M7.328 9.182l.126-1.016C8.853 7.926 10 7.202 10 5.602v-.025C10 3.99 8.803 3 7.038 3 5.676 3 4.73 3.571 4 4.409l.945 1.016C5.55 4.777 6.205 4.422 7 4.422c.908 0 1.45.495 1.45 1.206v.025c0 .838-.732 1.358-2.332 1.41l-.063.063.252 2.056h1.02zM7.63 12v-1.752H5.941V12h1.69z"/>
    </g>
</svg>
