<svg xmlns="http://www.w3.org/2000/svg" width="773" height="174" viewBox="0 0 773 174">
    <path fill="#1F5153" fill-rule="nonzero" d="M88.288 174C35.987 174 0 137.23 0 87.48V87C0 39.174 37.187 0 88.048 0c30.23 0 48.463 8.171 65.976 23.072L130.753 51.19c-12.956-10.815-24.471-17.064-43.904-17.064-26.87 0-48.223 23.793-48.223 52.392V87c0 30.762 21.112 53.354 50.862 53.354 13.435 0 25.43-3.365 34.787-10.094v-24.033H87.088V74.262h72.934v73.061C142.748 161.983 118.997 174 88.288 174zm177.296-.24c-45.104 0-72.694-25.235-72.694-74.743V2.884h36.947v95.171c0 27.398 13.675 41.578 36.227 41.578 22.551 0 36.227-13.7 36.227-40.376V2.884h36.946v94.93c0 50.951-28.55 75.946-73.653 75.946zm112.999-2.644V2.884h36.946v168.232h-36.946zm78.931 0V2.884h65.497c52.78 0 89.247 36.29 89.247 83.635V87c0 47.345-36.467 84.116-89.247 84.116h-65.497zM523.011 36.29h-28.55v101.42h28.55c30.229 0 50.621-20.428 50.621-50.23V87c0-29.801-20.392-50.71-50.621-50.71zm122.115 134.826V2.884H771.8v32.925h-89.967v34.127h79.171v32.926h-79.171v35.329H773v32.925H645.126z" opacity=".06"/>
</svg>
