<svg xmlns="http://www.w3.org/2000/svg" width="16" height="14" viewBox="0 0 16 14">
    <g fill="none" fill-rule="evenodd">
        <path d="M0 0H20V20H0z" transform="translate(-2 -3)"/>
        <path fill="#757575" d="M17.949 10.202L15.565 7.17c-.096-.122-.28-.122-.375 0l-2.383 3.032c-.124.156-.011.385.187.385h1.807c-.3 2.938-2.765 5.246-5.787 5.246-3.222 0-5.845-2.618-5.845-5.833 0-3.216 2.623-5.833 5.845-5.833 1.063 0 2.046.304 2.905.801v-.001l.347.2c.282.163.645.065.808-.215l.002-.004c.163-.28.065-.644-.217-.806l-.402-.232c-.021-.012-.045-.013-.066-.022C11.387 3.334 10.244 3 9.014 3 5.141 3 2 6.134 2 10c0 3.865 3.141 7 7.014 7 3.675 0 6.685-2.822 6.985-6.413h1.763c.198 0 .31-.229.187-.385" transform="translate(-2 -3)"/>
    </g>
</svg>
