<svg xmlns="http://www.w3.org/2000/svg" width="40" height="40" viewBox="0 0 40 40">
    <g fill="none" fill-rule="evenodd">
        <path stroke="#1F5153" stroke-linecap="round" stroke-linejoin="round" stroke-width="2" d="M23 7c5.523 0 10 4.477 10 10M23 1c8.837 0 16 7.163 16 16"/>
        <path fill="#1F5153" d="M40 31.995c0-.452-.036-.896-.114-1.326a7.505 7.505 0 0 0-.592-1.959l-13.212-2.095-.004.004a8 8 0 0 0-1.96 4.06A24.101 24.101 0 0 1 9.322 15.888a7.987 7.987 0 0 0 4.054-1.965l.004-.004L11.29.714A7.443 7.443 0 0 0 9.322.112 8 8 0 0 0 0 7.999C.004 25.669 14.326 39.996 31.99 40c.008 0 .008 0 .012-.004 4.416 0 7.994-3.58 7.998-8"/>
    </g>
</svg>
