<svg xmlns="http://www.w3.org/2000/svg" xmlns:xlink="http://www.w3.org/1999/xlink" width="70" height="54" viewBox="0 0 70 54">
    <defs>
        <path id="a" d="M.102.055h69.75v35.27H.101z"/>
        <path id="c" d="M0 .05h3.719v3.89H0z"/>
        <path id="e" d="M0 53.786h69.917V.055H0z"/>
    </defs>
    <g fill="none" fill-rule="evenodd">
        <path fill="#FFF" d="M5.826 20.69h14.651v14.717h2.787V17.89H5.826zM26.258 20.69h14.647v14.717h2.79V17.89H26.259zM46.69 20.69h17.437v-2.799H46.69zM46.69 35.407h17.437v-2.8H46.69z"/>
        <g transform="translate(0 .08)">
            <mask id="b" fill="#fff">
                <use xlink:href="#a"/>
            </mask>
            <path fill="#FFF" d="M65.855.22a4.8 4.8 0 0 0-2.447-.013L35.857 8.061c-.271.076-.55.112-.88.112-.32 0-.617-.038-.88-.112L6.545.207A4.803 4.803 0 0 0 4.1.22C1.746.868.102 3.034.102 5.488v29.838h2.79l.002-29.958a2.479 2.479 0 0 1 1.04-1.9 2.617 2.617 0 0 1 2.264-.406l27.331 7.782c.453.13.94.195 1.448.195a5.21 5.21 0 0 0 1.447-.195l27.332-7.782a2.616 2.616 0 0 1 2.264.406 2.473 2.473 0 0 1 1.04 1.885l.003 29.973h2.788V5.488c0-2.454-1.643-4.62-3.996-5.268" mask="url(#b)"/>
            <path fill="#FFF" d="M5.03 46.481c0 .236-.127.423-.388.572-.268.154-.653.232-1.142.232-.484 0-.863-.079-1.127-.235-.256-.151-.38-.338-.38-.569 0-.25.124-.446.38-.597.264-.156.643-.235 1.127-.235.489 0 .873.079 1.142.235.26.152.388.347.388.597m.324-1.122a2.36 2.36 0 0 0-.768-.316 4.779 4.779 0 0 0-1.093-.11c-.406 0-.765.04-1.069.118a2.365 2.365 0 0 0-.76.327c-.202.14-.355.305-.455.491a1.27 1.27 0 0 0-.152.609c0 .226.051.437.152.626.1.189.253.354.456.49.2.133.455.238.76.311.303.073.662.11 1.068.11.42 0 .787-.037 1.093-.11.307-.073.565-.178.767-.312.205-.135.359-.3.457-.49.098-.189.147-.4.147-.625 0-.226-.05-.437-.147-.626a1.349 1.349 0 0 0-.456-.493M3.694 42.632h1.285v.7H3.665v.75h1.314v.816h.9v-4.135h-.9v1.125H3.694z"/>
            <g transform="translate(0 41.05)">
                <mask id="d" fill="#fff">
                    <use xlink:href="#c"/>
                </mask>
                <path fill="#FFF" d="M2.652 2.681c.298-.297.548-.66.742-1.076.194-.417.303-.917.322-1.487L3.72.051H.432v.73h2.311a2.1 2.1 0 0 1-.276.777 2.905 2.905 0 0 1-.59.695c-.239.207-.515.394-.82.555a8.722 8.722 0 0 1-.977.436l-.08.03.473.665.046-.016c.374-.134.751-.302 1.122-.498a4.234 4.234 0 0 0 1.01-.744" mask="url(#d)"/>
            </g>
            <mask id="f" fill="#fff">
                <use xlink:href="#e"/>
            </mask>
            <path fill="#FFF" d="M17.586 47.885h.899v-7.122h-.9zM13.039 42.04h2.498a4.03 4.03 0 0 1-.178 1.084c-.11.343-.277.666-.497.962-.22.297-.504.582-.843.846-.34.266-.746.532-1.205.789l-.073.04.586.632.044-.023c.446-.236.863-.5 1.238-.785a4.6 4.6 0 0 0 .98-1.018c.273-.388.49-.849.645-1.368.154-.518.237-1.14.247-1.85v-.067H13.04v.759zM28.987 44.912h-.914v1.197h-2.916v.759h6.732v-.759h-2.902zM31.113 43.85H26.96v-1.896h4.059v-.751h-4.958v3.407h5.05zM43.425 40.763h-.9v4.15h.9v-1.876h1.113v-.745h-1.113zM38.633 45.923h3.893v1.999h.899v-2.744h-4.792zM38.856 43.779h1.687v-.88h-1.687v.88zm2.586-2.75h-.899v1.126h-1.687V41.03h-.899v3.479h3.485v-3.48zM50.442 44.306h2.895v.447h-2.012v.73h4.044v.497h-4.044v1.942h5.159v-.709h-4.23v-.54h4.036v-1.92h-2.018v-.447h2.902v-.751h-6.732zM52.239 42.437h3.138v-.844h-3.138v.844zm-.878.73h4.893v-2.303h-4.893v2.303zM67.554 44.739l.057-.008v-.73l-.073.009c-.33.038-.683.07-1.053.094-.35.022-.724.04-1.108.055v-1.477h-.9v1.496a17.8 17.8 0 0 1-.652.012h-.798v.744h.065c.837 0 1.648-.012 2.408-.036a20.004 20.004 0 0 0 2.054-.16" mask="url(#f)"/>
            <path fill="#FFF" d="M66.198 42.21a20.192 20.192 0 0 1-.154 1.378l-.011.076h.907l.009-.055c.02-.122.04-.284.062-.483a51.143 51.143 0 0 0 .122-1.319c.017-.227.03-.431.04-.615l.003-.069h-3.74v.73h2.79l-.028.357zM68.803 42.949v-2.186h-.899v5.189h.9v-2.259h1.113v-.744zM64.989 45.474h-.92v2.303h4.957v-.759h-4.037zM2.875 51.221a1.198 1.198 0 0 0-.358-.16 1.923 1.923 0 0 0-.479-.05c-.171 0-.33.03-.475.09a1.073 1.073 0 0 0-.61.632 1.326 1.326 0 0 0-.083.473c0 .175.03.336.087.483a1.104 1.104 0 0 0 .615.626c.14.057.287.086.444.086.114 0 .2-.004.257-.011.058-.007.118-.017.179-.029l.052-.013v-.928h-.64v-.358H2.94v1.588c-.11.038-.24.07-.388.097-.148.026-.328.04-.54.04-.238 0-.456-.038-.654-.113a1.402 1.402 0 0 1-.837-.827 1.811 1.811 0 0 1-.113-.654c0-.23.04-.443.118-.637.079-.194.19-.36.336-.499a1.5 1.5 0 0 1 .514-.32 1.8 1.8 0 0 1 .64-.111c.2 0 .36.011.48.035.119.023.257.063.414.118l-.035.442zM4.779 52.455l-1.19-1.777h.51l.906 1.37.885-1.37h.51l-1.186 1.777v1.279H4.78zM7.075 50.678H8.78v.386H7.51v.892h1.155v.386H7.51v1.006h1.268v.386H7.075zM10.058 52.657c.039.143.1.27.183.383a.87.87 0 0 0 .316.265.978.978 0 0 0 .444.096.978.978 0 0 0 .445-.096.864.864 0 0 0 .315-.267c.083-.114.144-.242.183-.384a1.67 1.67 0 0 0-.004-.899 1.198 1.198 0 0 0-.19-.383.898.898 0 0 0-.749-.36.9.9 0 0 0-.75.361c-.084.112-.147.24-.189.382a1.696 1.696 0 0 0-.004.902m-.423-1.08c.065-.193.162-.36.29-.502a1.33 1.33 0 0 1 .464-.331c.181-.079.385-.118.612-.118.227 0 .431.04.615.118.183.079.337.189.463.33.127.142.223.31.288.504.065.194.098.403.098.628 0 .233-.033.446-.098.639s-.161.36-.288.501a1.26 1.26 0 0 1-.461.326 1.587 1.587 0 0 1-.617.114c-.23 0-.435-.038-.616-.114a1.262 1.262 0 0 1-.462-.326 1.436 1.436 0 0 1-.288-.501 1.98 1.98 0 0 1-.098-.639c0-.225.033-.434.098-.628M13.297 50.678h.593l1.342 2.46h.009v-2.46h.436v3.056h-.558l-1.377-2.513h-.009v2.513h-.436zM18.975 51.221a1.198 1.198 0 0 0-.357-.16 1.923 1.923 0 0 0-.48-.05c-.171 0-.33.03-.475.09a1.074 1.074 0 0 0-.61.632 1.326 1.326 0 0 0-.082.473c0 .175.029.336.087.483a1.104 1.104 0 0 0 .614.626c.14.057.288.086.445.086.113 0 .199-.004.257-.011.058-.007.117-.017.178-.029l.053-.013v-.928h-.64v-.358h1.075v1.588c-.11.038-.24.07-.387.097-.149.026-.329.04-.54.04-.24 0-.457-.038-.654-.113a1.402 1.402 0 0 1-.837-.827 1.814 1.814 0 0 1-.113-.654c0-.23.039-.443.117-.637.079-.194.19-.36.336-.499a1.5 1.5 0 0 1 .514-.32 1.8 1.8 0 0 1 .64-.111c.201 0 .36.011.48.035.119.023.257.063.414.118l-.035.442zM22.339 51.221a1.198 1.198 0 0 0-.357-.16 1.923 1.923 0 0 0-.48-.05c-.171 0-.33.03-.475.09a1.075 1.075 0 0 0-.61.632 1.326 1.326 0 0 0-.082.473c0 .175.029.336.087.483a1.106 1.106 0 0 0 .614.626c.14.057.288.086.444.086.114 0 .2-.004.258-.011.058-.007.117-.017.178-.029l.052-.013v-.928h-.64v-.358h1.076v1.588c-.11.038-.24.07-.388.097-.148.026-.328.04-.54.04-.238 0-.456-.038-.653-.113a1.402 1.402 0 0 1-.837-.827 1.814 1.814 0 0 1-.113-.654c0-.23.039-.443.117-.637.079-.194.19-.36.336-.499.145-.139.316-.245.514-.32a1.8 1.8 0 0 1 .64-.111c.201 0 .36.011.48.035.119.023.257.063.414.118l-.035.442zM23.393 53.734h.436v-3.056h-.436zM26.661 52.127h.432c.072 0 .144-.01.215-.028a.602.602 0 0 0 .196-.092.464.464 0 0 0 .144-.169.536.536 0 0 0 .055-.25c0-.09-.021-.17-.063-.238a.49.49 0 0 0-.164-.164.902.902 0 0 0-.444-.123h-.37v1.064zm-.435-1.449h.797c.166 0 .316.016.451.049.135.032.255.083.36.153a.71.71 0 0 1 .244.282.97.97 0 0 1 .087.431.948.948 0 0 1-.087.423.767.767 0 0 1-.238.286 1.01 1.01 0 0 1-.342.16c-.128.034-.264.05-.41.05h-.427v1.222h-.435v-3.056zM29.302 51.991h.37c.207 0 .368-.043.484-.129a.411.411 0 0 0 .174-.348c0-.14-.052-.25-.157-.33-.104-.08-.255-.12-.453-.12h-.418v.927zm-.436-1.313h.745c.175 0 .329.01.462.031.134.02.255.06.364.116.109.057.195.14.26.252a.852.852 0 0 1 .095.429.647.647 0 0 1-.176.46.786.786 0 0 1-.451.236v.008a.47.47 0 0 1 .163.103c.042.043.086.11.133.204l.575 1.217h-.497l-.466-1.06c-.06-.134-.126-.217-.196-.25a.784.784 0 0 0-.314-.047h-.261v1.357h-.436v-3.056zM32.136 52.657c.04.143.1.27.183.383a.87.87 0 0 0 .316.265.978.978 0 0 0 .445.096.978.978 0 0 0 .444-.096.864.864 0 0 0 .316-.267c.083-.114.144-.242.183-.384a1.67 1.67 0 0 0-.004-.899 1.198 1.198 0 0 0-.19-.383.899.899 0 0 0-.75-.36.899.899 0 0 0-.75.361 1.19 1.19 0 0 0-.188.382 1.696 1.696 0 0 0-.004.902m-.423-1.08c.065-.193.162-.36.29-.502a1.33 1.33 0 0 1 .463-.331c.182-.079.386-.118.613-.118.226 0 .431.04.614.118.183.079.338.189.464.33.127.142.223.31.288.504.065.194.098.403.098.628 0 .233-.033.446-.098.639s-.161.36-.288.501c-.126.142-.28.25-.462.326a1.587 1.587 0 0 1-.616.114c-.23 0-.435-.038-.617-.114a1.262 1.262 0 0 1-.462-.326 1.436 1.436 0 0 1-.287-.501 1.98 1.98 0 0 1-.098-.639c0-.225.032-.434.098-.628M36.71 53.734h-.545l-1.146-3.056h.488l.937 2.67h.008l.963-2.67h.458zM38.505 53.734h.435v-3.056h-.435zM39.93 50.678h.592l1.342 2.46h.009v-2.46h.436v3.056h-.558l-1.377-2.513h-.009v2.513h-.435zM45.398 51.182a1.208 1.208 0 0 0-.627-.17c-.172 0-.33.028-.475.087a1.051 1.051 0 0 0-.61.632 1.344 1.344 0 0 0-.083.475c0 .175.029.336.087.484a1.108 1.108 0 0 0 1.059.71c.113 0 .234-.013.362-.04.127-.028.227-.064.3-.108l.026.425a1.213 1.213 0 0 1-.333.087 3.01 3.01 0 0 1-.36.022c-.238 0-.456-.037-.653-.112a1.405 1.405 0 0 1-.837-.827 1.815 1.815 0 0 1-.113-.654c0-.23.039-.443.118-.637.078-.194.19-.36.335-.499.145-.139.317-.245.514-.32.198-.074.411-.111.64-.111.26 0 .487.044.685.131l-.035.425zM46.2 50.678h1.703v.386h-1.267v.892h1.154v.386h-1.154v1.006h1.267v.386H46.2zM50.252 50.678h.72l.953 2.539.937-2.539h.72v3.056h-.437V51.09h-.008l-1.007 2.644h-.427l-1.006-2.644h-.01v2.644h-.435zM56.77 52.469c0 .426-.102.752-.307.978-.204.226-.496.34-.873.34-.378 0-.669-.114-.874-.34-.205-.226-.307-.552-.307-.978v-1.79h.436v1.733c0 .315.057.559.172.73.115.173.306.259.573.259.267 0 .458-.086.573-.258.115-.172.172-.416.172-.731v-1.734h.436v1.79zM59.15 51.138a2.792 2.792 0 0 0-.297-.099 1.15 1.15 0 0 0-.464-.008.572.572 0 0 0-.172.065.335.335 0 0 0-.124.127.39.39 0 0 0-.046.195c0 .114.043.205.127.274.084.068.216.146.396.234.125.058.227.11.307.157.08.047.157.106.231.178a.818.818 0 0 1 .246.615.93.93 0 0 1-.084.411.74.74 0 0 1-.238.285 1.065 1.065 0 0 1-.35.162 1.712 1.712 0 0 1-.439.052 1.35 1.35 0 0 1-.291-.033 3.276 3.276 0 0 1-.332-.094l.044-.407c.093.038.197.072.311.103.115.03.222.046.32.046a.78.78 0 0 0 .206-.029.63.63 0 0 0 .193-.09.445.445 0 0 0 .198-.38.414.414 0 0 0-.045-.2.594.594 0 0 0-.129-.159 2.185 2.185 0 0 0-.396-.223 6.125 6.125 0 0 1-.292-.151 1.154 1.154 0 0 1-.218-.16.7.7 0 0 1-.227-.551c0-.263.092-.467.275-.613.183-.146.417-.22.702-.22.104 0 .213.01.326.027.114.018.221.045.323.083l-.061.403zM60.187 50.678h1.704v.386h-1.268v.892h1.154v.386h-1.154v1.006h1.268v.386h-1.704zM65.172 52.469c0 .426-.103.752-.308.978-.204.226-.496.34-.873.34-.378 0-.669-.114-.874-.34-.205-.226-.307-.552-.307-.978v-1.79h.436v1.733c0 .315.057.559.172.73.115.173.305.259.573.259.267 0 .458-.086.573-.258.115-.172.172-.416.172-.731v-1.734h.436v1.79zM65.912 50.678h.72l.954 2.539.936-2.539h.72v3.056h-.436V51.09h-.01l-1.006 2.644h-.427l-1.006-2.644h-.009v2.644h-.436z" mask="url(#f)"/>
        </g>
    </g>
</svg>
