<svg xmlns="http://www.w3.org/2000/svg" width="64" height="64" viewBox="0 0 64 64">
    <path fill="#1F5153" fill-rule="evenodd" d="M13.826 28.694l1.316 1.948c-3.626 2.448-5.79 6.518-5.79 10.89 0 3.516 1.368 6.818 3.856 9.302 2.474 2.468 5.758 3.826 9.248 3.826h.026c5.966-.018 11.188-4.052 12.706-9.806l2.274.598c-1.79 6.784-7.946 11.536-14.976 11.558h-.03c-4.118 0-7.99-1.604-10.906-4.514C8.618 49.568 7 45.676 7 41.532c0-5.154 2.552-9.952 6.826-12.838zM14.97 7c2.336 0 4.238 1.898 4.238 4.23l-.001 12.112h15.448c2.614 0 4.978 1.65 5.884 4.102l6.742 18.225c.223-.03.45-.044.68-.044 1.877 0 3.526.986 4.459 2.467l3.855-1.346.776 2.218-3.858 1.347c.021.19.032.383.032.578 0 2.904-2.36 5.264-5.264 5.264-2.902 0-5.262-2.36-5.262-5.264 0-1.84.947-3.461 2.38-4.403l-1.4-3.782H33.615c-.59 5.62-5.356 10.013-11.129 10.013-6.172 0-11.194-5.02-11.194-11.19 0-4.12 2.24-7.727 5.566-9.668V11.23c0-1.036-.848-1.878-1.888-1.878H8.93V7h6.04zm32.99 40.975c-1.605 0-2.911 1.308-2.911 2.914s1.306 2.914 2.912 2.914c1.606 0 2.914-1.308 2.914-2.914s-1.308-2.914-2.914-2.914zM22.487 32.689c-4.876 0-8.844 3.964-8.844 8.838 0 4.876 3.968 8.84 8.844 8.84 4.876 0 8.838-3.964 8.838-8.84 0-4.874-3.962-8.838-8.838-8.838zm0-2.35c5.774 0 10.541 4.395 11.13 10.016h9.193L38.335 28.26c-.568-1.538-2.046-2.568-3.68-2.568H19.207v5.137c1.037-.319 2.139-.49 3.28-.49z"/>
</svg>
