<svg xmlns="http://www.w3.org/2000/svg" width="48" height="48" viewBox="0 0 48 48">
    <path fill="#305153" fill-rule="evenodd" d="M14.173 27.339v17.656h-1.715V27.34h1.715zm4.343 0v17.656h-1.657V27.34h1.657zM40 22.482v1.714H29.143c-1.311 0-2.4 1.092-2.4 2.52v18.279h-1.827v-18.28c0-2.403 1.94-4.233 4.227-4.233H40zM17.486 10.71c1.431 0 2.515 1.03 2.515 2.464v4.568l2.973 9.316-1.602.57-3.087-9.599v-4.855c0-.405-.343-.75-.8-.75h-4c-.454 0-.797.345-.797.75v4.855l-3.087 9.598L8 27.057l2.974-9.315v-4.568c0-1.435 1.083-2.464 2.512-2.464h4zm15.886 5.488c.505 0 .98.232 1.318.606.435-.312.972-.488 1.54-.488 1.369 0 2.568 1.028 2.568 2.51 0 1.433-1.2 2.625-2.568 2.625-.587 0-1.143-.218-1.586-.58-.335.302-.79.471-1.272.471H27.2c-.456 0-.741-.233-.741-.685v-3.656c0-.46.285-.803.74-.803h6.174zm0 1.599h-5.37v2.057h5.37c.172 0 .285-.109.285-.28V18.14c0-.227-.113-.343-.285-.343zm2.858 0c-.574 0-1.029.458-1.029 1.029 0 .576.455 1.028 1.029 1.028.569 0 1.03-.452 1.03-1.028 0-.57-.461-1.03-1.03-1.03zM17.26 3c.457 0 .8.4.8.742v4.802c0 .342-.343.794-.8.794h-3.543c-.46 0-.803-.452-.803-.794V3.742c0-.343.343-.742.803-.742h3.543zm-.744 1.543h-2.059V7.74h2.06V4.543z"/>
</svg>
