<svg xmlns="http://www.w3.org/2000/svg" width="64" height="64" viewBox="0 0 64 64">
    <path fill="#1F5153" fill-rule="evenodd" d="M49.984 24.501l2.478.536-7.43 34.274c-.316 1.42-1.54 2.404-2.978 2.404H22.412c-1.442 0-2.668-.984-2.984-2.394L12 25.037l2.476-.536 7.43 34.274c.054.232.26.4.506.4h19.642c.24 0 .446-.168.5-.41l7.43-34.264zm-11.268 8.096c2.034 0 3.122.784 3.992 1.414.748.54 1.29.93 2.5.93v2.54c-2.032 0-3.116-.786-3.986-1.414-.748-.542-1.292-.932-2.506-.932-1.208 0-1.748.39-2.496.93-.87.63-1.954 1.416-3.986 1.416-2.034 0-3.12-.786-3.992-1.416-.748-.54-1.288-.93-2.498-.93-1.214 0-1.758.39-2.508.932-.868.628-1.952 1.414-3.984 1.414v-2.54c1.21 0 1.752-.39 2.498-.93.872-.63 1.958-1.414 3.994-1.414 2.03 0 3.114.784 3.984 1.412.75.542 1.292.932 2.506.932 1.21 0 1.752-.39 2.498-.93.872-.63 1.954-1.414 3.984-1.414zM32.232 2l1.93 2.174c2.694 3.018 6.05 6.768 7.574 10.39 1.616 3.822.73 8.364-2.21 11.302-1.94 1.95-4.534 3.028-7.294 3.028-2.762 0-5.354-1.078-7.296-3.03-2.938-2.928-3.828-7.47-2.214-11.3 1.53-3.62 4.882-7.372 7.578-10.386L32.232 2zm0 3.822l-.042.046c-2.57 2.872-5.764 6.45-7.13 9.682-1.216 2.886-.546 6.31 1.67 8.518 2.936 2.952 8.072 2.948 10.998.004 2.22-2.216 2.888-5.64 1.67-8.522-1.362-3.232-4.558-6.81-7.128-9.686l-.038-.042z"/>
</svg>
