<svg xmlns="http://www.w3.org/2000/svg" width="64" height="64" viewBox="0 0 64 64">
    <path fill="#1F5153" fill-rule="evenodd" d="M12.106 21.507l6.83 18.454c.494 1.336 1.784 2.238 3.212 2.238H35.4c1.356 0 2.67.484 3.702 1.372l10.746 9.324-1.474 1.694-10.742-9.32c-.618-.532-1.414-.826-2.232-.826H22.148c-.666 0-1.314-.118-1.92-.338l-5.566 10.177-1.968-1.08 5.613-10.264c-.648-.595-1.161-1.345-1.477-2.203L10 22.283l2.106-.776zm14.459-1.198l5.21 13.894-2.1.786-5.218-13.91c-.094-.266-.274-.464-.514-.576-.246-.108-.518-.118-.768-.036l-4.938 1.784c-.252.092-.452.272-.566.512-.112.244-.124.514-.036.764l4.748 12.58c.394 1.048 1.42 1.758 2.546 1.758H36.88c1.158 0 2.288.408 3.184 1.158l12.962 10.65-1.428 1.734-12.964-10.656c-.5-.414-1.122-.642-1.754-.642H24.929c-2.054 0-3.922-1.292-4.648-3.208l-4.752-12.594c-.3-.832-.26-1.718.112-2.504.37-.78 1.024-1.372 1.836-1.662l4.938-1.784c1.69-.598 3.552.268 4.15 1.952zM19.537 9.096c.242.112.428.318.52.57l2.094 5.816c.088.25.076.528-.036.768-.116.246-.322.434-.574.52l-4.408 1.586c-.112.042-.226.06-.342.06-.414 0-.802-.252-.95-.666l-2.094-5.808c-.188-.526.084-1.102.608-1.29l4.406-1.59c.262-.092.534-.082.776.034zm-1.04 2.208l-2.506.904 1.41 3.91 2.506-.902-1.41-3.912z"/>
</svg>
