<svg xmlns="http://www.w3.org/2000/svg" width="64" height="64" viewBox="0 0 64 64">
    <path fill="#1F5153" fill-rule="evenodd" d="M34 3c11.622 0 21.078 9.456 21.078 21.076v8.536c0 2.132-1.736 3.868-3.87 3.868l-.469-.001-14.591 9.555 6.536 4.28c1.042-1.043 2.48-1.688 4.065-1.688 3.176 0 5.76 2.582 5.76 5.758s-2.584 5.76-5.76 5.76c-3.17 0-5.754-2.584-5.754-5.76 0-.743.141-1.453.398-2.105l-7.39-4.841-7.39 4.84c.258.653.399 1.363.399 2.106 0 3.176-2.584 5.76-5.76 5.76-3.17 0-5.754-2.584-5.754-5.76 0-3.176 2.584-5.758 5.754-5.758 1.588 0 3.028.646 4.071 1.688l6.535-4.28-14.591-9.555-.475.001c-2.132 0-3.866-1.736-3.866-3.868V14.486c0-.804-.652-1.456-1.456-1.456H7v-2.35h4.47c2.098 0 3.806 1.708 3.806 3.806v18.126c0 .836.68 1.518 1.516 1.518h34.416c.838 0 1.52-.682 1.52-1.518v-8.536c0-10.066-7.984-18.304-17.958-18.71l-6.239 14.681h21.837v2.35H17.63v-2.35h8.349L33.222 3H34zm12.749 47.976c-1.876 0-3.404 1.53-3.404 3.408 0 1.88 1.528 3.41 3.404 3.41 1.878 0 3.41-1.53 3.41-3.41 0-1.878-1.532-3.408-3.41-3.408zm-25.497 0c-1.876 0-3.404 1.53-3.404 3.408 0 1.88 1.528 3.41 3.404 3.41 1.878 0 3.41-1.53 3.41-3.41 0-1.878-1.532-3.408-3.41-3.408zM46.45 36.48H21.556l12.447 8.15 12.447-8.15z"/>
</svg>
