<svg xmlns="http://www.w3.org/2000/svg" width="64" height="64" viewBox="0 0 64 64">
    <path fill="#1F5153" fill-rule="evenodd" d="M47.566 44.597c2.154 0 3.906 1.754 3.906 3.906 0 2.15-1.752 3.904-3.906 3.904-2.15 0-3.898-1.754-3.898-3.904 0-2.152 1.748-3.906 3.898-3.906zm-20.623 0c2.154 0 3.906 1.754 3.906 3.906 0 2.15-1.752 3.904-3.906 3.904-2.152 0-3.904-1.754-3.904-3.904 0-2.152 1.752-3.906 3.904-3.906zm20.623 2.244c-.914 0-1.656.744-1.656 1.662 0 .918.742 1.662 1.656 1.662.916 0 1.662-.744 1.662-1.662 0-.918-.746-1.662-1.662-1.662zm-20.623 0c-.916 0-1.66.744-1.66 1.662 0 .918.744 1.662 1.66 1.662.916 0 1.662-.744 1.662-1.662 0-.918-.746-1.662-1.662-1.662zM10.724 12l4.492 1.528c2.35.812 4.178 2.704 4.898 5.07l6.5 21.384c.124.398.498.68.916.68h18.504c.428 0 .798-.276.922-.68l4.86-15.994c.09-.296.036-.608-.146-.852s-.466-.388-.774-.388H25.114v-2.242h25.782c1.026 0 1.968.472 2.576 1.294.61.826.788 1.862.49 2.84l-4.858 15.994c-.414 1.358-1.648 2.27-3.07 2.27H27.53c-1.422 0-2.652-.912-3.062-2.27l-6.502-21.382c-.51-1.678-1.808-3.026-3.478-3.602L10 14.12l.724-2.12z"/>
</svg>
