<svg xmlns="http://www.w3.org/2000/svg" width="48" height="48" viewBox="0 0 48 48">
    <path fill="#305153" fill-rule="evenodd" d="M25.677 15.557c1.295 0 2.323 1.157 2.323 2.366v19.129h-1.606v-19.13c0-.402-.315-.761-.717-.761h-3.35c-.404 0-.718.359-.718.762v20.52c0 .488.314.804.717.804H28v1.605h-5.674c-1.253 0-2.326-1.068-2.326-2.409v-20.52c0-1.209 1.073-2.366 2.326-2.366h3.351zM25.633 8c.357 0 .715.312.715.671v4.38c0 .406-.3.707-.626.755l-.089.006H22.28c-.403 0-.67-.318-.67-.762V8.671c0-.359.267-.671.67-.671h3.353zm-.716 1.428h-1.879v2.909h1.879V9.428z"/>
</svg>
