<svg xmlns="http://www.w3.org/2000/svg" width="48" height="48" viewBox="0 0 48 48">
    <path fill="#305153" fill-rule="evenodd" d="M15.109 22.775l-.445 2.614c-1.89 1.888-3 4.442-3 7.33 0 5.668 4.669 10.338 10.334 10.338 5.07 0 9.285-3.586 10.179-8.397l.047-.273 1.33 1.886c-1.555 5.003-6.11 8.558-11.556 8.558-6.666 0-12.111-5.443-12.111-12.112 0-4.108 2.112-7.777 5.222-9.944zm2.835-6.056l1.72.28-1.333 7.39c-.167.887.447 1.774 1.334 1.888l10.833 1.553c1.058.114 1.945.667 2.446 1.5L40 39.721l-1.334 1.002-7.11-10.444c-.224-.449-.78-.728-1.225-.834l-10.886-1.501c-.891-.114-1.669-.614-2.225-1.334-.444-.78-.72-1.553-.554-2.502l1.278-7.389zm4.164-5.61l3.946.614c.834.22 1.557.554 2.058 1.22.442.72.661 1.555.496 2.335l-1.61 9.945-1.666-.281 1.665-9.89c0-.44 0-.773-.219-1.055-.224-.334-.611-.553-1-.613l-3.889-.668c-.39 0-.724 0-1 .114l-6.833 3.115c-.167.106-.334.274-.448.44l-4.221 7.777L8 23.389l4.055-7.778c.385-.56.719-1 1.334-1.226l6.723-2.995c.72-.28 1.33-.395 1.996-.28zM24.944 4l3.168.607c.443.06.662.446.662.894l-.777 4.662c0 .228-.108.333-.333.56-.166 0-.277.106-.443.106h-.11l-3.226-.666c-.333 0-.665-.333-.554-.773L24 4.668c.11-.227.22-.395.387-.501.167-.115.39-.167.558-.167zm.443 1.608l-.5 3.281 1.723.334.553-3.283-1.776-.332z"/>
</svg>
