<?xml version="1.0" encoding="UTF-8"?>
<svg width="789px" height="573px" viewBox="0 0 789 573" version="1.1" xmlns="http://www.w3.org/2000/svg" xmlns:xlink="http://www.w3.org/1999/xlink">
    <title>pic/pic_facilities_map_outdoor</title>
    <g id="pic/pic_facilities_map_outdoor" stroke="none" stroke-width="1" fill="none" fill-rule="evenodd">
        <g>
            <path d="M322.652947,203.193108 C322.652947,203.193108 346.667069,222.104307 369.295403,194.926434 C369.295403,194.926434 385.537332,169.909399 362.47342,150.094493 C362.47342,150.094493 339.831136,193.821214 322.652947,203.193108" id="Fill-1" fill="#F6F6F6"></path>
            <path d="M234.32618,74.7922713 L249.836462,74.7922713 C249.836462,74.7922713 252.532083,35.684843 208.703056,33.6604147 C208.703056,33.6604147 173.642934,37.0349786 172.298999,74.1164285 L187.131889,74.1164285 L234.32618,74.7922713 Z" id="Fill-3" fill="#F6F6F6"></path>
            <path d="M234.871194,257.236198 C234.871194,257.236198 238.362015,246.261503 253.332864,253.748477 C253.332864,253.748477 261.822752,264.233341 265.815805,265.729186 C265.815805,265.729186 270.30954,269.223108 279.293909,268.220194 C279.293909,268.220194 307.741312,267.724163 303.748259,284.190856 C303.748259,284.190856 301.748632,294.176589 289.777224,289.681304 C289.777224,289.681304 279.286159,283.197243 275.294656,283.693275 C275.294656,283.693275 267.815432,285.19222 264.814442,287.689428 C264.814442,287.689428 251.339438,292.674544 246.850353,281.693648 C246.850353,281.693648 242.85265,270.216721 239.360279,267.724163 C239.360279,267.724163 233.370699,264.727823 234.871194,257.236198" id="Fill-5" fill="#EDF2F2"></path>
            <path d="M286.277102,248.258649 C286.277102,248.258649 280.285972,237.028187 291.527284,236.656164 C291.527284,236.656164 301.621524,238.525582 306.865506,234.034948 C306.865506,234.034948 310.23852,221.680665 323.708874,231.040158 C323.708874,231.040158 330.200685,244.766278 323.708874,257.239918 C323.708874,257.239918 319.22909,270.714922 303.247577,269.222178 C303.247577,269.222178 293.760976,269.722859 291.77065,259.237995 C291.77065,259.237995 283.784544,257.239918 286.277102,248.258649" id="Fill-7" fill="#EDF2F2"></path>
            <path d="M355.153547,237.279303 C355.153547,237.279303 346.169177,226.295307 355.654228,220.307278 C355.654228,220.307278 374.122099,210.321545 377.115338,221.806223 C377.115338,221.806223 374.122099,244.766278 376.623957,249.752944 C376.623957,249.752944 384.107831,252.250152 383.60715,261.736753 C383.60715,261.736753 398.577998,265.728256 395.586309,279.20171 C395.586309,279.20171 401.575888,298.165612 381.106841,300.66127 C381.106841,300.66127 373.622967,302.166415 363.644985,297.168899 C363.644985,297.168899 339.189085,304.660523 337.69014,283.695445 C337.69014,283.695445 335.688963,263.73328 348.663285,256.244755 C348.663285,256.244755 358.152987,249.752944 355.153547,237.279303" id="Fill-9" fill="#EDF2F2"></path>
            <path d="M397.578495,217.311248 C397.578495,217.311248 383.60746,226.298717 382.110065,208.82756 C382.110065,208.82756 382.609196,204.335376 390.595303,202.841081 C390.595303,202.841081 395.578868,197.849765 393.586992,189.361427 C393.586992,189.361427 413.550707,167.401185 445.0022,163.405032 C445.0022,163.405032 454.981733,161.912287 458.971686,167.900317 C458.971686,167.900317 459.473917,158.917497 471.953758,161.411606 C471.953758,161.411606 481.92709,163.405032 480.936578,170.395975 C480.936578,170.395975 481.934841,178.881213 493.408668,177.383818 C493.408668,177.383818 497.897752,176.883136 499.898929,170.893556 C499.898929,170.893556 501.390124,164.908627 512.38032,166.399822 C512.38032,166.399822 525.852224,166.399822 528.343232,180.880839 C528.343232,180.880839 552.310851,183.373397 553.306014,195.851688 C553.306014,195.851688 554.304277,204.335376 539.83256,208.82756 C539.83256,208.82756 524.858611,213.321295 518.37145,254.245439 C518.37145,254.245439 515.871141,272.717959 497.907053,276.20258 C497.907053,276.20258 489.916297,278.199106 483.926717,268.221124 L467.957605,262.727576 L467.957605,244.265906 C467.957605,244.265906 486.926157,238.276327 478.434719,220.80827 C478.434719,220.80827 465.962629,207.328615 452.982106,215.815403 C452.982106,215.815403 443.002574,221.305851 445.994263,233.28656 C445.994263,233.28656 446.994077,240.770435 455.981546,243.765224 L455.981546,262.727576 C455.981546,262.727576 438.502639,261.236382 431.024965,265.728566 C431.024965,265.728566 420.039418,272.218828 413.048475,261.236382 C413.048475,261.236382 398.578308,262.727576 398.578308,248.262059 L397.578495,217.311248 Z" id="Fill-11" fill="#EDF2F2"></path>
            <g id="circles" transform="translate(199.599129, 0.000155)">
                <path d="M261.011272,306.966703 C261.011272,313.59206 255.639136,318.965867 249.010437,318.965867 C242.38508,318.965867 237.011272,313.59206 237.011272,306.966703 C237.011272,300.339675 242.38508,294.965867 249.010437,294.965867 C255.639136,294.965867 261.011272,300.339675 261.011272,306.966703" id="Fill-13" fill="#205153"></path>
                <path d="M330.543254,323.914857 C330.543254,330.539291 325.171117,335.914021 318.540747,335.914021 C311.917062,335.914021 306.543254,330.539291 306.543254,323.914857 C306.543254,317.287081 311.917062,311.914021 318.540747,311.914021 C325.171117,311.914021 330.543254,317.287081 330.543254,323.914857" id="Fill-17" fill="#205153"></path>
                <path d="M93.1632257,307.329331 C93.1632257,313.954227 87.791089,319.32766 81.1623903,319.32766 C74.5387044,319.32766 69.1632257,313.954227 69.1632257,307.329331 C69.1632257,300.701094 74.5387044,295.32766 81.1623903,295.32766 C87.791089,295.32766 93.1632257,300.701094 93.1632257,307.329331" id="Fill-21" fill="#205153"></path>
                <path d="M106.043922,250.926432 C106.043922,257.550866 100.671785,262.923926 94.0414156,262.923926 C87.4160587,262.923926 82.043922,257.550866 82.043922,250.926432 C82.043922,244.298656 87.4160587,238.923926 94.0414156,238.923926 C100.671785,238.923926 106.043922,244.298656 106.043922,250.926432" id="Fill-25" fill="#205153"></path>
                <path d="M197.496617,283.297297 C197.496617,289.927205 192.121513,295.298968 185.493276,295.298968 C178.870051,295.298968 173.496617,289.927205 173.496617,283.297297 C173.496617,276.672401 178.870051,271.298968 185.493276,271.298968 C192.121513,271.298968 197.496617,276.672401 197.496617,283.297297" id="Fill-29" fill="#205153"></path>
                <path d="M340.97464,369.41117 C340.97464,376.038198 335.599535,381.410335 328.972969,381.410335 C322.346403,381.410335 316.97464,376.038198 316.97464,369.41117 C316.97464,362.782471 322.346403,357.410335 328.972969,357.410335 C335.599535,357.410335 340.97464,362.782471 340.97464,369.41117" id="Fill-33" fill="#205153"></path>
                <path d="M352.106825,166.696273 C352.106825,173.322839 346.733392,178.697943 340.106825,178.697943 C333.480259,178.697943 328.106825,173.322839 328.106825,166.696273 C328.106825,160.071377 333.480259,154.697943 340.106825,154.697943 C346.733392,154.697943 352.106825,160.071377 352.106825,166.696273" id="Fill-37" fill="#205153"></path>
                <path d="M376.532963,270.910927 C376.532963,277.539164 371.15953,282.912598 364.532963,282.912598 C357.908068,282.912598 352.532963,277.539164 352.532963,270.910927 C352.532963,264.28436 357.908068,258.912598 364.532963,258.912598 C371.15953,258.912598 376.532963,264.28436 376.532963,270.910927" id="Fill-41" fill="#205153"></path>
                <path d="M24.4411707,11.9983292 C24.4411707,18.6265664 19.069034,24 12.4386643,24 C5.81497843,24 0.441170727,18.6265664 0.441170727,11.9983292 C0.441170727,5.37343358 5.81497843,0 12.4386643,0 C19.069034,0 24.4411707,5.37343358 24.4411707,11.9983292" id="Fill-49" fill="#224849"></path>
                <path d="M276.386697,191.744861 C276.386697,198.369757 271.01456,203.743191 264.38419,203.743191 C257.760505,203.743191 252.386697,198.369757 252.386697,191.744861 C252.386697,185.116624 257.760505,179.743191 264.38419,179.743191 C271.01456,179.743191 276.386697,185.116624 276.386697,191.744861" id="Fill-53" fill="#205153"></path>
                <path d="M387.668249,326.507301 C387.668249,333.132197 382.294441,338.505631 375.665742,338.505631 C369.042057,338.505631 363.668249,333.132197 363.668249,326.507301 C363.668249,319.880735 369.042057,314.505631 375.665742,314.505631 C382.294441,314.505631 387.668249,319.880735 387.668249,326.507301" id="Fill-59" fill="#205153"></path>
                <path d="M157.645297,283.297297 C157.645297,289.927205 152.27316,295.298968 145.642791,295.298968 C139.017434,295.298968 133.645297,289.927205 133.645297,283.297297 C133.645297,276.672401 139.017434,271.298968 145.642791,271.298968 C152.27316,271.298968 157.645297,276.672401 157.645297,283.297297" id="Fill-65" fill="#205153"></path>
            </g>
            <polygon id="Fill-15" fill="#FFFFFF" points="448.1458 302.55828 446.003564 303.066712 446.003564 301.893288 449.023155 300.420695 450.019868 300.420695 450.019868 313.686435 448.1458 313.686435"></polygon>
            <path d="M514.497289,329.389861 L517.079753,326.491177 C518.76626,324.587656 520.049741,323.028257 520.049741,321.309198 C520.049741,319.642843 519.257641,318.934448 517.636238,318.934448 C516.71238,318.934448 515.711016,319.408778 515.022773,319.895509 L514.650749,318.374862 C515.442849,317.847829 516.675177,317.286694 518.062515,317.286694 C520.65738,317.286694 522.007515,318.715884 522.007515,321.075134 C522.007515,323.373929 520.386113,325.223196 518.650003,327.159269 L516.997598,328.937232 L522.178026,328.937232 L522.178026,330.549334 L514.497289,330.549334 L514.497289,329.389861 Z" id="Fill-19" fill="#FFFFFF"></path>
            <path d="M276.932645,313.239542 L277.270566,311.749898 C277.927808,312.208727 279.127584,312.554399 280.039041,312.554399 C281.840256,312.554399 282.836969,311.718896 282.836969,310.195149 C282.836969,308.677603 281.790652,308.007961 280.122747,307.984709 L278.941572,307.967658 L278.941572,306.42686 L280.000289,306.409809 C281.486833,306.394308 282.449444,305.63166 282.449444,304.309426 C282.449444,302.878685 281.59224,302.350102 280.189401,302.350102 C279.243841,302.350102 278.333933,302.750027 277.591436,303.149953 L277.371322,301.627756 C278.11692,301.123974 279.496507,300.722499 280.64668,300.722499 C282.872621,300.722499 284.340564,301.881972 284.340564,303.965304 C284.340564,305.560355 283.466309,306.536917 282.092922,307.026748 C283.64922,307.352269 284.779242,308.294729 284.779242,310.271104 C284.779242,312.625703 283.077234,314.166501 280.339761,314.166501 C278.891969,314.166501 277.606937,313.746424 276.932645,313.239542" id="Fill-23" fill="#FFFFFF"></path>
            <path d="M294.857206,253.458454 L294.857206,247.747892 L291.229976,253.458454 L294.857206,253.458454 Z M294.843255,254.993051 L289.307854,254.993051 L289.307854,253.726621 L295.264881,244.415181 L296.615017,244.415181 L296.615017,253.458454 L298.518538,253.458454 L298.518538,254.993051 L296.615017,254.993051 L296.615017,257.676271 L294.843255,257.676271 L294.843255,254.993051 Z" id="Fill-27" fill="#FFFFFF"></path>
            <path d="M381.225269,289.237976 L381.55854,287.677027 C382.234383,288.112605 383.282249,288.529581 384.24176,288.529581 C386.033673,288.529581 387.112542,287.518917 387.112542,285.83086 C387.112542,284.018795 386.097228,283.294899 384.308414,283.294899 C383.520964,283.294899 382.384742,283.674673 381.814306,283.964542 L382.266935,276.899194 L388.529332,276.899194 L388.529332,278.511296 L383.702326,278.511296 L383.482212,282.04242 C383.92244,281.916862 384.612233,281.788204 385.088114,281.788204 C387.55122,281.788204 389.037764,283.093387 389.037764,285.849461 C389.037764,288.241263 387.414811,290.175785 384.680438,290.175785 C383.265198,290.175785 382.000318,289.763459 381.225269,289.237976" id="Fill-31" fill="#FFFFFF"></path>
            <path d="M531.148755,372.016787 C531.148755,370.134968 530.184594,369.409522 528.853059,369.409522 C527.842395,369.409522 526.896835,370.17217 526.425605,370.855763 L526.425605,370.984421 C526.425605,373.284767 527.113849,374.75581 528.87011,374.75581 C530.2838,374.75581 531.148755,373.742046 531.148755,372.016787 M524.548436,370.479089 L524.548436,369.516478 C524.548436,364.717374 526.692222,362.815404 529.578505,362.815404 C530.778281,362.815404 531.905203,363.247881 532.412085,363.574952 L531.990458,365.042895 C531.537829,364.773178 530.503914,364.464708 529.696313,364.464708 C527.775741,364.464708 526.594566,365.497074 526.425605,369.139805 C527.047195,368.502714 528.040808,367.885775 529.34289,367.885775 C531.421572,367.885775 532.987171,369.356818 532.987171,371.838526 C532.987171,374.354335 531.519228,376.293508 528.904212,376.293508 C526.055132,376.293508 524.548436,374.12027 524.548436,370.479089" id="Fill-35" fill="#FFFFFF"></path>
            <polygon id="Fill-39" fill="#FFFFFF" points="541.773903 161.971656 535.953284 161.971656 535.953284 160.361104 543.815382 160.361104 543.815382 161.573281 539.262744 173.40363 537.185612 173.40363"></polygon>
            <path d="M566.402949,267.649293 C566.402949,266.599876 565.674403,265.817077 564.243662,265.817077 C562.94623,265.817077 562.099876,266.471218 562.099876,267.595039 C562.099876,268.827368 562.961731,269.571415 564.514929,269.986841 C565.539544,269.515611 566.402949,268.787065 566.402949,267.649293 M566.774972,274.190707 C566.774972,272.741366 565.809261,272.085674 563.885589,271.510588 C562.744717,271.922914 561.644147,272.829721 561.644147,274.099252 C561.644147,275.440087 562.678063,276.27559 564.21266,276.27559 C565.728656,276.27559 566.774972,275.421485 566.774972,274.190707 M559.839833,274.243411 C559.839833,272.575505 561.087662,271.380379 562.436247,270.819244 C561.154316,270.239507 560.176204,269.298597 560.176204,267.666344 C560.176204,265.674468 561.763505,264.279379 564.226611,264.279379 C566.672666,264.279379 568.225864,265.491556 568.225864,267.523735 C568.225864,269.02578 567.143896,270.005442 565.897617,270.653383 C567.346959,271.202118 568.700194,272.139928 568.700194,274.044998 C568.700194,276.181034 567.044689,277.791586 564.243662,277.791586 C561.476737,277.791586 559.839833,276.365495 559.839833,274.243411" id="Fill-43" fill="#FFFFFF"></path>
            <path d="M209.671402,9.77510609 C209.671402,11.6569253 210.682066,12.4908782 212.018251,12.4908782 C213.025815,12.4908782 213.986876,11.72978 214.445705,11.0585874 L214.445705,10.7160157 C214.445705,8.43117092 213.689257,6.94617682 211.912844,6.94617682 C210.496054,6.94617682 209.671402,8.08704912 209.671402,9.77510609 M216.319773,11.131442 L216.319773,12.0025972 C216.319773,16.8404538 214.327897,18.8679823 211.37496,18.8679823 C210.142632,18.8679823 208.980058,18.4494558 208.420473,18.0541807 L208.792496,16.5862377 C209.31643,16.9117583 210.364296,17.2388291 211.294355,17.2388291 C213.145172,17.2388291 214.327897,16.2049136 214.445705,12.7435442 C213.807064,13.4333379 212.828952,14.0115246 211.52842,14.0115246 C209.449738,14.0115246 207.865538,12.456776 207.865538,9.95336739 C207.865538,7.43910806 209.263726,5.38987819 211.881842,5.38987819 C214.732473,5.38987819 216.319773,7.43910806 216.319773,11.131442" id="Fill-51" fill="#FFFFFF"></path>
            <polygon id="Fill-55" fill="#FFFFFF" points="457.956526 187.350019 455.81274 187.856901 455.81274 186.681927 458.835432 185.212434 459.830595 185.212434 459.830595 198.470424 457.956526 198.470424"></polygon>
            <path d="M470.149909,192.527037 L470.149909,191.335012 C470.149909,188.163511 469.240001,186.714169 467.520942,186.714169 C465.780182,186.714169 464.870274,188.090656 464.870274,191.224955 L464.870274,192.420081 C464.870274,195.555929 465.761581,197.040923 467.499241,197.040923 C469.240001,197.040923 470.149909,195.752792 470.149909,192.527037 M462.893899,192.350326 L462.893899,191.424917 C462.893899,186.765322 465.073337,185.136169 467.536443,185.136169 C469.99955,185.136169 472.075131,186.787024 472.075131,191.350513 L472.075131,192.331725 C472.075131,196.859562 470.033652,198.615823 467.499241,198.615823 C464.919878,198.615823 462.893899,196.805308 462.893899,192.350326" id="Fill-57" fill="#FFFFFF"></path>
            <polygon id="Fill-61" fill="#FFFFFF" points="571.387755 322.114629 569.245519 322.623062 569.245519 321.448087 572.26666 319.978594 573.258723 319.978594 573.258723 333.238134 571.387755 333.238134"></polygon>
            <polygon id="Fill-63" fill="#FFFFFF" points="578.214852 322.114629 576.071066 322.623062 576.071066 321.448087 579.093758 319.978594 580.085821 319.978594 580.085821 333.238134 578.214852 333.238134"></polygon>
            <polygon id="Fill-67" fill="#FFFFFF" points="340.158206 278.911842 338.015971 279.418724 338.015971 278.243749 341.037112 276.774256 342.029175 276.774256 342.029175 290.032246 340.158206 290.032246"></polygon>
            <path d="M345.012804,288.786122 L347.593717,285.887439 C349.278674,283.982368 350.565256,282.422969 350.565256,280.70546 C350.565256,279.037555 349.770055,278.33226 348.148653,278.33226 C347.223244,278.33226 346.224981,278.80194 345.533637,279.291771 L345.161613,277.771124 C345.958364,277.245641 347.186042,276.681405 348.57338,276.681405 C351.168244,276.681405 352.52303,278.113696 352.52303,280.469845 C352.52303,282.770191 350.901627,284.619458 349.165517,286.553981 L347.506912,288.333494 L352.68889,288.333494 L352.68889,289.945596 L345.012804,289.945596 L345.012804,288.786122 Z" id="Fill-69" fill="#FFFFFF"></path>
            <polygon id="Fill-77" fill="#DCE0E0" points="360.966415 264.341693 352.922955 270.340573 342.90467 269.763937 335.603708 262.884601 334.430283 252.92057 339.939332 244.531438 349.546841 241.648255 358.762175 245.614957 363.272961 254.577625"></polygon>
            <polygon id="Stroke-79" stroke="#205153" stroke-width="0.666" stroke-linecap="round" stroke-linejoin="round" points="360.966415 264.341693 352.922955 270.340573 342.90467 269.763937 335.603708 262.884601 334.430283 252.92057 339.939332 244.531438 349.546841 241.648255 358.762175 245.614957 363.272961 254.577625"></polygon>
            <polygon id="Fill-81" fill="#DCE0E0" points="479.768424 238.528217 468.497659 246.93595 454.45687 246.126799 444.226221 236.486738 442.583117 222.523453 450.301056 210.765958 463.76831 206.724852 476.682178 212.285054 483.003479 224.8455"></polygon>
            <path d="M454.764099,245.411274 L468.273205,246.189423 L479.119242,238.10101 L482.23184,224.937576 L476.147704,212.84991 L463.722117,207.502071 L450.766396,211.389718 L443.339875,222.702335 L444.920975,236.137036 L454.764099,245.411274 Z M468.496419,247.666667 L468.454567,247.666667 L454.413777,246.855965 C454.244816,246.846665 454.082056,246.77536 453.956498,246.657553 L443.724299,237.015942 C443.600292,236.898134 443.519686,236.741574 443.499535,236.571063 L441.857981,222.607779 C441.83783,222.435718 441.878132,222.263657 441.972688,222.121048 L449.692178,210.366653 C449.785183,210.222494 449.926242,210.115537 450.090553,210.067484 L463.557806,206.026378 C463.719017,205.978325 463.900378,205.987625 464.056938,206.05428 L476.970806,211.614482 C477.130466,211.681136 477.257574,211.802044 477.335079,211.955504 L483.65638,224.5175 C483.732335,224.670959 483.754036,224.84612 483.715284,225.013531 L480.480229,238.696248 C480.439926,238.862109 480.34382,239.010918 480.205861,239.114775 L468.933547,247.522507 C468.807989,247.615513 468.654529,247.666667 468.496419,247.666667 L468.496419,247.666667 Z" id="Fill-83" fill="#205153"></path>
            <path d="M459.603506,235.907931 L465.98371,235.907931 L470.87427,231.806372 L471.98259,225.517623 L468.792488,219.989973 L462.793608,217.807434 L456.794728,219.989973 L453.604626,225.517623 L454.712946,231.806372 L459.603506,235.907931 Z M466.597549,237.588238 L458.989667,237.588238 L453.164398,232.700778 L451.842164,225.207603 L455.644555,218.619686 L462.793608,216.017071 L469.941111,218.619686 L473.745052,225.207603 L472.424368,232.700778 L466.597549,237.588238 Z" id="Fill-85" fill="#205153"></path>
            <path d="M787.039126,556.041039 C782.308226,547.504648 777.364963,539.451887 772.341094,532.101322 C770.86075,529.328196 756.559544,504.77464 715.320731,504.77464 C714.006248,504.77464 712.666963,504.800992 711.295126,504.852145 L657.07734,504.852145 C656.954882,504.858345 656.706866,504.872296 656.305391,504.872296 C654.460774,504.872296 648.116222,504.566927 643.938707,500.642078 C641.382595,498.237876 640.086713,494.943917 640.086713,490.850107 L640.086713,359.744349 L596.208083,210.114917 C596.001919,209.37397 591.170263,191.639296 591.170263,168.900905 C591.238468,167.457764 592.506448,133.057984 565.664947,114.839679 C565.387479,114.709471 542.021299,103.792129 530.815639,75.6345947 L530.600175,75.0936104 L25.2697014,75.0936104 L25.2697014,165.154318 C25.026336,167.730581 23.4576365,191.053359 43.6523163,208.319903 L81.9629941,245.066532 C82.7457937,245.784227 101.013701,262.729901 101.013701,279.377956 L101.013701,331.124885 L101.033853,331.124885 C100.9889,334.119675 99.7829234,345.881821 84.1904853,350.76773 L43.0772299,364.997632 L15.1878625,342.539809 L16.4759941,340.940107 L43.4802554,362.691086 L83.5487446,348.820807 C99.8960806,343.702383 99.0171749,330.907872 98.9706719,330.365337 L98.9675717,279.377956 C98.9675717,263.746766 80.746167,246.731337 80.5617053,246.560827 L42.2804794,209.837449 C20.4566464,191.180467 23.1073143,166.096777 23.2297721,165.03806 L23.2251218,73.0474807 L532.012314,73.0474807 L532.26343,73.7062725 C543.033513,102.104072 566.436896,112.95941 566.672511,113.064817 C594.929251,132.227131 593.298548,167.465514 593.216393,168.956709 C593.216393,191.143265 597.973644,208.806634 598.176707,209.547581 L642.140593,359.719548 L642.131293,490.850107 C642.131293,494.347129 643.207061,497.135756 645.327595,499.133832 C648.951725,502.551799 654.742892,502.818416 656.432499,502.818416 C656.739418,502.818416 656.933181,502.809115 656.985884,502.807565 L711.256373,502.804465 C712.713466,502.750212 714.111654,502.72386 715.477291,502.72386 C759.48458,502.72386 773.526919,529.907933 774.103556,531.064306 C779.094872,538.351318 784.042786,546.410278 788.831039,555.052076 L787.039126,556.041039 Z" id="Fill-87" fill="#205153"></path>
            <path d="M190.260607,324.699263 L231.235904,324.699263 L231.235904,313.938481 L190.260607,313.938481 L190.260607,324.699263 Z M201.252354,341.175257 L220.250358,341.175257 L220.250358,326.745393 L201.252354,326.745393 L201.252354,341.175257 Z M409.091075,404.239454 C408.494287,404.239454 407.902149,404.189851 407.328613,404.093745 C403.33556,403.430303 399.988898,400.528519 397.380083,395.462798 L397.232823,395.18068 L397.265375,379.369678 L386.096917,378.421018 L386.096917,394.638145 L384.050788,394.638145 L384.050788,378.248957 L375.117572,377.490959 L375.117572,393.143851 L373.071442,393.143851 L373.071442,377.318898 L364.136676,376.5609 L364.136676,392.641619 L362.090546,392.641619 L362.090546,376.387289 L353.15268,375.633941 L353.15268,391.643356 L351.10655,391.643356 L351.10655,375.45878 L342.173334,374.700782 L342.173334,390.643542 L340.127204,390.643542 L340.127204,374.527171 L331.195538,373.772273 L331.195538,390.144411 L329.149409,390.144411 L329.149409,373.598662 L320.211542,372.840664 L320.211542,389.146147 L318.166963,389.146147 L318.166963,372.668603 L309.229096,371.910605 L309.229096,388.147884 L307.186067,388.147884 L307.186067,371.736994 L298.251301,370.980546 L298.251301,387.146521 L296.203621,387.146521 L296.203621,370.808485 L287.267305,370.048937 L287.267305,386.151358 L285.222725,386.151358 L285.222725,369.876876 L275.030829,369.015022 L275.030829,385.151544 L274.368937,385.151544 L273.63109,387.476692 L215.979837,369.292489 L215.979837,343.221387 L205.820493,343.221387 L205.820493,367.202957 L203.775914,367.202957 L203.775914,343.221387 L199.206224,343.221387 L199.206224,326.743843 L188.216028,326.743843 L188.216028,311.890802 L233.280483,311.890802 L233.280483,326.743843 L222.296487,326.743843 L222.296487,343.221387 L218.024417,343.221387 L218.024417,367.791994 L272.98625,385.123642 L272.98625,366.78443 L399.311505,377.486308 L399.311505,394.673798 L399.415361,394.937314 C401.673855,399.138081 404.44853,401.539183 407.661884,402.075517 C408.131564,402.149921 408.612094,402.190224 409.092625,402.190224 C413.029874,402.190224 416.571849,399.644963 417.911134,398.550593 L418.227354,398.293277 L418.227354,381.958342 L589.950336,381.958342 L590.444817,381.966092 C592.22433,381.966092 596.64831,381.688625 599.374933,379.117012 C600.90643,377.66922 601.648927,375.762599 601.648927,373.285542 L601.648927,356.927356 L601.621026,356.818849 C601.448965,356.181758 600.452251,352.904851 597.443511,351.181141 C596.121277,350.423143 594.557228,350.038719 592.797866,350.038719 C591.147012,350.038719 589.289994,350.379741 587.282617,351.050933 C587.16946,351.083485 574.726821,354.771169 570.464051,359.040139 L570.152481,359.351709 L516.95466,357.829513 L492.408855,337.889049 L487.113719,298.555306 C487.157122,295.441159 486.532432,279.527851 469.957232,276.213741 C469.696815,276.137786 462.930637,274.204813 454.363244,274.204813 C443.624163,274.204813 428.966434,277.201153 420.120024,291.474458 L420.042519,291.620167 C419.985165,291.778277 415.434077,302.514257 400.233813,308.897562 L399.472715,306.995591 C413.870028,300.933157 418.264556,290.642055 418.304859,290.538198 C427.701554,275.381338 443.180835,272.192786 454.507403,272.192786 C463.45922,272.192786 470.39436,274.211014 470.462564,274.231165 C489.617128,278.055257 489.158299,298.257688 489.152098,298.46075 L494.330976,336.811731 L517.708008,355.803534 L569.33558,357.280778 L569.586695,357.060664 C574.613664,352.673886 586.183597,349.240418 586.671878,349.096259 C588.879218,348.356862 590.936198,347.983289 592.799417,347.983289 C594.933902,347.983289 596.856024,348.47157 598.506878,349.432631 C602.662692,351.843033 603.637703,356.420473 603.676456,356.614236 L603.699707,356.899454 L603.699707,373.285542 C603.699707,376.319084 602.710745,378.786841 600.765371,380.620607 C597.503965,383.688251 592.5359,384.019972 590.553324,384.019972 C590.17665,384.019972 589.944136,384.006022 589.894532,384.002921 L420.273483,384.004472 L420.273483,399.176833 L419.960363,399.479102 C419.91076,399.527155 414.987648,404.239454 409.091075,404.239454 L409.091075,404.239454 Z M82.6419371,386.805499 C80.79422,386.805499 79.4409843,387.270528 78.6209823,388.188187 C78.332664,388.504407 77.3964047,389.671631 77.5669155,391.297684 C77.7389764,392.98264 79.0798114,394.748202 81.4452613,396.402157 L119.433519,426.11754 L432.009277,501.757684 L577.968077,501.782485 C578.885735,501.69568 586.679629,500.702067 586.679629,492.328436 L586.716831,438.050196 C586.724582,438.017644 586.991198,436.196279 585.644163,434.598128 C584.183971,432.868218 581.269786,431.95521 577.220929,431.95521 C577.179077,431.95521 573.141071,431.983112 571.070139,434.446218 C569.97112,435.754501 569.620798,437.487511 570.000572,439.747554 L570.009872,461.190063 L418.227354,461.190063 L418.227354,431.122807 L418.156049,430.961597 C417.477106,429.364996 414.879141,424.041959 410.055236,422.620519 C409.270886,422.391104 408.447784,422.273297 407.610731,422.273297 C405.163126,422.273297 402.495407,423.259159 399.681978,425.204532 L399.311505,425.460299 L399.311505,438.008344 L272.98625,425.64476 L272.98625,401.148558 L212.341756,384.010672 C212.349507,384.010672 207.339589,382.212558 199.375185,382.212558 C191.181365,382.212558 178.617819,384.185833 165.296275,393.590279 C164.671585,393.934401 149.134951,402.383986 131.246817,402.385536 C123.282413,402.385536 115.993851,400.71143 109.582644,397.409721 C101.077255,392.306798 89.0066405,386.805499 82.6419371,386.805499 L82.6419371,386.805499 Z M431.643454,503.782112 L118.50811,428.025711 L80.225334,398.048361 C77.3080491,396.006882 75.7269489,393.779391 75.5176857,391.420141 C75.2836208,388.71367 76.943776,386.97291 77.1344381,386.783798 C78.3016621,385.469314 80.16178,384.808972 82.6744892,384.808972 C92.0882358,384.808972 107.569067,393.815043 110.577807,395.619358 C116.604589,398.722654 123.493226,400.291354 131.067006,400.291354 C148.680772,400.291354 164.060847,391.937874 164.214306,391.854169 C178.028782,382.102501 190.875996,380.059472 199.224825,380.059472 C207.449646,380.059472 212.749432,381.980043 212.971096,382.060648 L275.030829,399.59691 L275.030829,423.787743 L285.222725,424.786006 L285.222725,409.328426 L287.267305,409.328426 L287.267305,424.984418 L296.203621,425.860224 L296.203621,410.32824 L298.251301,410.32824 L298.251301,426.061737 L307.186067,426.934442 L307.186067,411.323403 L309.229096,411.323403 L309.229096,427.134405 L318.166963,428.01021 L318.166963,412.324766 L320.211542,412.324766 L320.211542,428.210173 L329.149409,429.082878 L329.149409,413.319929 L331.195538,413.319929 L331.195538,429.284391 L340.127204,430.158646 L340.127204,413.820611 L342.173334,413.820611 L342.173334,430.357059 L351.10655,431.234415 L351.10655,414.821974 L353.15268,414.821974 L353.15268,431.432827 L362.090546,432.308633 L362.090546,415.820238 L364.136676,415.820238 L364.136676,432.507045 L373.071442,433.382851 L373.071442,416.32247 L375.117572,416.32247 L375.117572,433.584363 L384.050788,434.458619 L384.050788,417.815214 L386.096917,417.815214 L386.096917,434.657031 L397.265375,435.751401 L397.265375,424.432583 L397.676151,424.124114 C401.149921,421.5308 404.484183,420.217866 407.589029,420.217866 C408.630695,420.217866 409.663061,420.366676 410.656674,420.662745 C417.213589,422.611218 420.092122,430.254752 420.21458,430.578723 L420.285884,431.076305 L420.273483,459.143933 L567.965293,459.143933 L567.965293,439.914965 C567.492513,437.15889 568.016446,434.884896 569.518491,433.110033 C572.200161,429.944733 577.016316,429.90753 577.220929,429.90753 C582.015383,429.90753 585.397697,431.067004 587.270216,433.351849 C588.992375,435.453782 588.824965,437.78668 588.731959,438.451672 L588.724208,492.328436 C588.724208,500.774921 581.741016,503.543397 578.045582,503.825515 L432.034079,503.828615 L431.643454,503.782112 Z" id="Fill-89" fill="#205153"></path>
            <path d="M426.667639,139.947705 L428.712218,139.947705 L428.712218,73.9228212 L426.667639,73.9228212 L426.667639,139.947705 Z M512.477976,170.591597 L519.586727,163.478196 L518.912434,162.875208 C517.377837,161.497171 515.489817,160.616715 513.457639,160.329947 L512.477976,160.190438 L512.477976,170.591597 Z M503.302945,165.008143 C502.382187,166.441984 501.830352,168.099039 501.704794,169.801047 L501.638139,170.721806 L510.48765,170.721806 L503.878031,164.110637 L503.302945,165.008143 Z M513.226674,170.721806 L522.387754,170.721806 L522.32265,169.802597 C522.192442,168.016884 521.592554,166.286974 520.58964,164.80043 L520.008354,163.938576 L513.226674,170.721806 Z M510.907727,160.289644 C508.656984,160.52991 506.589153,161.48167 504.935198,163.039519 L504.291908,163.645607 L511.859487,171.210086 L511.859487,160.187338 L510.907727,160.289644 Z M501.828802,172.346308 C502.163623,174.252929 503.025477,176.026242 504.32756,177.469383 L504.930548,178.140576 L511.727729,171.341845 L501.65209,171.341845 L501.828802,172.346308 Z M518.934136,178.286285 L519.540224,177.642994 C520.932212,176.16265 521.85142,174.330434 522.197092,172.346308 L522.369153,171.341845 L511.991246,171.341845 L518.934136,178.286285 Z M512.477976,180.938503 L513.456088,180.802094 C514.931782,180.594381 516.31757,180.079749 517.573149,179.275248 L518.469106,178.700161 L512.477976,172.712132 L512.477976,180.938503 Z M505.389377,178.559102 L506.249682,179.141939 C507.64167,180.078198 509.252222,180.667236 510.909277,180.842397 L511.859487,180.943153 L511.859487,172.088992 L505.389377,178.559102 Z M512.011397,181.52134 C505.972214,181.52134 501.056853,176.607528 501.056853,170.566796 C501.056853,164.524513 505.972214,159.609151 512.011397,159.609151 C518.05523,159.609151 522.969041,164.524513 522.969041,170.566796 C522.969041,176.607528 518.05523,181.52134 512.011397,181.52134 L512.011397,181.52134 Z M381.601633,126.168882 C378.315424,126.168882 376.478558,126.990434 375.993377,127.24155 L375.863169,127.320605 C372.849778,130.103031 372.814126,136.38713 372.814126,136.450684 L376.239843,176.534674 L376.82578,176.688134 C380.349153,177.616642 383.661713,179.31555 384.923493,180.003794 L385.311018,180.214607 L414.483866,166.113363 L427.872065,148.315136 C429.002086,146.374413 429.257853,144.5918 428.650214,142.990548 C427.374483,139.631485 422.59553,137.997682 422.394018,137.929477 L389.45443,127.443063 C386.625501,126.596709 383.985684,126.168882 381.601633,126.168882 L381.601633,126.168882 Z M387.766373,124.809446 C388.577075,124.990807 389.161462,125.218672 390.060519,125.486839 L395.222346,127.128393 L395.222346,107.029819 L387.788075,107.029819 L387.766373,124.809446 Z M384.740582,182.251436 C384.700279,182.226635 379.868623,179.345002 375.081919,178.385491 L374.328572,178.233582 L370.772568,136.539039 C370.769546,135.788792 370.839301,128.921857 374.61689,125.689902 L374.754849,125.589145 C374.973413,125.444986 377.132699,124.102601 381.538079,124.102601 C382.567344,124.102601 383.657063,124.175456 384.773134,124.324265 L385.743495,124.451373 L385.743495,107.029819 L378.072059,107.029819 L378.072059,104.982139 L389.730348,104.982139 L389.730348,73.9228212 L391.778028,73.9228212 L391.778028,104.982139 L401.215026,104.982139 L401.215026,73.9228212 L403.259605,73.9228212 L403.259605,107.029819 L397.270026,107.029819 L397.270026,127.782534 L414.685379,133.324136 L414.685379,74.4235029 L416.729959,74.4235029 L416.729959,133.976727 L423.009407,135.976354 C423.192318,136.035257 424.16888,136.365428 425.401208,137.02732 L426.667639,137.703163 L426.667639,137.686112 L427.79301,138.609971 C429.121444,139.698139 430.049953,140.922717 430.556835,142.246501 C431.407839,144.467792 431.076118,146.890595 429.572523,149.445157 L415.841752,167.767318 L385.213361,182.533554 L384.740582,182.251436 Z M221.595843,328.487703 L358.630727,328.487703 L358.630727,326.441574 L221.595843,326.441574 L221.595843,328.487703 Z M104.402216,490.64813 L104.402216,454.216171 L0,367.119251 L1.30983301,365.547452 L106.446796,453.25821 L106.446796,490.64813 L104.402216,490.64813 Z M423.345778,571.076527 L423.345778,529.761758 L135.348377,461.571387 L135.897112,491.410778 L133.846332,491.44798 L133.252644,458.970322 L425.391908,528.141906 L425.391908,571.076527 L423.345778,571.076527 Z M762.435967,572.015886 C753.457798,556.319591 742.689265,543.03525 742.583859,542.906591 C733.814953,532.107057 710.695238,531.559872 706.1488,531.559872 C705.493108,531.559872 705.116434,531.573823 705.085432,531.576923 L456.342719,532.187662 L456.342719,570.241024 L454.298139,570.241024 L454.298139,530.143083 L705.114884,529.526143 C705.265244,529.519943 705.691521,529.510642 706.368914,529.510642 C711.04091,529.510642 734.817866,530.093479 744.17736,541.61846 C744.285866,541.751768 755.096251,555.054711 764.217029,571.008322 L762.435967,572.015886 Z" id="Fill-91" fill="#205153"></path>
            <path d="M427.469039,399.590709 L429.515169,399.590709 L429.515169,383.841711 L427.469039,383.841711 L427.469039,399.590709 Z M438.449935,399.590709 L440.494515,399.590709 L440.494515,383.841711 L438.449935,383.841711 L438.449935,399.590709 Z M449.432381,399.590709 L451.476961,399.590709 L451.476961,383.841711 L449.432381,383.841711 L449.432381,399.590709 Z M460.422578,399.590709 L462.465607,399.590709 L462.465607,383.841711 L460.422578,383.841711 L460.422578,399.590709 Z M471.401923,399.590709 L473.446503,399.590709 L473.446503,383.841711 L471.401923,383.841711 L471.401923,399.590709 Z M482.371969,399.590709 L484.416548,399.590709 L484.416548,383.841711 L482.371969,383.841711 L482.371969,399.590709 Z M493.362165,399.590709 L495.408295,399.590709 L495.408295,383.841711 L493.362165,383.841711 L493.362165,399.590709 Z M504.33531,399.590709 L506.37989,399.590709 L506.37989,383.841711 L504.33531,383.841711 L504.33531,399.590709 Z M515.317756,399.590709 L517.362336,399.590709 L517.362336,383.841711 L515.317756,383.841711 L515.317756,399.590709 Z M525.866175,399.590709 L527.910754,399.590709 L527.910754,383.841711 L525.866175,383.841711 L525.866175,399.590709 Z M537.288849,399.590709 L539.333428,399.590709 L539.333428,383.841711 L537.288849,383.841711 L537.288849,399.590709 Z M548.266644,399.590709 L550.311224,399.590709 L550.311224,383.841711 L548.266644,383.841711 L548.266644,399.590709 Z M559.25064,399.590709 L561.29522,399.590709 L561.29522,383.841711 L559.25064,383.841711 L559.25064,399.590709 Z M427.469039,459.450853 L429.515169,459.450853 L429.515169,443.701855 L427.469039,443.701855 L427.469039,459.450853 Z M438.449935,459.450853 L440.494515,459.450853 L440.494515,443.701855 L438.449935,443.701855 L438.449935,459.450853 Z M449.432381,459.450853 L451.476961,459.450853 L451.476961,443.701855 L449.432381,443.701855 L449.432381,459.450853 Z M460.422578,459.450853 L462.465607,459.450853 L462.465607,443.701855 L460.422578,443.701855 L460.422578,459.450853 Z M471.401923,459.450853 L473.446503,459.450853 L473.446503,443.701855 L471.401923,443.701855 L471.401923,459.450853 Z M482.371969,459.450853 L484.416548,459.450853 L484.416548,443.701855 L482.371969,443.701855 L482.371969,459.450853 Z M493.362165,459.450853 L495.408295,459.450853 L495.408295,443.701855 L493.362165,443.701855 L493.362165,459.450853 Z M504.33531,459.450853 L506.37989,459.450853 L506.37989,443.701855 L504.33531,443.701855 L504.33531,459.450853 Z M515.317756,459.450853 L517.362336,459.450853 L517.362336,443.701855 L515.317756,443.701855 L515.317756,459.450853 Z M525.866175,459.450853 L527.910754,459.450853 L527.910754,443.701855 L525.866175,443.701855 L525.866175,459.450853 Z M537.288849,459.450853 L539.333428,459.450853 L539.333428,443.701855 L537.288849,443.701855 L537.288849,459.450853 Z M548.266644,459.450853 L550.311224,459.450853 L550.311224,443.701855 L548.266644,443.701855 L548.266644,459.450853 Z M559.25064,459.450853 L561.29522,459.450853 L561.29522,443.701855 L559.25064,443.701855 L559.25064,459.450853 Z" id="Fill-92" fill="#205153"></path>
            <path d="M377.160756,29.1400183 L309.233902,47.8528041 C311.075418,55.5877943 312.05198,63.6514053 312.05198,71.947531 C312.05198,129.163207 265.665291,175.545246 208.448065,175.545246 C190.615735,175.545246 173.877774,170.987957 159.229346,163.062305 L159.229346,56.7891204 L113.109273,56.7891204 L113.109273,112.526003 C113.07052,112.440747 113.028668,112.358592 112.993016,112.276437 L79.6426521,128.972545 L83.6388053,137.953814 L70.6536324,145.94612 L73.6530725,153.929126 L60.1393161,163.018902 C73.5740175,184.853586 91.6993161,203.490417 113.109273,217.535857 L113.109273,251.059832 L159.229346,251.059832 L159.229346,238.87916 C174.843485,243.478301 191.350481,245.966209 208.448065,245.966209 C304.555705,245.966209 382.458992,168.053621 382.458992,71.947531 C382.458992,57.176645 380.622126,42.8335861 377.160756,29.1400183" id="Fill-93" fill="#F6F6F6"></path>
            <path d="M158.338039,250.16682 L158.338039,238.449628 C158.338039,238.269816 158.423294,238.099305 158.567454,237.992349 C158.66666,237.917944 158.787568,237.879191 158.910025,237.879191 C158.964279,237.879191 159.018532,237.886942 159.072786,237.902443 L159.482012,238.02335 C175.356568,242.701547 191.831012,245.073197 208.448065,245.073197 C303.904664,245.073197 381.566135,167.408626 381.566135,71.9458259 C381.566135,57.8213308 379.865678,43.7913917 376.517465,30.2435332 L310.298819,48.4866393 C312.05508,56.1472248 312.944837,64.040325 312.944837,71.9458259 C312.944837,129.562977 266.068316,176.437948 208.448065,176.437948 C191.189271,176.437948 174.021933,172.083722 158.804619,163.8465 L158.635658,163.755044 C158.451196,163.654288 158.338039,163.462075 158.338039,163.252812 L158.338039,57.6833721 L114.00368,57.6833721 L114.00368,111.881007 C114.00368,112.000364 113.966477,112.115072 113.896723,112.212728 L113.304585,113.04203 C113.251882,113.117985 113.179027,113.178439 113.095322,113.220292 L80.8036756,129.387816 L84.565764,137.848252 C84.6835715,138.108669 84.5874654,138.417138 84.3456501,138.567498 L71.7480018,146.319539 L74.5784811,153.853017 C74.671487,154.101032 74.5831314,154.3816 74.3630175,154.528859 L61.3514929,163.280714 C74.5877817,184.546512 92.6541766,203.050034 113.600654,216.790105 L113.743263,216.884661 C113.906023,216.991618 114.00368,217.169879 114.00368,217.363641 L114.00368,250.16682 L158.338039,250.16682 Z M112.789953,251.952533 C112.473733,251.952533 112.217966,251.696767 112.217966,251.382097 L112.217966,218.017783 C90.9800705,204.001794 72.7090627,185.14485 59.3782179,163.485327 L59.2185578,163.22491 C59.0557974,162.964494 59.1323094,162.621922 59.3844183,162.449861 L72.5695538,153.580199 L69.7235735,146.01107 C69.6274674,145.755303 69.7251236,145.466985 69.9576383,145.322826 L82.5025833,137.603337 L78.7063927,129.054545 C78.5823849,128.773977 78.6986422,128.446906 78.9730096,128.312048 L112.217966,111.665543 L112.217966,56.4680951 C112.217966,56.1534251 112.473733,55.8961088 112.789953,55.8961088 L159.550216,55.8961088 C159.864886,55.8961088 160.122202,56.1534251 160.122202,56.4680951 L160.122202,162.528916 C174.969043,170.460769 191.680652,174.653785 208.448065,174.653785 C265.084004,174.653785 311.160674,128.580215 311.160674,71.9458259 C311.160674,63.8884153 310.219764,55.8527061 308.362746,48.0619124 L308.291442,47.7596432 C308.220137,47.4604743 308.399949,47.1597552 308.696017,47.0776 L377.239811,28.1912031 C377.289414,28.1788024 377.340568,28.1710519 377.391721,28.1710519 C377.492477,28.1710519 377.591683,28.1974035 377.680039,28.2485568 C377.813348,28.3260617 377.907904,28.4547198 377.946656,28.6035293 L378.025711,28.9212994 C381.559935,42.8938849 383.351849,57.3702523 383.351849,71.9458259 C383.351849,168.392938 304.890526,246.85736 208.448065,246.85736 C192.071277,246.85736 175.810746,244.574066 160.122202,240.06948 L160.122202,251.382097 C160.122202,251.696767 159.864886,251.952533 159.550216,251.952533 L112.789953,251.952533 Z" id="Fill-94" fill="#205153"></path>
            <path d="M217.390116,173.914543 C216.725124,164.779814 207.805859,157.323841 196.952071,156.883614 C196.587798,156.866562 196.220425,156.858812 195.851501,156.858812 C186.634617,156.858812 178.687264,161.803625 175.982342,169.192944 L174.105173,168.723264 C177.025558,160.46279 185.73711,154.93514 195.899554,154.93514 C196.274678,154.93514 196.649802,154.942891 197.028026,154.958392 C208.991684,155.443572 218.71545,163.7769 219.323089,173.992048 L217.390116,173.914543 Z M342.180774,197.018757 C338.693053,197.018757 335.227034,196.12745 332.137688,194.436293 L333.199505,192.819541 C335.972631,194.306085 339.074378,195.091985 342.190075,195.091985 C343.458055,195.091985 344.738437,194.961777 345.995566,194.707561 C350.94193,193.709297 355.187649,190.844716 357.943723,186.64395 C362.615719,179.522798 361.885623,170.157105 356.189012,163.7738 L357.512796,162.366311 C363.902301,169.403757 364.750205,179.777014 359.554275,187.701117 C356.512983,192.33281 351.833236,195.49191 346.37689,196.59558 C344.986452,196.876148 343.575863,197.018757 342.180774,197.018757 L342.180774,197.018757 Z M342.27223,209.997729 C335.653311,209.997729 329.186301,208.052356 323.570295,204.369323 C323.257175,204.16161 322.937855,203.944596 322.613884,203.715181 L323.796609,202.192985 C324.078727,202.392948 324.356195,202.58206 324.629012,202.760321 C329.928798,206.235641 336.029985,208.070957 342.276881,208.070957 C344.416016,208.070957 346.576853,207.853944 348.700488,207.423016 C357.049317,205.734959 364.20767,200.900203 368.856415,193.808504 C377.753979,180.268395 374.979303,162.284156 362.421957,151.859745 L363.57368,150.314297 C376.960328,161.358747 379.934967,180.455957 370.468517,194.86412 C365.536105,202.385197 357.940623,207.516022 349.077161,209.314136 C346.824869,209.766765 344.535374,209.997729 342.27223,209.997729 L342.27223,209.997729 Z" id="Fill-95" fill="#205153"></path>
            <path d="M172.128488,73.4897238 C172.79813,53.1322837 188.049547,36.2238122 207.718743,34.1001776 C209.118482,33.9498181 210.535272,33.8738633 211.93036,33.8738633 C232.478462,33.8738633 249.707804,49.7964723 252.0035,70.9119104 C252.087205,71.6931599 252.149209,72.468209 252.189512,73.2665096 L250.715368,73.3083623 C250.673516,72.5348633 250.613062,71.7939163 250.537107,71.0684703 C248.317366,50.7048299 231.722015,35.3480067 211.933461,35.3480067 C210.584875,35.3480067 209.220789,35.4224114 207.878404,35.5696707 C188.956354,37.6111501 174.269174,53.8918318 173.604182,73.4990244 L172.128488,73.4897238 Z M187.796881,74.4569851 C189.024559,62.7800951 198.089533,53.4547041 209.453303,52.2285764 C210.312058,52.1371206 211.181663,52.0906177 212.038867,52.0906177 C224.103282,52.0906177 234.523042,61.3214527 236.395561,73.6106314 L234.927618,73.7702916 C233.137254,62.2298102 223.357684,53.5616609 212.063669,53.5616609 C211.252967,53.5616609 210.429865,53.6081639 209.612963,53.6980695 C198.968439,54.8451422 190.455299,63.5923466 189.274125,74.5484409 L187.796881,74.4569851 Z" id="Fill-96" fill="#205153"></path>
            <path d="M127.358,372.4 L127.358,370.134 L120.604,370.134 L120.604,368 L117.7,368 L117.7,370.134 L110.88,370.134 L110.88,372.4 L127.358,372.4 Z M119.152,380.166 C123.486,380.166 126.104,378.912 126.104,376.69 C126.104,374.446 123.486,373.192 119.152,373.192 C114.818,373.192 112.222,374.446 112.222,376.69 C112.222,378.912 114.818,380.166 119.152,380.166 Z M119.152,378.01 C116.512,378.01 115.236,377.592 115.236,376.69 C115.236,375.744 116.512,375.348 119.152,375.348 C121.792,375.348 123.09,375.744 123.09,376.69 C123.09,377.592 121.792,378.01 119.152,378.01 Z M120.604,388.306 L120.604,383.466 L128.348,383.466 L128.348,381.134 L110,381.134 L110,383.466 L117.7,383.466 L117.7,388.306 L120.604,388.306 Z M145.011778,376.426 L145.011778,368.88 L131.261778,368.88 L131.261778,376.426 L145.011778,376.426 Z M142.151778,374.138 L134.121778,374.138 L134.121778,371.146 L142.151778,371.146 L142.151778,374.138 Z M139.885778,383.774 L139.885778,380.32 L147.343778,380.32 L147.343778,378.032 L128.995778,378.032 L128.995778,380.32 L136.981778,380.32 L136.981778,383.774 L139.885778,383.774 Z M145.319778,387.932 L145.319778,385.622 L134.033778,385.622 L134.033778,382.058 L131.129778,382.058 L131.129778,387.932 L145.319778,387.932 Z" id="후문" fill="#1F5153" fill-rule="nonzero"></path>
            <path d="M611.94,496.078 L611.94,484.022 L609.036,484.022 L609.036,488.906 L606,488.906 L606,491.26 L609.036,491.26 L609.036,496.078 L611.94,496.078 Z M596.364,496.078 C598.718,495.286 600.324,493.636 601.204,491.59 C602.084,493.372 603.602,494.802 605.802,495.528 L607.21,493.262 C604.13,492.25 602.722,489.874 602.634,487.564 L606.572,487.564 L606.572,485.232 L595.682,485.232 L595.682,487.564 L599.664,487.564 C599.576,490.094 598.102,492.668 594.89,493.79 L596.364,496.078 Z M605.098,504.306 C609.388,504.306 612.028,502.876 612.028,500.412 C612.028,497.948 609.388,496.518 605.098,496.518 C600.786,496.518 598.146,497.948 598.146,500.412 C598.146,502.876 600.786,504.306 605.098,504.306 Z M605.098,502.106 C602.436,502.106 601.05,501.556 601.05,500.412 C601.05,499.268 602.436,498.718 605.098,498.718 C607.738,498.718 609.124,499.268 609.124,500.412 C609.124,501.556 607.738,502.106 605.098,502.106 Z M630.011778,492.426 L630.011778,484.88 L616.261778,484.88 L616.261778,492.426 L630.011778,492.426 Z M627.151778,490.138 L619.121778,490.138 L619.121778,487.146 L627.151778,487.146 L627.151778,490.138 Z M624.885778,499.774 L624.885778,496.32 L632.343778,496.32 L632.343778,494.032 L613.995778,494.032 L613.995778,496.32 L621.981778,496.32 L621.981778,499.774 L624.885778,499.774 Z M630.319778,503.932 L630.319778,501.622 L619.033778,501.622 L619.033778,498.058 L616.129778,498.058 L616.129778,503.932 L630.319778,503.932 Z" id="정문" fill="#1F5153" fill-rule="nonzero"></path>
            <path d="M483.433778,421.57 L484.279778,419.716 C480.913778,419.302 479.167778,417.682 478.933778,416.098 L483.631778,416.098 L483.631778,414.208 L471.337778,414.208 L471.337778,416.098 L476.107778,416.098 C475.873778,417.682 474.109778,419.302 470.725778,419.716 L471.589778,421.57 C474.487778,421.174 476.521778,419.932 477.511778,418.24 C478.501778,419.932 480.535778,421.174 483.433778,421.57 Z M478.645778,429.976 L478.645778,424.414 L484.999778,424.414 L484.999778,422.524 L470.023778,422.524 L470.023778,424.414 L476.269778,424.414 L476.269778,429.976 L478.645778,429.976 Z M498.543778,429.94 L498.543778,421.768 L500.955778,421.768 L500.955778,419.806 L498.543778,419.806 L498.543778,413.38 L496.167778,413.38 L496.167778,429.94 L498.543778,429.94 Z M486.555778,426.88 C488.409778,426.052 489.687778,424.378 490.407778,422.398 C491.091778,424.234 492.297778,425.782 494.061778,426.592 L495.321778,424.792 C492.729778,423.55 491.559778,420.868 491.559778,418.528 L491.559778,417.952 L494.853778,417.952 L494.853778,416.062 L491.577778,416.062 L491.577778,413.758 L489.201778,413.758 L489.201778,416.062 L485.835778,416.062 L485.835778,417.952 L489.201778,417.952 L489.201778,418.528 C489.201778,421.012 487.959778,423.82 485.277778,425.062 L486.555778,426.88 Z M514.175778,423.208 L514.175778,419.122 L516.371778,419.122 L516.371778,417.178 L514.175778,417.178 L514.175778,413.362 L511.799778,413.362 L511.799778,423.208 L514.175778,423.208 Z M502.079778,423.298 C504.023778,422.668 505.337778,421.354 506.075778,419.716 C506.795778,421.084 508.055778,422.182 509.873778,422.722 L511.007778,420.886 C508.397778,420.112 507.263778,418.258 507.227778,416.368 L510.467778,416.368 L510.467778,414.46 L501.503778,414.46 L501.503778,416.368 L504.797778,416.368 C504.761778,418.438 503.573778,420.544 500.891778,421.444 L502.079778,423.298 Z M508.757778,429.94 C512.195778,429.94 514.355778,428.752 514.355778,426.736 C514.355778,424.702 512.195778,423.496 508.757778,423.496 C505.301778,423.496 503.141778,424.702 503.141778,426.736 C503.141778,428.752 505.301778,429.94 508.757778,429.94 Z M508.757778,428.122 C506.633778,428.122 505.499778,427.672 505.499778,426.736 C505.499778,425.782 506.633778,425.332 508.757778,425.332 C510.863778,425.332 511.997778,425.782 511.997778,426.736 C511.997778,427.672 510.863778,428.122 508.757778,428.122 Z" id="주차장" fill="#1F5153" fill-rule="nonzero"></path>
        </g>
    </g>
</svg>