<svg xmlns="http://www.w3.org/2000/svg" width="48" height="48" viewBox="0 0 48 48">
    <path fill="#305153" fill-rule="evenodd" d="M10.66 27.502V46H9.167V27.502h1.491zm4.644 0V46h-1.492V27.502h1.492zm18.465 0V46h-1.553V27.502h1.553zm4.525 0V46h-1.49V27.502h1.49zm-.892-17.295c1.368 0 2.501 1.013 2.501 2.45v4.785L43 27.324l-1.37.415-3.28-10.051v-5.032c0-.538-.413-.955-.948-.955h-4.23c-.476 0-.894.417-.894.955v5.032l-3.275 10.051-1.431-.415 3.158-9.882v-4.786c0-1.436 1.132-2.45 2.443-2.45h4.229zm-21.204 0c1.843 0 3.274 1.493 3.274 3.29v14.006h-1.488V13.498c0-.964-.775-1.798-1.786-1.798H8.275c-1.073 0-1.789.834-1.789 1.798v14.005H5V13.498c0-1.798 1.486-3.292 3.275-3.292h7.923zM14.113 2c.415 0 .832.359.832.783v5.023c0 .424-.417.783-.832.783h-3.811c-.357 0-.716-.359-.716-.783V2.783c0-.424.359-.783.716-.783h3.81zM37.16 2c.419 0 .776.359.776.783v5.023c0 .424-.357.783-.776.783h-3.75c-.357 0-.715-.359-.715-.783V2.783c0-.424.358-.783.715-.783h3.75zM13.399 3.559h-2.263V7.03h2.263V3.56zm23.047 0h-2.262V7.03h2.262V3.56z"/>
</svg>
