<svg xmlns="http://www.w3.org/2000/svg" width="64" height="64" viewBox="0 0 64 64">
    <path fill="#1F5153" fill-rule="evenodd" d="M52.596 5c2.4 0 4.35 1.952 4.35 4.348V59.46h-2.244V9.348c0-1.162-.946-2.104-2.106-2.104H11.35c-1.16 0-2.108.942-2.108 2.104V59.46H7V9.348C7 6.952 8.95 5 11.35 5h41.246zM23.42 15.07l1.454 1.458-2.962 2.962-.001 7.678h22.463c1.672 0 3.032 1.369 3.032 3.04l-.001 27.004h3.278v2.244H13.267v-2.244H15.9l.001-27.003c0-1.672 1.362-3.04 3.034-3.04l.919-.001v-8.534l3.565-3.564zM44.374 29.23H18.936c-.538 0-.98.438-.98.98l-.001 27.003h27.396l.001-27.003c0-.542-.44-.98-.978-.98zm-6.72-10.462c2.174 0 3.944 1.77 3.944 3.946v1.724h-2.06v-1.724c0-1.04-.846-1.888-1.884-1.888H28.58c-1.038 0-1.884.848-1.884 1.888v1.724h-2.06v-1.724c0-2.176 1.77-3.946 3.944-3.946h9.074zM35.27 9.592c.512 0 .928.418.928.928v5.682c0 .51-.416.928-.928.928h-4.302c-.512 0-.928-.418-.928-.928V10.52c0-.51.416-.928.928-.928h4.302zm-.93 1.856h-2.444v3.824h2.444v-3.824z"/>
</svg>
