<svg xmlns="http://www.w3.org/2000/svg" width="64" height="64" viewBox="0 0 64 64">
    <path fill="#1F5153" fill-rule="evenodd" d="M18.168 22.305l-.001 31.548h27.502V22.305h2.245l-.001 31.548h3.679v2.244H12.358v-2.244h3.789V22.305h2.02zm34.43-5.699c2.398 0 4.35 1.95 4.35 4.35v35.018h-2.244V20.956c0-1.162-.946-2.108-2.106-2.108H11.35c-1.16 0-2.106.946-2.106 2.108v35.13H7v-35.13c0-2.4 1.952-4.35 4.35-4.35h41.248zM32.986 44.227v3.176h-2.02v-3.176h2.02zm.62-16.099c1.281 0 2.323 1.044 2.323 2.326v3.308c0 .542-.188 1.068-.528 1.48l-2.344 2.822-.072 4.724h-2.02v-4.534c0-.554.186-1.07.544-1.488l2.334-2.812.066-3.5c0-.17-.134-.306-.304-.306h-3.264c-.168 0-.306.138-.306.306v3.778h-2.02v-3.778c0-1.282 1.044-2.326 2.326-2.326h3.264zM39.081 7c1.18 0 2.138.958 2.138 2.136v5.41h-2.244v-5.41l-14.102.106.104 5.304h-2.244v-5.41c0-1.178.958-2.136 2.14-2.136h14.208z"/>
</svg>
