<svg xmlns="http://www.w3.org/2000/svg" width="64" height="64" viewBox="0 0 64 64">
    <path fill="#1F5153" fill-rule="evenodd" d="M26.62 5c4.829 0 8.822 3.641 9.378 8.32h1.232v2.245h-1.232c-.277 2.33-1.407 4.403-3.068 5.896l-2.366 28.617h-2.545v1.316c0 2.666 2.17 4.834 4.837 4.834 2.664 0 4.834-2.168 4.834-4.834V36.856c0-3.018 2.456-5.476 5.476-5.476 3.024 0 5.484 2.458 5.484 5.476v10.55h-2.244v-10.55c0-1.784-1.452-3.232-3.24-3.232-1.782 0-3.232 1.448-3.232 3.232v14.538c0 3.9-3.174 7.076-7.078 7.076-3.904 0-7.08-3.176-7.08-7.076l-.001-1.316h-3.103L20.305 21.46c-1.662-1.493-2.793-3.566-3.07-5.896H16v-2.243h1.235C17.792 8.64 21.79 5 26.62 5zm-3.934 18.026l2.05 24.808H28.5l2.049-24.806c-1.197.55-2.528.856-3.929.856-1.403 0-2.735-.307-3.934-.858zm5.054 3.385v6.376h-2.244V26.41h2.244zm5.993-10.846H19.5c.542 3.436 3.529 6.077 7.12 6.077 3.586 0 6.571-2.641 7.113-6.077zM26.62 7.242c-3.592 0-6.58 2.64-7.12 6.079h14.233c-.54-3.438-3.526-6.079-7.113-6.079z"/>
</svg>
