<svg xmlns="http://www.w3.org/2000/svg" width="64" height="64" viewBox="0 0 64 64">
    <path fill="#1F5153" fill-rule="evenodd" d="M52.601 30.265v2.244H38.497c-1.75 0-3.174 1.42-3.174 3.166V59.48h-2.244V35.675c0-2.984 2.43-5.41 5.418-5.41h14.104zm-33.566 6.351V59.48H16.79V36.616h2.244zm5.716 0V59.48h-2.244V36.616h2.244zM23.4 14.982c1.79 0 3.242 1.454 3.242 3.244v5.912l3.898 12.136-2.136.688-4.006-12.648v-6.088c0-.552-.448-1-.998-1h-5.252c-.554 0-1.006.448-1.006 1l-.052 6.432-3.952 12.304L11 36.274l3.9-12.136v-5.912c0-1.79 1.456-3.244 3.248-3.244H23.4zm20.57 7.205c.654 0 1.246.265 1.677.692.563-.434 1.269-.692 2.033-.692 1.85 0 3.354 1.502 3.354 3.35 0 1.852-1.504 3.356-3.354 3.356-.764 0-1.47-.258-2.034-.692-.43.428-1.022.692-1.676.692h-7.99c-.558 0-1.008-.452-1.008-1.01v-4.686c0-.558.45-1.01 1.008-1.01h7.99zm0 2.02h-6.98v2.666h6.98c.2 0 .362-.166.362-.366V24.57c0-.198-.162-.362-.362-.362zm3.71 0c-.717 0-1.306.573-1.329 1.287l.001.086.005.086c.064.678.634 1.207 1.323 1.207.736 0 1.336-.598 1.336-1.336 0-.734-.6-1.33-1.336-1.33zM23.11 5c.559 0 1.01.45 1.01 1.01v6.174c0 .558-.451 1.01-1.01 1.01h-4.683c-.558 0-1.01-.452-1.01-1.01V6.01c0-.56.452-1.01 1.01-1.01h4.684zM22.1 7.018h-2.663v4.156H22.1V7.018z"/>
</svg>
