<svg xmlns="http://www.w3.org/2000/svg" width="64" height="64" viewBox="0 0 64 64">
    <path fill="#1F5153" fill-rule="evenodd" d="M44.883 57.212v2.244H14.025v-2.244h30.858zM16.244 26.429v22.842c0 1.164.944 2.108 2.104 2.108h22.158c1.16 0 2.106-.944 2.106-2.108V26.43h2.244v4.676h2.085c1.44 0 2.612 1.169 2.612 2.607v10.62c0 1.438-1.172 2.61-2.612 2.61l-2.085-.001v2.33c0 2.396-1.95 4.35-4.35 4.35H18.348c-2.398 0-4.348-1.954-4.348-4.35V26.43h2.244zm30.697 6.919l-2.085-.001v11.352h2.085c.202 0 .368-.163.368-.367v-10.62c0-.2-.166-.364-.368-.364zm-7.274-2.242v2.242H19.191v-2.242h20.476zM24.91 5c0 2.11-.788 3.198-1.484 4.16-.614.852-1.1 1.522-1.1 2.982 0 1.456.486 2.126 1.1 2.978.696.96 1.484 2.05 1.484 4.166 0 2.116-.788 3.206-1.484 4.166-.614.852-1.1 1.52-1.1 2.978h-2.02c0-2.112.788-3.204 1.484-4.162.616-.852 1.102-1.524 1.102-2.982 0-1.458-.486-2.132-1.102-2.982-.696-.962-1.484-2.05-1.484-4.162 0-2.116.788-3.204 1.484-4.166.616-.85 1.102-1.522 1.102-2.976h2.018zm7.274 0c0 2.11-.788 3.198-1.484 4.16-.614.852-1.1 1.522-1.1 2.982 0 1.456.486 2.126 1.1 2.978.696.96 1.484 2.05 1.484 4.166 0 2.116-.788 3.206-1.484 4.166-.614.852-1.1 1.52-1.1 2.978h-2.02c0-2.112.788-3.204 1.484-4.162.616-.852 1.102-1.524 1.102-2.982 0-1.458-.486-2.132-1.102-2.982-.696-.962-1.484-2.05-1.484-4.162 0-2.116.788-3.204 1.484-4.166.616-.85 1.102-1.522 1.102-2.976h2.018zm7.277 0c0 2.11-.788 3.198-1.484 4.16-.614.852-1.102 1.522-1.102 2.982 0 1.456.488 2.126 1.102 2.978.696.96 1.484 2.05 1.484 4.166 0 2.116-.788 3.206-1.484 4.166-.614.852-1.102 1.52-1.102 2.978h-2.018c0-2.112.786-3.204 1.482-4.162.616-.852 1.102-1.524 1.102-2.982 0-1.458-.486-2.132-1.102-2.982-.696-.962-1.482-2.05-1.482-4.162 0-2.116.786-3.204 1.482-4.166.616-.85 1.102-1.522 1.102-2.976h2.02z"/>
</svg>
