<?xml version="1.0" encoding="utf-8"?>
<!-- Generator: Adobe Illustrator 16.0.0, SVG Export Plug-In . SVG Version: 6.00 Build 0)  -->
<!DOCTYPE svg PUBLIC "-//W3C//DTD SVG 1.1//EN" "http://www.w3.org/Graphics/SVG/1.1/DTD/svg11.dtd">
<svg version="1.1" id="Layer_1" xmlns="http://www.w3.org/2000/svg" xmlns:xlink="http://www.w3.org/1999/xlink" x="0px" y="0px"
	 width="949px" height="680px" viewBox="0 0 949 680" enable-background="new 0 0 949 680" xml:space="preserve">
<title>pic/pic_facilities_map_2F</title>
<g id="pic_x2F_pic_x5F_facilities_x5F_map_x5F_2F">
	<g transform="translate(-1.000000, 0.000000)">
		<path id="Combined-Shape" fill="#305153" d="M656.946,0l81.474,0.252c0.38,0.001,0.693,0.285,0.741,0.651l0.007,0.102
			l-0.324,77.675c-0.001,0.38-0.284,0.692-0.65,0.741l-0.103,0.006l-9.483-0.034l-0.022,10.153l2.357,1.138
			c11.323,5.509,22.415,11.428,33.255,17.738c0.064,0.018,0.128,0.043,0.188,0.079c0.062,0.036,0.116,0.079,0.163,0.127
			c14.12,8.233,27.811,17.131,41.029,26.65c0.021,0.013,0.043,0.026,0.064,0.042l0.056,0.045
			c58.937,42.472,108.484,97.317,144.79,160.88c0.188,0.33,0.1,0.743-0.195,0.967l-0.085,0.057l-35.682,20.281l0.964,1.711
			c4.86,8.679,9.472,17.521,13.838,26.526l1.185,2.461c0.164,0.344,0.044,0.749-0.266,0.951l-0.09,0.051l-40.24,19.051l0.441,0.934
			c3.731,7.963,7.036,15.561,10.007,23.068c0.14,0.352-0.007,0.748-0.328,0.929l-0.092,0.044l-109.854,43.661
			c-0.385,0.152-0.821-0.035-0.974-0.421c-5.19-13.076-11.268-25.707-18.172-37.82c-0.035-0.037-0.066-0.08-0.093-0.126
			c-0.025-0.045-0.046-0.091-0.062-0.139c-21.476-37.599-50.924-70.201-86.51-95.677c-4.049,11.203-14.793,19.197-27.39,19.167
			c-16.028-0.039-28.996-13.066-28.996-29.112c0.033-7.213,2.672-13.797,7.018-18.861l0.915,0.425
			c-39.079-18.239-81.585-27.792-125.914-27.935c-42.904-0.12-83.739,8.73-120.729,24.786l-0.097-0.565
			c5.374,29.938-3.575,65.144-23.327,86.508c-30.103,32.631-74.946,47.328-115.577,36.281
			c-26.824,44.877-42.304,97.327-42.479,153.402c-0.028,10.495,0.479,20.913,1.51,31.233c0.008,0.034,0.014,0.068,0.018,0.104
			l0.003,0.097c1.632,16.212,4.56,32.182,8.75,47.825c0.099,0.366-0.093,0.742-0.433,0.886l-0.097,0.032l-71.412,19.222
			c-0.007,0.002-0.015,0.004-0.021,0.006l-0.021,0.003L19.265,680.372c-0.399,0.107-0.812-0.13-0.919-0.53
			C6.731,636.677,0.861,591.867,0.997,546.22C1.728,310.847,162.39,113.355,379.772,56.347c0.009,0.003,0.017,0,0.024-0.001
			l0.017-0.009c41.737-10.942,85.566-16.706,130.755-16.563c49.992,0.164,98.963,7.507,145.626,21.662V0.75
			c0-0.381,0.283-0.695,0.649-0.744L656.946,0z M657.693,1.501v179.777l57.667,0.21l0.104-39.254
			c0.001-0.381,0.285-0.695,0.653-0.742l0.102-0.006l4.832,0.035c0.414,0.003,0.748,0.341,0.745,0.755
			c-0.003,0.379-0.287,0.691-0.654,0.738l-0.102,0.006l-4.078-0.031l-0.104,39.25v0.004l-0.217,72.569
			c-0.001,0.415-0.338,0.75-0.753,0.748l0,0l-58.947-0.199c-0.413-0.001-0.748-0.336-0.748-0.75l0,0l0.001-191.609
			c-0.008-0.002-0.016-0.005-0.024-0.007c-46.646-14.194-95.613-21.559-145.606-21.72c-44.8-0.141-88.258,5.539-129.659,16.328
			l33.437,127.082c2.085,8.076-2.531,16.36-10.475,18.763c-7.351,2.23-14.597,4.689-21.849,7.409
			c-0.388,0.145-0.82-0.051-0.966-0.439c-0.145-0.388,0.052-0.82,0.439-0.966c7.281-2.73,14.559-5.199,21.94-7.439
			c7.067-2.138,11.22-9.438,9.535-16.632l-0.077-0.317L379.45,57.984C163.068,115.063,3.226,311.8,2.499,546.225
			c-0.136,44.854,5.546,88.896,16.795,131.355l0.307,1.148l125.31-33.727l-0.321-1.204c-4.574-17.384-7.896-35.186-9.953-53.367
			l-0.224-2.021l-0.218-2.247l-8.191,0.775c-0.378,0.036-0.717-0.215-0.801-0.575l-0.017-0.101
			c-0.036-0.378,0.216-0.717,0.575-0.801l0.101-0.017l8.938-0.845c0.377-0.036,0.716,0.215,0.8,0.574l0.017,0.101l0.288,2.982
			c0.98,9.087,2.276,18.081,3.888,26.976l35.037-6.477c0.407-0.075,0.799,0.193,0.874,0.601c0.069,0.374-0.151,0.733-0.502,0.849
			l-0.099,0.025l-35.04,6.478c1.745,9.415,3.844,18.719,6.295,27.904l69.985-18.836l-0.21-0.794
			c-3.942-15.029-6.728-30.354-8.325-45.901l-36.325,3.477l0.125,1.199c0.48,4.527,1.032,8.924,1.662,13.224l0.275,1.838
			c0.063,0.409-0.219,0.792-0.628,0.854s-0.792-0.219-0.854-0.628c-0.845-5.521-1.555-11.191-2.149-17.085
			c-0.038-0.38,0.213-0.721,0.574-0.806l0.101-0.017l37.069-3.55c-0.942-9.635-1.429-19.354-1.453-29.141v-1.599
			c0.523-167.227,136.482-302.376,303.714-301.907c44.361,0.142,86.91,9.665,126.052,27.846c5.307-5.551,12.787-8.99,21.066-8.953
			c1.104,0,2.079,0.051,3.017,0.17c0.411,0.053,0.702,0.428,0.649,0.839c-0.053,0.411-0.428,0.701-0.839,0.649
			c-0.868-0.111-1.783-0.158-2.83-0.158c-8.022-0.037-15.254,3.368-20.306,8.834c-0.019,0.024-0.039,0.046-0.061,0.067
			c-4.487,4.886-7.239,11.405-7.271,18.579c0,15.216,12.3,27.571,27.499,27.608c12.288,0.029,22.717-7.993,26.288-19.093
			c0.001-0.006,0.003-0.012,0.005-0.018c0.847-2.634,1.306-5.44,1.313-8.353c0.001-0.415,0.338-0.75,0.752-0.749
			s0.749,0.338,0.748,0.752c-0.007,2.887-0.435,5.674-1.226,8.303l-0.444-0.317c35.968,25.571,65.743,58.366,87.47,96.221
			l23.353-13.278l-32.713-51.943l-26.907-0.087c-0.38-0.001-0.692-0.284-0.741-0.65l-0.007-0.102L735,254.862
			c0.002-0.38,0.284-0.693,0.65-0.741l0.103-0.007l12.153,0.034l0.069-14.786c0.002-0.379,0.285-0.692,0.651-0.74l0.102-0.006
			c0.38,0.002,0.692,0.286,0.74,0.652l0.007,0.102l-0.071,15.535c-0.002,0.379-0.284,0.691-0.65,0.74l-0.102,0.006l-12.155-0.034
			l-0.212,74.747l26.571,0.086c0.221,0.001,0.427,0.098,0.568,0.263l0.064,0.088l33.254,52.802c0.053,0.049,0.099,0.107,0.136,0.172
			c0.025,0.045,0.046,0.092,0.061,0.139l12.977,20.607l118.915-56.302l-0.854-1.774c-4.353-8.979-8.951-17.794-13.797-26.448
			l-1.327-2.356c-0.188-0.33-0.098-0.742,0.196-0.965l0.085-0.057l35.675-20.278l-1.167-2.03
			c-35.941-62.042-84.582-115.639-142.275-157.332l-55.82,77.025v5c0,0.38-0.281,0.693-0.647,0.743l-0.103,0.007
			c-0.379,0-0.693-0.282-0.743-0.648l-0.007-0.102v-5.244c0-0.119,0.028-0.235,0.082-0.339l0.062-0.101l10.955-15.12l-0.945-0.685
			l-1.81-1.288l-2.346-1.642l-3.726-2.572c-0.341-0.235-0.428-0.702-0.193-1.043c0.235-0.341,0.702-0.428,1.043-0.193l4.354,3.009
			l1.171,0.819l2.111,1.497l0.774,0.557l0.447,0.325l44.124-60.884c-12.862-9.237-26.17-17.884-39.885-25.902l-25.662,44.113
			l-0.085,28.196l1.035,0.655l2.943,1.905c0.35,0.223,0.452,0.686,0.229,1.035c-0.223,0.35-0.687,0.452-1.035,0.23l-3.115-2.016
			l-0.765-0.483l-0.435-0.268c-0.191-0.117-0.319-0.313-0.352-0.531l-0.008-0.111l0.087-28.667
			c-0.015-0.083-0.016-0.167-0.002-0.251l0.035-10.951l-4.343,0.001c-0.414,0-0.75-0.335-0.75-0.75c0-0.379,0.282-0.693,0.648-0.743
			l0.102-0.007l4.347-0.001l0.091-30.074l-9.45-0.033c-0.38-0.001-0.692-0.284-0.741-0.65l-0.006-0.102l0.046-20.573
			c-0.012-0.078-0.012-0.157,0.001-0.237l0.027-11.249c0-0.38,0.284-0.693,0.65-0.742l0.102-0.007l9.484,0.032l0.317-76.174
			L657.693,1.501z M60.527,422.415l0.101,0.021l100.017,27.79c0.399,0.11,0.633,0.524,0.522,0.923
			c-0.103,0.366-0.458,0.593-0.824,0.543l-0.1-0.021l-99.292-27.59l-0.307,1.115c-10.521,38.614-16.056,78.618-16.326,119.223
			l-0.006,1.185l88.669,0.248c0.379,0.001,0.691,0.282,0.74,0.648l0.007,0.102l0.009,3.01l0.016,1.928l0.024,1.87l0.033,1.819
			l0.042,1.773c0.008,0.292,0.016,0.582,0.024,0.871l0.056,1.714l0.065,1.682c0.012,0.278,0.024,0.555,0.037,0.83
			c0.018,0.383-0.254,0.711-0.621,0.773l-0.103,0.011l-8.974,0.309c-0.414,0.014-0.762-0.311-0.775-0.725
			c-0.013-0.38,0.258-0.703,0.622-0.765l0.102-0.011l8.217-0.282l-0.003-0.076c-0.023-0.559-0.046-1.122-0.066-1.69l-0.057-1.723
			l-0.046-1.76l-0.038-1.804l-0.028-1.853l-0.021-1.906c-0.002-0.322-0.005-0.647-0.007-0.976l-0.008-2.273l-88.672-0.247
			c-0.38-0.002-0.692-0.284-0.741-0.65l-0.007-0.102c0.106-42.048,5.841-83.469,16.895-123.392
			C59.805,422.592,60.16,422.364,60.527,422.415z M304.73,130.297c0.194,0.366,0.055,0.82-0.312,1.014l-2.647,1.417l-3.701,2.006
			l-1.346,0.735c-5.146,2.816-10.454,5.784-15.711,8.803l-1.604,0.925l64.882,113.657c0.024,0.042,0.044,0.086,0.06,0.131
			l8.268,14.409c0.206,0.359,0.082,0.817-0.277,1.023c-0.329,0.189-0.742,0.101-0.968-0.192l-0.057-0.085l-7.965-13.88l-2.388,1.389
			C240.702,320.65,177.595,428.141,177.231,546.767c-0.001,0.38-0.284,0.692-0.65,0.741l-0.102,0.007l-16.309-0.037
			c-0.414-0.001-0.749-0.338-0.749-0.752c0-0.38,0.284-0.693,0.65-0.742l0.102-0.006l15.563,0.034l0.025-2.857
			c1.62-117.729,64.746-224.129,164.441-282.797l2.416-1.406l-64.882-113.659c-0.188-0.328-0.1-0.739,0.191-0.964l0.084-0.057
			c5.248-3.038,10.577-6.038,15.773-8.9l3.566-1.954l2.53-1.375l3.834-2.057C304.082,129.792,304.536,129.931,304.73,130.297z
			 M888.562,368.943l-78.604,37.218c-0.309,0.146-0.672,0.063-0.889-0.188l-0.066-0.09l-13.05-20.721l-23.409,13.311
			c6.531,11.512,12.32,23.486,17.316,35.863l0.372,0.932l108.461-43.107l-0.319-0.801c-2.804-6.992-5.902-14.079-9.374-21.486
			L888.562,368.943z M387.773,271.848l-3.8,1.7c-55.35,25.287-101.725,66.839-132.993,118.563l-0.937-0.254
			c40.209,11.17,84.747-3.326,114.616-35.705C383.876,335.367,392.721,301.141,387.773,271.848z M657.032,275.993l0.424,0.006
			c3.804,0.095,7.425,1.469,10.288,3.848c3.868,3.201,6.149,7.95,6.149,13.082c-0.071,9.339-7.678,16.889-17,16.854
			c-9.326-0.036-16.857-7.624-16.857-16.969C640.108,283.479,647.707,275.958,657.032,275.993L657.032,275.993z M657.032,277.494
			c-8.504-0.033-15.431,6.823-15.496,15.325c0,8.515,6.864,15.431,15.363,15.463c8.494,0.032,15.429-6.851,15.494-15.359
			c0-4.674-2.078-9.001-5.606-11.921C664.083,278.756,660.638,277.494,657.032,277.494z M657.693,182.778v71.086l57.45,0.193
			l0.213-71.069L657.693,182.778z M508.218,62.95l2.277,0.002c35.043,0.107,69.489,3.916,102.984,11.316
			c13.512,2.938,21.819,16.552,18.4,29.901l-0.107,0.405l-15.821,57.575l-1.446-0.397l15.821-57.574
			c3.466-12.65-4.359-25.659-17.168-28.443c-33.393-7.377-67.731-11.175-102.668-11.281c-21.954-0.071-43.814,1.338-65.438,4.191
			c-16.86,2.264-28.347,18.2-25.26,34.855l0.098,0.505l24.904,94.735c3.068,11.661,13.97,19.626,25.778,18.708l1.13-0.107
			c12.515-1.401,25.278-2.078,38.324-2.042c29.159,0.07,57.894,3.922,85.666,11.368l1.571,0.425l-0.396,1.447
			c-28.132-7.69-57.269-11.67-86.846-11.741c-12.306-0.034-24.357,0.569-36.194,1.819l-2.113,0.228l-1.008,0.095
			c-12.43,0.966-23.875-7.293-27.261-19.44l-0.103-0.381l-24.914-94.776c-3.599-17.729,8.532-34.785,26.424-37.187
			C465.799,64.394,486.962,62.979,508.218,62.95z M728.579,91.21l-0.043,18.741l9.451,0.035c0.38,0.001,0.692,0.284,0.741,0.65
			l0.007,0.102l-0.123,40.576l24.356-41.87c-10.657-6.188-21.558-11.998-32.684-17.411L728.579,91.21z"/>
		<path id="Fill-43" fill="#DCE0E0" d="M752.978,219.003v9.298l-0.106,30.816l-12.938-0.035l-0.146,67.83l25.444,0.072
			l45.989,73.075l112.955-53.469c-4.47-9.19-9.227-18.346-14.345-27.212l-2.091-3.639l36.329-20.671
			c-34.96-60.045-82.065-112.268-137.965-153.284l-53.127,73.381V219.003z"/>
		<polygon id="Fill-45" fill="#F6F6F6" points="712.287,178.384 712.395,138.416 732.795,138.487 734.059,138.487 734.131,114.572 
			723.931,114.538 724.073,74.784 734.236,74.784 734.599,4.841 660.498,4.625 659.885,178.24 		"/>
		<path id="Fill-49" fill="#1F5153" d="M503.789,137.189c-1.515,0-2.809,0.216-3.676,0.666c-0.865,0.362-1.298,0.955-1.298,1.623
			c0,0.739,0.433,1.334,1.298,1.693c0.867,0.451,2.161,0.667,3.676,0.667c1.586,0,2.811-0.216,3.676-0.63
			c0.864-0.396,1.334-0.991,1.334-1.73c0-0.704-0.47-1.298-1.334-1.659C506.6,137.406,505.375,137.189,503.789,137.189
			L503.789,137.189z M511.035,130.396c-1.66-0.288-3.1-0.774-4.362-1.442c-1.227-0.594-2.196-1.296-2.884-2.073
			c-0.577,0.777-1.515,1.515-2.809,2.073c-1.265,0.595-2.706,1.082-4.362,1.407l-1.119-1.586c0.865-0.146,1.659-0.379,2.451-0.631
			c0.72-0.253,1.441-0.524,2.056-0.847c0.684-0.289,1.19-0.667,1.62-1.027c0.434-0.414,0.723-0.811,0.864-1.298h-5.839v-1.857h14.31
			v1.857h-5.875c0.146,0.522,0.36,0.919,0.866,1.333c0.434,0.397,1.008,0.776,1.657,1.063c0.649,0.29,1.369,0.595,2.163,0.812
			c0.792,0.252,1.586,0.449,2.378,0.595L511.035,130.396z M511.214,139.514c0,0.595-0.146,1.136-0.433,1.623
			c-0.289,0.522-0.793,0.955-1.406,1.333c-0.576,0.324-1.369,0.613-2.343,0.811c-0.9,0.217-1.946,0.324-3.243,0.324
			c-1.226,0-2.306-0.107-3.242-0.324c-0.902-0.198-1.66-0.487-2.31-0.811c-0.574-0.378-1.079-0.811-1.369-1.333
			c-0.287-0.487-0.504-1.028-0.504-1.623c0-1.08,0.54-1.964,1.586-2.703c1.011-0.703,2.597-1.134,4.613-1.315v-2.072h-8.542v-1.802
			l19.537,0.035v1.767h-8.542v2.072c2.089,0.144,3.603,0.576,4.683,1.315C510.709,137.55,511.214,138.434,511.214,139.514
			L511.214,139.514z"/>
		<path id="Fill-51" fill="#1F5153" d="M535.18,128.829h-3.277v5.604h-2.236v-11.768h2.272v4.379h3.241V128.829z M529.882,139.298
			c0-0.847-0.36-1.513-1.152-1.982c-0.794-0.45-1.946-0.667-3.387-0.667c-1.515,0-2.631,0.217-3.389,0.667
			c-0.828,0.469-1.228,1.135-1.228,1.982c0,0.793,0.399,1.369,1.228,1.856c0.758,0.487,1.874,0.739,3.389,0.739
			c1.44,0,2.593-0.252,3.387-0.702C529.522,140.704,529.882,140.128,529.882,139.298L529.882,139.298z M532.263,139.263
			c0,0.665-0.146,1.224-0.398,1.783c-0.324,0.541-0.684,0.955-1.26,1.352c-0.576,0.379-1.3,0.703-2.161,0.936
			c-0.867,0.182-1.877,0.29-3.101,0.29c-1.226,0-2.272-0.108-3.173-0.29c-0.864-0.233-1.584-0.522-2.163-0.936
			c-0.574-0.36-1.007-0.811-1.224-1.352c-0.326-0.523-0.47-1.118-0.47-1.783c0-0.614,0.144-1.208,0.47-1.767
			c0.217-0.522,0.649-0.991,1.224-1.405c0.579-0.36,1.299-0.668,2.163-0.884c0.9-0.216,1.947-0.324,3.173-0.324
			c1.224,0,2.233,0.108,3.101,0.324c0.861,0.181,1.585,0.524,2.161,0.884c0.576,0.379,0.936,0.847,1.26,1.37
			C532.117,138.018,532.263,138.649,532.263,139.263L532.263,139.263z M524.623,128.234c0-0.36-0.074-0.812-0.216-1.226
			c-0.11-0.397-0.326-0.72-0.651-1.028c-0.287-0.288-0.612-0.557-1.01-0.738c-0.433-0.144-0.938-0.252-1.44-0.252
			c-0.579,0-1.082,0.108-1.479,0.252c-0.395,0.181-0.755,0.45-1.044,0.738c-0.29,0.308-0.47,0.631-0.616,1.028
			c-0.106,0.414-0.177,0.866-0.177,1.226c0,0.449,0.037,0.846,0.177,1.225c0.111,0.361,0.29,0.685,0.616,1.027
			c0.289,0.289,0.574,0.559,1.008,0.703c0.433,0.18,0.866,0.252,1.479,0.252c0.539,0,1.044-0.072,1.442-0.252
			c0.396-0.144,0.757-0.414,1.044-0.703c0.287-0.288,0.504-0.631,0.651-0.991C524.514,129.08,524.623,128.683,524.623,128.234
			L524.623,128.234z M521.306,123.188c0.864,0,1.621,0.143,2.308,0.36c0.684,0.289,1.296,0.667,1.729,1.135
			c0.54,0.45,0.899,1.009,1.152,1.641c0.288,0.576,0.36,1.242,0.36,1.91c0,0.703-0.072,1.334-0.36,1.91
			c-0.253,0.631-0.577,1.153-1.082,1.604c-0.431,0.468-1.044,0.847-1.728,1.099c-0.723,0.288-1.516,0.414-2.416,0.414
			s-1.657-0.126-2.344-0.414c-0.683-0.252-1.296-0.631-1.728-1.099c-0.507-0.451-0.867-0.973-1.153-1.604
			c-0.218-0.576-0.361-1.207-0.361-1.91c0-0.668,0.144-1.334,0.433-1.91c0.252-0.632,0.611-1.191,1.082-1.641
			c0.503-0.468,1.08-0.846,1.802-1.135C519.648,123.331,520.442,123.188,521.306,123.188L521.306,123.188z"/>
		<path id="Fill-53" fill="#1F5153" d="M550.932,128.756c0-0.217-0.074-0.414-0.29-0.595c-0.216-0.18-0.504-0.287-0.937-0.396
			c-0.359-0.108-0.791-0.199-1.296-0.235c-0.505-0.072-1.117-0.072-1.73-0.072c-0.577,0-1.152,0-1.659,0.072
			c-0.504,0.036-0.974,0.127-1.37,0.235c-0.357,0.109-0.647,0.216-0.899,0.396c-0.217,0.181-0.324,0.378-0.324,0.595
			c0,0.252,0.071,0.45,0.288,0.631c0.215,0.144,0.504,0.288,0.936,0.396c0.362,0.109,0.796,0.18,1.3,0.271
			c0.577,0.036,1.152,0.071,1.729,0.071c0.613,0,1.152-0.035,1.693-0.107c0.505-0.055,0.974-0.163,1.333-0.271
			c0.398-0.109,0.687-0.216,0.902-0.396C550.858,129.206,550.932,128.972,550.932,128.756L550.932,128.756z M554.463,143.37h-14.921
			v-4.757h12.002v-1.369h-12.002v-1.73h14.346v4.757h-11.966v1.405h12.541V143.37z M547.905,123.656h6.595v1.785h-15.461v-1.785
			h6.522v-1.73h2.344V123.656z M553.239,128.756c-0.036,0.487-0.146,0.847-0.434,1.207c-0.287,0.343-0.646,0.631-1.118,0.901
			c-0.467,0.181-1.045,0.36-1.691,0.505c-0.649,0.144-1.334,0.234-2.091,0.306v0.991l8.576,0.037v1.765l-19.533-0.036v-1.766h8.613
			v-0.991c-0.759-0.072-1.515-0.162-2.197-0.306c-0.688-0.145-1.224-0.324-1.731-0.505c-0.467-0.271-0.829-0.558-1.082-0.901
			c-0.287-0.36-0.432-0.72-0.358-1.207c0-0.522,0.142-0.882,0.469-1.261c0.29-0.361,0.72-0.668,1.334-0.884
			c0.576-0.215,1.298-0.396,2.052-0.504c0.756-0.127,1.659-0.198,2.633-0.198c0.938,0,1.767,0.071,2.593,0.198
			c0.76,0.108,1.443,0.289,2.019,0.504c0.614,0.216,1.083,0.523,1.444,0.884C553.059,127.874,553.239,128.234,553.239,128.756
			L553.239,128.756z"/>
		<path id="Fill-55" fill="#1F5153" d="M502.887,152.328c-0.539-0.379-1.187-0.524-1.837-0.524c-0.503,0-0.973,0.072-1.369,0.253
			c-0.433,0.198-0.794,0.415-1.118,0.739c-0.287,0.306-0.504,0.666-0.685,1.117c-0.144,0.433-0.287,0.883-0.287,1.352
			c0,0.522,0.144,0.973,0.323,1.405c0.145,0.45,0.361,0.865,0.686,1.118c0.361,0.325,0.648,0.54,1.081,0.739
			c0.396,0.179,0.866,0.252,1.332,0.252c0.325,0,0.65-0.036,1.046-0.108c0.361-0.109,0.648-0.217,0.865-0.343l0.072,1.225
			c-0.289,0.145-0.648,0.216-0.938,0.254c-0.396,0.035-0.721,0.07-1.078,0.07c-0.725,0-1.336-0.108-1.948-0.324
			c-0.541-0.216-1.044-0.522-1.441-0.918c-0.433-0.415-0.757-0.92-0.973-1.478c-0.217-0.595-0.324-1.171-0.324-1.928
			c0-0.613,0.107-1.28,0.358-1.838c0.182-0.559,0.506-1.028,0.938-1.479c0.468-0.36,0.938-0.666,1.513-0.882
			c0.612-0.217,1.227-0.325,1.909-0.325c0.758,0,1.407,0.108,1.983,0.36L502.887,152.328z"/>
		<path id="Fill-57" fill="#1F5153" d="M504.943,157.372c0.073,0.289,0.145,0.56,0.36,0.776c0.181,0.216,0.396,0.395,0.649,0.558
			c0.288,0.145,0.576,0.216,0.899,0.216c0.325,0,0.613-0.071,0.904-0.216c0.216-0.163,0.431-0.342,0.61-0.558
			c0.181-0.216,0.325-0.487,0.396-0.776c0.074-0.306,0.109-0.594,0.109-0.847c0-0.341-0.073-0.666-0.144-0.955
			c-0.074-0.306-0.216-0.523-0.398-0.739c-0.218-0.27-0.358-0.45-0.648-0.594c-0.252-0.108-0.542-0.18-0.83-0.18
			c-0.323,0-0.611,0.072-0.865,0.18c-0.25,0.144-0.432,0.324-0.61,0.594c-0.218,0.216-0.36,0.433-0.434,0.739
			c-0.071,0.289-0.143,0.614-0.143,0.955C504.8,156.778,504.871,157.066,504.943,157.372 M503.79,155.12
			c0.143-0.397,0.36-0.774,0.648-1.063c0.287-0.343,0.648-0.523,1.081-0.703c0.396-0.18,0.866-0.271,1.332-0.271
			c0.471,0,0.904,0.091,1.335,0.271c0.396,0.18,0.759,0.36,1.079,0.703c0.291,0.289,0.507,0.666,0.65,1.063
			c0.145,0.396,0.253,0.883,0.253,1.405c0,0.397-0.108,0.847-0.253,1.298c-0.217,0.396-0.359,0.757-0.721,1.063
			c-0.287,0.325-0.612,0.595-1.009,0.775c-0.431,0.145-0.864,0.216-1.335,0.216c-0.466,0-0.936-0.071-1.332-0.216
			c-0.433-0.18-0.72-0.45-1.081-0.775c-0.288-0.343-0.506-0.703-0.648-1.063c-0.218-0.451-0.289-0.901-0.289-1.298
			C503.501,156.003,503.573,155.516,503.79,155.12"/>
		<path id="Fill-59" fill="#1F5153" d="M511.285,153.229h1.155v1.026h0.072c0.143-0.324,0.432-0.612,0.829-0.847
			c0.359-0.216,0.826-0.324,1.26-0.324c0.83,0.036,1.443,0.253,1.839,0.776c0.396,0.432,0.613,1.134,0.613,2.018v3.874h-1.227V156.4
			c0-0.811-0.072-1.369-0.289-1.731c-0.217-0.377-0.541-0.593-1.081-0.63c-0.648,0-1.115,0.253-1.442,0.739
			c-0.359,0.487-0.502,1.1-0.502,1.964v3.01h-1.228V153.229z"/>
		<path id="Fill-61" fill="#1F5153" d="M522.783,154.346c-0.47-0.181-0.902-0.308-1.298-0.308c-0.326,0-0.612,0.074-0.899,0.236
			c-0.217,0.143-0.471,0.324-0.649,0.54c-0.178,0.234-0.289,0.487-0.396,0.775c-0.107,0.305-0.183,0.595-0.183,0.936
			c0,0.289,0.075,0.578,0.183,0.884c0.071,0.288,0.181,0.559,0.359,0.774c0.182,0.217,0.397,0.398,0.687,0.541
			c0.287,0.163,0.611,0.235,0.97,0.235c0.253,0,0.471-0.036,0.687-0.108c0.217-0.072,0.435-0.162,0.577-0.307l0.108,1.117
			c-0.215,0.073-0.433,0.145-0.758,0.181c-0.216,0.035-0.506,0.035-0.757,0.035c-0.47,0-0.901-0.071-1.332-0.216
			c-0.36-0.179-0.724-0.414-1.081-0.738c-0.29-0.342-0.508-0.703-0.65-1.118c-0.183-0.396-0.215-0.847-0.215-1.28
			c0-0.522,0.032-0.972,0.215-1.405c0.143-0.378,0.36-0.739,0.65-1.082c0.287-0.287,0.683-0.504,1.081-0.684
			c0.431-0.162,0.862-0.234,1.332-0.234c0.251,0,0.541,0,0.757,0.072c0.325,0.037,0.543,0.126,0.684,0.199L522.783,154.346z"/>
		<path id="Fill-63" fill="#1F5153" d="M524.839,157.372c0.07,0.289,0.144,0.595,0.357,0.776c0.18,0.251,0.396,0.432,0.649,0.595
			c0.289,0.143,0.577,0.215,0.865,0.215c0.361,0,0.65-0.072,0.938-0.215c0.216-0.163,0.432-0.344,0.576-0.595
			c0.218-0.181,0.359-0.487,0.433-0.776c0.072-0.306,0.107-0.594,0.107-0.847c0-0.341-0.073-0.631-0.144-0.918
			c-0.071-0.306-0.217-0.523-0.396-0.776c-0.217-0.233-0.36-0.414-0.649-0.558c-0.251-0.144-0.54-0.216-0.865-0.216
			c-0.288,0-0.576,0.072-0.828,0.216c-0.253,0.144-0.434,0.325-0.614,0.558c-0.213,0.253-0.359,0.47-0.43,0.776
			c-0.074,0.287-0.146,0.577-0.146,0.918C524.694,156.778,524.765,157.066,524.839,157.372 M523.686,155.12
			c0.143-0.36,0.357-0.739,0.646-1.063c0.292-0.307,0.651-0.523,1.082-0.703c0.396-0.145,0.865-0.234,1.298-0.234
			c0.504,0,0.938,0.089,1.37,0.234c0.395,0.18,0.757,0.396,1.081,0.703c0.289,0.324,0.504,0.703,0.65,1.063
			c0.143,0.45,0.25,0.883,0.25,1.405c0,0.433-0.107,0.884-0.25,1.298c-0.218,0.396-0.361,0.757-0.725,1.099
			c-0.286,0.325-0.612,0.559-1.007,0.739c-0.432,0.145-0.866,0.216-1.37,0.216c-0.433,0-0.901-0.071-1.298-0.216
			c-0.431-0.18-0.72-0.414-1.082-0.739c-0.288-0.342-0.503-0.703-0.646-1.099c-0.217-0.414-0.289-0.865-0.289-1.298
			C523.397,156.003,523.469,155.57,523.686,155.12"/>
		<path id="Fill-65" fill="#1F5153" d="M536.947,159.788h-1.188v-1.028c-0.183,0.325-0.468,0.613-0.902,0.847
			c-0.359,0.217-0.792,0.289-1.224,0.289c-0.794,0-1.444-0.216-1.875-0.739c-0.36-0.451-0.577-1.153-0.577-2.036v-3.875h1.189v3.371
			c0,0.81,0.108,1.351,0.323,1.729c0.217,0.36,0.578,0.595,1.081,0.63c0.65,0,1.156-0.27,1.479-0.738
			c0.322-0.487,0.467-1.117,0.467-1.964v-3.028h1.226V159.788z"/>
		<path id="Fill-67" fill="#1F5153" d="M538.534,153.264h1.079v0.99h0.074c0.143-0.287,0.396-0.594,0.684-0.81
			c0.325-0.216,0.611-0.325,1.01-0.325c0.143,0,0.252,0,0.358,0.037c0.109,0,0.254,0.035,0.4,0.072v1.026
			c-0.184-0.07-0.4-0.108-0.65-0.108c-0.507,0-0.938,0.254-1.298,0.739c-0.289,0.487-0.47,1.1-0.47,1.964v2.938h-1.188V153.264z"/>
		<path id="Fill-69" fill="#1F5153" d="M542.571,158.489c0.215,0.145,0.505,0.289,0.792,0.361c0.217,0.072,0.504,0.108,0.685,0.108
			c0.324,0,0.613-0.072,0.83-0.216c0.289-0.18,0.396-0.415,0.396-0.738c0-0.217-0.106-0.397-0.324-0.559
			c-0.146-0.145-0.433-0.325-0.829-0.504c-0.29-0.163-0.54-0.271-0.687-0.379c-0.14-0.073-0.286-0.181-0.43-0.325
			c-0.181-0.108-0.327-0.27-0.397-0.486c-0.073-0.181-0.142-0.398-0.142-0.631c0-0.613,0.212-1.136,0.683-1.515
			c0.361-0.323,0.936-0.504,1.585-0.504c0.288,0,0.541,0.036,0.758,0.073c0.216,0.035,0.471,0.108,0.756,0.18l-0.069,1.063
			c-0.184-0.072-0.363-0.144-0.615-0.217c-0.288-0.071-0.541-0.107-0.684-0.107c-0.29,0-0.615,0.072-0.795,0.215
			c-0.216,0.109-0.324,0.344-0.324,0.559c0,0.253,0.071,0.486,0.289,0.632c0.145,0.143,0.469,0.324,0.83,0.522
			c0.289,0.108,0.542,0.18,0.684,0.289c0.145,0.071,0.323,0.215,0.469,0.36c0.146,0.144,0.289,0.306,0.362,0.523
			c0.143,0.216,0.143,0.449,0.143,0.702c0,0.667-0.216,1.189-0.65,1.478c-0.433,0.36-1.007,0.541-1.622,0.541
			c-0.324,0-0.683-0.037-0.899-0.072c-0.287-0.073-0.612-0.145-0.865-0.29L542.571,158.489z"/>
		<path id="Fill-71" fill="#1F5153" d="M551.761,155.894c0-0.522-0.146-0.918-0.471-1.296c-0.286-0.325-0.648-0.523-1.152-0.523
			c-0.251,0-0.504,0.036-0.72,0.162c-0.217,0.109-0.396,0.253-0.541,0.432c-0.145,0.199-0.253,0.378-0.324,0.559
			c-0.07,0.217-0.107,0.433-0.145,0.666H551.761z M552.518,159.517c0,0.036-0.072,0.036-0.145,0.072
			c-0.325,0.109-0.579,0.18-0.865,0.217c-0.288,0.071-0.576,0.108-1.047,0.108c-1.115,0-1.946-0.289-2.486-0.919
			c-0.576-0.631-0.829-1.477-0.829-2.579c0-0.484,0.037-0.936,0.183-1.296c0.143-0.414,0.359-0.774,0.646-1.082
			c0.217-0.288,0.578-0.504,0.939-0.647c0.432-0.2,0.791-0.271,1.261-0.271c0.54,0,0.973,0.108,1.333,0.307
			c0.361,0.178,0.649,0.395,0.938,0.719c0.143,0.344,0.359,0.758,0.432,1.155c0.108,0.45,0.182,0.955,0.182,1.477h-4.65
			c0,0.325,0.037,0.631,0.181,0.883c0.109,0.306,0.252,0.522,0.433,0.666c0.25,0.216,0.468,0.362,0.684,0.486
			c0.29,0.109,0.54,0.145,0.829,0.145c0.181,0,0.397,0,0.613-0.072c0.143-0.035,0.396-0.073,0.577-0.162
			c0.181-0.072,0.323-0.143,0.503-0.216c0.146-0.072,0.218-0.144,0.29-0.217V159.517z"/>
		<path id="Combined-Shape_1_" fill="#030100" d="M719.407,60.276v4.397h-9.229v1.694h9.663v1.405h-11.535v-4.54h9.225v-1.515
			l-9.225-0.036v-1.405H719.407z M702.142,50.977v16.687h-1.836l0.034-10.254h-3.638v-1.478h3.638v-4.955H702.142z M679.257,60.87
			v2.848h6.991v1.478h-15.856v-1.515l6.991,0.037V60.87H679.257z M694.177,51.716v4.649c0,0.703,0.109,1.298,0.361,1.892
			c0.253,0.613,0.576,1.136,1.009,1.622c0.431,0.504,0.938,0.92,1.442,1.28c0.505,0.414,1.083,0.739,1.587,1.008l-0.903,1.443
			c-0.322-0.235-0.755-0.487-1.116-0.74c-0.469-0.306-0.828-0.594-1.298-0.936c-0.361-0.326-0.757-0.74-1.082-1.135
			c-0.358-0.416-0.645-0.847-0.935-1.406c-0.252,0.521-0.506,0.955-0.867,1.369c-0.359,0.432-0.721,0.846-1.083,1.207
			c-0.428,0.379-0.863,0.703-1.294,1.046c-0.433,0.324-0.866,0.63-1.335,0.882l-1.19-1.26c0.649-0.361,1.228-0.739,1.804-1.172
			c0.576-0.452,1.152-0.883,1.513-1.442c0.469-0.523,0.83-1.063,1.082-1.73c0.288-0.63,0.433-1.261,0.433-1.999v-4.578H694.177z
			 M684.159,52.022V53.5h-9.731v4.83h9.947v1.515l-11.786-0.037v-7.785H684.159z M711.694,51.319v1.802
			c0,0.631,0.182,1.172,0.432,1.622c0.254,0.487,0.649,0.919,1.011,1.298c0.432,0.36,0.864,0.649,1.37,0.955
			c0.542,0.252,1.045,0.522,1.585,0.667l-0.827,1.441c-0.399-0.161-0.832-0.342-1.229-0.558c-0.394-0.217-0.828-0.487-1.261-0.775
			c-0.396-0.216-0.757-0.523-1.081-0.883c-0.358-0.342-0.647-0.667-0.866-0.991c-0.215,0.36-0.504,0.72-0.864,1.099
			c-0.288,0.324-0.647,0.667-1.044,0.919c-0.397,0.289-0.757,0.595-1.226,0.847c-0.434,0.235-0.828,0.45-1.261,0.631l-1.01-1.154
			c0.541-0.252,1.081-0.54,1.585-0.847c0.541-0.324,1.011-0.702,1.442-1.135c0.396-0.36,0.722-0.847,1.009-1.37
			c0.289-0.468,0.36-1.098,0.36-1.766v-1.802H711.694z M719.48,50.977v8.307h-1.876v-8.307H719.48z"/>
		<path id="Library" fill="#030100" d="M684.716,81v-0.882h-2.8v-5.742h-1.044V81H684.716z M686.309,75.123
			c0.378,0,0.666-0.252,0.666-0.612c0-0.369-0.288-0.612-0.666-0.612s-0.657,0.243-0.657,0.612
			C685.652,74.871,685.931,75.123,686.309,75.123z M686.822,81v-4.95h-1.025V81H686.822z M690.683,81.117
			c1.116,0,2.133-0.972,2.133-2.673c0-1.521-0.711-2.52-1.962-2.52c-0.522,0-1.053,0.279-1.476,0.648l0.026-0.846v-1.899h-1.025V81
			h0.81l0.099-0.513h0.027C689.738,80.892,690.233,81.117,690.683,81.117z M690.485,80.262c-0.306,0-0.702-0.117-1.08-0.45v-2.421
			c0.414-0.405,0.792-0.603,1.18-0.603c0.827,0,1.16,0.639,1.16,1.674C691.744,79.623,691.204,80.262,690.485,80.262z M695.066,81
			v-3.087c0.315-0.783,0.801-1.062,1.206-1.062c0.198,0,0.324,0.027,0.495,0.081l0.188-0.9c-0.152-0.072-0.314-0.108-0.558-0.108
			c-0.531,0-1.053,0.378-1.404,1.017h-0.026l-0.081-0.891h-0.847V81H695.066z M698.891,81.117c0.594,0,1.125-0.297,1.575-0.684
			h0.026l0.09,0.567h0.847v-2.979c0-1.314-0.567-2.097-1.8-2.097c-0.792,0-1.485,0.324-1.998,0.648l0.387,0.702
			c0.423-0.27,0.909-0.504,1.431-0.504c0.729,0,0.937,0.504,0.945,1.08c-2.062,0.225-2.961,0.774-2.961,1.836
			C697.433,80.559,698.035,81.117,698.891,81.117z M699.205,80.298c-0.44,0-0.773-0.198-0.773-0.684
			c0-0.558,0.495-0.927,1.962-1.107v1.215C699.989,80.091,699.638,80.298,699.205,80.298z M703.922,81v-3.087
			c0.314-0.783,0.801-1.062,1.206-1.062c0.197,0,0.323,0.027,0.494,0.081l0.189-0.9c-0.153-0.072-0.315-0.108-0.558-0.108
			c-0.531,0-1.054,0.378-1.404,1.017h-0.027l-0.081-0.891h-0.846V81H703.922z M706.802,83.07c1.044,0,1.565-0.711,1.953-1.773
			l1.817-5.247h-1.008l-0.792,2.547l-0.387,1.395h-0.045c-0.153-0.459-0.307-0.954-0.45-1.395l-0.918-2.547h-1.063l1.962,4.914
			l-0.099,0.342c-0.18,0.531-0.495,0.927-1.035,0.927c-0.126,0-0.27-0.045-0.359-0.072l-0.198,0.81
			C706.352,83.034,706.55,83.07,706.802,83.07z"/>
		<path id="Fill-86" fill="#EDF2F2" d="M409.848,185.846L377.337,62.098l-0.107-0.306l-0.342,0.09
			c-21.139,5.748-42.151,12.939-62.406,21.462c-60.008,25.138-113.961,61.306-160.329,107.403
			c-46.385,46.097-82.841,99.799-108.375,159.663c-12.22,28.634-21.787,58.46-28.475,88.86c-6.703,30.635-10.542,61.938-11.46,93.31
			c-0.974,32.654,1.171,65.397,6.486,97.655c2.433,15.011,5.605,30.006,9.444,44.726l119.404-32.147
			c-4.506-17.464-7.804-35.357-9.749-53.288l-7.604,0.847l-0.775-7.638c-0.739-7.604-1.099-16.456-1.099-16.456l-0.272-7.641
			l7.643-0.196c-0.109-2.686-0.109-5.354-0.145-8.003l-89.617-0.342c0,0-1.874-59.666,17.14-128.017l1.024-3.695l106.485,29.608
			l-2.072,7.44l-99.022-27.517l-0.074,0.326c-9.892,36.938-15.135,75.289-15.568,113.889v0.36l124.848,0.377h0.342v-0.324
			c0.919-58.619,17.12-116.068,46.853-166.241c28.87-48.6,69.867-89.561,118.558-118.321l0.289-0.181l-65.253-114.251l3.334-1.964
			c12.471-7.227,26.274-14.615,28.563-15.84l3.604,6.883c-2.019,1.064-13.84,7.371-24.689,13.57l-0.252,0.181l47.017,82.335
			c0,0,21.372-12.866,61.415-26.31c3.767-1.297,7.424-2.468,10.397-3.388C408.118,197.361,411.362,191.522,409.848,185.846"/>
		<path id="Fill-87" fill="#1F5153" d="M761.147,142.227h1.095v-1.751h-1.095V142.227z M762.724,143.125h-2.058
			c-0.266,0-0.395-0.175-0.395-0.438v-2.651c0-0.218,0.175-0.394,0.395-0.394h2.058c0.177,0,0.353,0.176,0.353,0.394v2.651
			C763.076,142.95,762.901,143.125,762.724,143.125L762.724,143.125z"/>
		<path id="Fill-88" fill="#1F5153" d="M765.615,153.16h-0.965v-7.405c0-0.548-0.347-0.943-0.874-0.943h-4.206
			c-0.525,0-0.876,0.395-0.876,0.899v7.449h-0.965v-7.449c0-0.985,0.789-1.841,1.841-1.841h4.206
			c1.053,0.044,1.839,0.856,1.839,1.885V153.16z"/>
		<polygon id="Fill-89" fill="#1F5153" points="759.965,162.975 760.883,162.975 760.883,153.138 759.965,153.138 		"/>
		<polygon id="Fill-90" fill="#1F5153" points="762.42,162.975 763.341,162.975 763.341,153.138 762.42,153.138 		"/>
		<path id="Fill-91" fill="#1F5153" d="M770.698,153.334l-0.921-0.328l1.67-5.192v-2.563c0-0.723,0.611-1.337,1.356-1.337h2.276
			c0.747,0,1.404,0.614,1.404,1.38v2.52l1.665,5.192l-0.921,0.328l-1.709-5.433v-2.65c0-0.219-0.175-0.351-0.439-0.351h-2.276
			c-0.178,0-0.351,0.132-0.351,0.351l-0.087,2.782L770.698,153.334z"/>
		<path id="Fill-92" fill="#1F5153" d="M773.371,142.227h1.098v-1.751h-1.098V142.227z M774.991,143.125h-2.014
			c-0.262,0-0.439-0.175-0.439-0.438v-2.651c0-0.218,0.178-0.394,0.439-0.394h2.014c0.221,0,0.396,0.176,0.396,0.394v2.651
			C775.387,142.95,775.212,143.125,774.991,143.125L774.991,143.125z"/>
		<polygon id="Fill-93" fill="#1F5153" points="772.277,162.975 773.197,162.975 773.197,153.138 772.277,153.138 		"/>
		<polygon id="Fill-94" fill="#1F5153" points="774.729,162.975 775.651,162.975 775.651,153.138 774.729,153.138 		"/>
		<path id="Combined-Shape_2_" fill="#305153" d="M658.464,308.934v12.218h-1.5v-12.218H658.464z M654.273,308.549l1.477,0.265
			l-2.162,12.038l-1.477-0.265L654.273,308.549z M661.191,308.551l2.129,12.038l-1.477,0.261l-2.129-12.038L661.191,308.551z
			 M663.791,307.723l4.18,11.516l-1.41,0.512l-4.18-11.516L663.791,307.723z M651.641,307.687l1.409,0.512l-4.183,11.516
			l-1.41-0.512L651.641,307.687z M666.187,306.433l6.125,10.633l-1.3,0.749l-6.125-10.633L666.187,306.433z M649.243,306.432
			l1.299,0.751l-6.127,10.596l-1.299-0.75L649.243,306.432z M668.417,304.776l7.857,9.372l-1.149,0.964l-7.857-9.372
			L668.417,304.776z M670.237,302.72l9.369,7.911l-0.968,1.146l-9.369-7.911L670.237,302.72z M671.676,300.428l10.597,6.127
			l-0.751,1.298l-10.596-6.127L671.676,300.428z M643.003,300.06l0.749,1.3l-10.635,6.126l-0.748-1.3L643.003,300.06z
			 M672.712,297.886l11.534,4.217l-0.516,1.409l-11.533-4.217L672.712,297.886z M641.932,297.518l0.513,1.41l-11.496,4.18
			l-0.513-1.41L641.932,297.518z M673.309,295.203l12.073,2.145l-0.263,1.477l-12.073-2.145L673.309,295.203z M641.335,294.835
			l0.264,1.477l-12.036,2.144l-0.264-1.477L641.335,294.835z M673.43,292.47l12.254,0.037l-0.004,1.5l-12.254-0.037L673.43,292.47z
			 M641.25,292.102v1.5h-12.252v-1.5H641.25z M629.562,287.284l12.107,2.146l-0.262,1.477l-12.107-2.146L629.562,287.284z
			 M630.982,282.596l11.498,4.163l-0.511,1.41l-11.498-4.163L630.982,282.596z M633.156,278.255l10.597,6.127l-0.751,1.298
			l-10.597-6.127L633.156,278.255z M636.039,274.329l9.37,7.895l-0.967,1.147l-9.37-7.895L636.039,274.329z M639.591,270.998
			l7.856,9.371l-1.149,0.964l-7.856-9.371L639.591,270.998z M643.668,268.293l6.125,10.596l-1.299,0.751l-6.125-10.596
			L643.668,268.293z M648.156,266.36l4.145,11.516l-1.411,0.508l-4.145-11.516L648.156,266.36z M652.873,265.225l2.092,12.055
			l-1.478,0.257l-2.092-12.055L652.873,265.225z M657.715,264.956v12.218h-1.5v-12.218H657.715z"/>
		<path id="Fill-121" fill="#1F5153" d="M650.839,300.312h-0.722v-2.991c0-0.559,0.434-0.954,0.973-0.954h2.633v-2.633
			c0-0.504,0.433-0.99,0.936-0.99h2.63v-2.577c0-0.559,0.471-1.009,1.011-1.009h2.559v-2.613c0-0.559,0.505-0.956,1.01-0.956h2.917
			v0.703h-2.917c-0.146,0-0.253,0.144-0.253,0.253v3.351h-3.315c-0.145,0-0.253,0.109-0.253,0.271v3.315h-3.388
			c-0.072,0-0.215,0.109-0.215,0.252v3.371h-3.354c-0.144,0-0.251,0.108-0.251,0.216V300.312z"/>
		<path id="Fill-122" fill="#1F5153" d="M720.252,182.673h-0.758v-2.956c0-0.557,0.47-0.99,0.976-0.99h2.595v-2.632
			c0-0.504,0.433-0.955,1.008-0.955h2.597v-2.612c0-0.56,0.467-1.009,1.008-1.009h2.597v-2.578c0-0.558,0.433-0.991,1.008-0.991
			h2.884v0.739h-2.884c-0.143,0-0.289,0.109-0.289,0.252v3.352h-3.315c-0.143,0-0.251,0.127-0.251,0.235v3.315h-3.354
			c-0.107,0-0.216,0.108-0.216,0.252v3.37h-3.387c-0.143,0-0.218,0.109-0.218,0.252V182.673z"/>
		<path id="Fill-123" fill="#1F5153" d="M186.957,600.563h1.115v-1.8h-1.115V600.563z M188.51,601.371h-2.014
			c-0.22,0-0.395-0.132-0.395-0.412v-2.655c0-0.218,0.175-0.437,0.395-0.437h2.014c0.243,0,0.46,0.219,0.46,0.437v2.655
			C188.97,601.239,188.753,601.371,188.51,601.371L188.51,601.371z"/>
		<path id="Fill-124" fill="#1F5153" d="M191.447,611.43h-0.942v-7.404c0-0.505-0.394-0.9-0.896-0.9H185.4
			c-0.503,0-0.854,0.396-0.854,0.9l-0.043,7.404h-0.943v-7.404c0-0.988,0.788-1.843,1.84-1.843h4.208
			c1.027,0,1.839,0.854,1.839,1.843V611.43z"/>
		<polygon id="Fill-125" fill="#1F5153" points="185.816,621.244 186.758,621.244 186.758,611.409 185.816,611.409 		"/>
		<polygon id="Fill-126" fill="#1F5153" points="188.248,621.244 189.19,621.244 189.19,611.409 188.248,611.409 		"/>
		<path id="Fill-127" fill="#1F5153" d="M196.531,611.604l-0.941-0.329l1.709-5.148v-2.563c0-0.769,0.634-1.382,1.38-1.382h2.257
			c0.766,0,1.379,0.613,1.379,1.382v2.563l1.665,5.148l-0.896,0.329l-1.753-5.434v-2.606c0-0.263-0.177-0.394-0.396-0.394h-2.257
			c-0.263,0-0.438,0.131-0.438,0.394v2.78L196.531,611.604z"/>
		<path id="Fill-128" fill="#1F5153" d="M199.248,600.563h1.118v-1.8h-1.118V600.563z M200.803,601.418h-2.015
			c-0.22,0-0.396-0.179-0.396-0.418v-2.696c0-0.218,0.177-0.437,0.396-0.437h2.015c0.241,0,0.46,0.219,0.46,0.437V601
			C201.263,601.239,201.044,601.418,200.803,601.418L200.803,601.418z"/>
		<polygon id="Fill-129" fill="#1F5153" points="198.13,621.244 199.073,621.244 199.073,611.45 198.13,611.45 		"/>
		<polygon id="Fill-130" fill="#1F5153" points="200.541,621.244 201.481,621.244 201.481,611.45 200.541,611.45 		"/>
		<path id="Fill-131" fill="#1F5153" d="M240.975,389.295l-6.371,9.553l-4.194-2.798l1.394-2.091l2.642,1.761l4.976-7.461
			L240.975,389.295z M236.414,384.668l-8.158,12.23l-1.566-1.046l5.378-8.062c-0.256-0.221-0.532-0.463-0.83-0.725
			c-0.298-0.261-0.597-0.517-0.896-0.767c-0.299-0.249-0.591-0.488-0.873-0.714c-0.282-0.229-0.536-0.422-0.756-0.58l-4.576,6.859
			l-1.567-1.045l6.006-9.004c0.234,0.157,0.55,0.396,0.947,0.717c0.396,0.321,0.822,0.672,1.279,1.053
			c0.458,0.381,0.918,0.767,1.381,1.156c0.464,0.392,0.869,0.74,1.219,1.049l1.446-2.17L236.414,384.668z"/>
		<path id="Fill-132" fill="#1F5153" d="M249.901,375.916l-5.996,8.99l-3.764-2.512l1.386-2.078l2.208,1.475l4.611-6.912
			L249.901,375.916z M239.179,377.354c-0.331-0.22-0.68-0.252-1.049-0.098c-0.368,0.156-0.69,0.441-0.968,0.857
			c-0.278,0.416-0.413,0.818-0.407,1.205c0.007,0.387,0.175,0.69,0.507,0.911c0.331,0.222,0.669,0.259,1.018,0.114
			c0.349-0.143,0.663-0.428,0.946-0.854c0.279-0.414,0.423-0.82,0.434-1.215C239.67,377.883,239.511,377.576,239.179,377.354
			L239.179,377.354z M240.725,380.472c-0.344,0.515-0.717,0.94-1.117,1.278c-0.401,0.338-0.812,0.582-1.231,0.729
			c-0.42,0.149-0.838,0.205-1.254,0.166c-0.415-0.036-0.808-0.177-1.172-0.421c-0.393-0.263-0.69-0.58-0.894-0.956
			c-0.203-0.374-0.313-0.784-0.33-1.231c-0.015-0.446,0.057-0.918,0.219-1.416c0.161-0.498,0.408-0.994,0.74-1.492
			c0.326-0.488,0.687-0.904,1.078-1.248c0.394-0.342,0.799-0.6,1.219-0.766c0.421-0.168,0.848-0.232,1.281-0.195
			c0.437,0.037,0.854,0.189,1.254,0.457c0.374,0.25,0.657,0.562,0.849,0.935c0.191,0.375,0.295,0.787,0.308,1.237
			c0.014,0.451-0.057,0.926-0.215,1.427C241.301,379.476,241.057,379.975,240.725,380.472L240.725,380.472z M237.669,373.08
			l0.94-1.41l-2.689-1.797l1.359-2.039l9.434,6.295l-1.361,2.037l-1.985-1.324l-1.037,1.555l-1.58-1.055l1.037-1.555l-1.595-1.063
			l-1.036,1.555l-1.466-0.977l-5.012,7.514l-1.528-1.021l1.971-2.952l-1.372-0.916l1.342-2.012l1.373,0.916l1.794-2.693
			L237.669,373.08z"/>
		<path id="Fill-133" fill="#1F5153" d="M258.921,362.957l-1.29,1.935l-6.794-4.532l-0.802,1.202l6.364,4.245l-1.264,1.895
			l-12.218-8.15l1.265-1.895l4.102,2.737l0.802-1.202l-4.181-2.789l1.29-1.934L258.921,362.957z M251.828,366.346
			c-0.409,0.936-0.887,1.836-1.436,2.705c-0.547,0.867-1.147,1.789-1.797,2.764l-8.769-5.848l3.198-4.795l1.555,1.037l-1.874,2.809
			l5.594,3.73c0.186-0.278,0.357-0.541,0.517-0.787c0.158-0.247,0.313-0.504,0.468-0.773c0.155-0.269,0.315-0.552,0.483-0.85
			c0.166-0.297,0.344-0.635,0.532-1.012L251.828,366.346z"/>
		<path id="Fill-134" fill="#9C9B9B" d="M125.639,300.634c2.586,1.407,3.544,4.646,2.138,7.233c-1.408,2.589-4.65,3.547-7.239,2.135
			c-2.585-1.407-3.539-4.648-2.132-7.234C119.81,300.18,123.052,299.226,125.639,300.634"/>
		<path id="Fill-135" fill="#9C9B9B" d="M155.797,317.043c2.59,1.408,3.548,4.648,2.137,7.234c-1.406,2.588-4.646,3.546-7.235,2.135
			c-2.587-1.407-3.542-4.647-2.134-7.233C149.971,316.591,153.209,315.637,155.797,317.043"/>
		<path id="Fill-136" fill="#9C9B9B" d="M185.958,333.455c2.585,1.407,3.547,4.647,2.134,7.234
			c-1.405,2.587-4.646,3.548-7.233,2.134c-2.587-1.406-3.542-4.647-2.135-7.232C180.129,333.003,183.369,332.048,185.958,333.455"/>
		<path id="Fill-137" fill="#9C9B9B" d="M214.164,198.504c2.057,2.109,2.018,5.485-0.088,7.542c-2.108,2.06-5.484,2.021-7.547-0.085
			c-2.056-2.107-2.017-5.485,0.092-7.543C208.727,196.357,212.103,196.396,214.164,198.504"/>
		<path id="Fill-138" fill="#9C9B9B" d="M238.158,223.061c2.063,2.108,2.021,5.483-0.088,7.542
			c-2.105,2.062-5.482,2.019-7.542-0.086c-2.059-2.108-2.019-5.485,0.087-7.543C232.723,220.915,236.099,220.953,238.158,223.061"/>
		<path id="Fill-139" fill="#9C9B9B" d="M262.156,247.618c2.06,2.107,2.021,5.485-0.088,7.542c-2.105,2.06-5.482,2.02-7.545-0.085
			c-2.058-2.108-2.016-5.485,0.09-7.543C256.72,245.473,260.096,245.51,262.156,247.618"/>
		<path id="Combined-Shape_3_" fill="#030100" d="M166,272v17h-1.977v-7.967H161v-1.507h3.023v-2.441H161l0.037-1.505h3.024V272H166
			z M141.579,279v5.499H150V286h-16v-1.501h5.716V279H141.579z M159.383,273v6.566h-5.405v3.876h2.384
			c0.677-0.037,1.317-0.075,1.917-0.111c0.543,0,1.143-0.075,1.745-0.111c0.542-0.037,1.22-0.13,1.977-0.167v1.485
			c-1.783,0.203-3.488,0.352-5.156,0.388C155.18,285,153.55,285,152,285v-6.955h5.405l0.04-3.542h-5.406V273H159.383z M148,273
			c0,0.904-0.037,1.771-0.168,2.533c-0.037,0.833-0.111,1.559-0.185,2.322c-0.075,0.726-0.149,1.452-0.261,2.108
			c-0.112,0.691-0.225,1.347-0.392,2.037h-1.86c0.225-1.134,0.429-2.355,0.577-3.704c0.148-1.311,0.223-2.586,0.262-3.809H136V273
			H148z M150.811,296.555c0.09,0,0.199,0,0.307,0.036h0.035l-0.001,0.053l1.011,0l1.442,4.398l1.441-4.398h0.99l-1.944,5.388
			l-0.056,0.073c-0.106,0.377-0.216,0.593-0.287,0.809c-0.107,0.236-0.217,0.452-0.36,0.632c-0.163,0.234-0.343,0.378-0.56,0.487
			c-0.216,0.108-0.485,0.144-0.773,0.144c-0.182,0-0.379,0-0.596-0.036l-0.036-0.036l0.036-0.776
			c0.145,0.073,0.343,0.108,0.449,0.108c0.217,0,0.362-0.071,0.541-0.18c0.163-0.107,0.271-0.269,0.379-0.413
			c0.072-0.182,0.145-0.289,0.181-0.433c0.027-0.108,0.034-0.176,0.036-0.241v-0.174c-0.036-0.072-0.036-0.145-0.072-0.252
			c-0.035-0.109-0.072-0.144-0.072-0.18l-1.75-4.776l0.001,0.65c-0.143,0-0.342-0.037-0.558-0.037c-0.432,0-0.774,0.145-1.027,0.541
			c-0.27,0.378-0.415,0.937-0.415,1.55v2.451h-0.955v-5.281h0.883v0.776h0.037c0.144-0.216,0.342-0.486,0.596-0.668
			c0.252-0.143,0.521-0.252,0.773-0.252C150.631,296.519,150.703,296.519,150.811,296.555z M240.679,294.249v7.748h-0.918v-0.738
			c-0.181,0.234-0.414,0.45-0.702,0.631c-0.324,0.162-0.703,0.27-1.1,0.233c-0.414,0-0.739-0.071-1.047-0.233
			c-0.252-0.181-0.503-0.362-0.701-0.668c-0.18-0.252-0.289-0.541-0.396-0.883c-0.071-0.36-0.145-0.738-0.145-1.099
			c0-0.343,0.073-0.667,0.145-1.009c0.107-0.324,0.254-0.577,0.433-0.847c0.198-0.253,0.45-0.432,0.704-0.577
			c0.305-0.162,0.629-0.234,1.008-0.234c0.396,0.036,0.775,0.109,1.064,0.27c0.287,0.144,0.521,0.361,0.666,0.63h0.037v-3.224
			H240.679z M232.41,296.572c0.395,0,0.736,0.073,1.098,0.234c0.342,0.108,0.596,0.325,0.866,0.577
			c0.215,0.27,0.395,0.523,0.504,0.847c0.144,0.342,0.216,0.739,0.216,1.118c0,0.36-0.072,0.739-0.216,1.063
			c-0.109,0.378-0.289,0.631-0.558,0.883c-0.217,0.27-0.506,0.45-0.85,0.595c-0.324,0.143-0.666,0.233-1.061,0.233
			c-0.363,0-0.74-0.09-1.065-0.233c-0.341-0.146-0.631-0.325-0.864-0.595c-0.252-0.252-0.433-0.541-0.541-0.883
			c-0.143-0.324-0.233-0.703-0.233-1.063c0-0.379,0.091-0.776,0.233-1.118c0.108-0.324,0.289-0.577,0.506-0.847
			c0.269-0.252,0.521-0.469,0.899-0.577C231.633,296.646,232.047,296.572,232.41,296.572z M201.072,296.572
			c0.414,0,0.737,0.073,1.099,0.18c0.342,0.162,0.594,0.343,0.865,0.594c0.216,0.271,0.396,0.523,0.505,0.884
			c0.144,0.342,0.232,0.702,0.232,1.081c0,0.397-0.089,0.739-0.232,1.1c-0.108,0.342-0.289,0.594-0.541,0.847
			c-0.235,0.269-0.522,0.486-0.866,0.631c-0.324,0.143-0.647,0.233-1.062,0.233c-0.361,0-0.739-0.09-1.064-0.233
			c-0.341-0.146-0.631-0.362-0.846-0.631c-0.271-0.253-0.451-0.505-0.56-0.847c-0.144-0.361-0.216-0.703-0.216-1.1
			c0-0.379,0.072-0.739,0.216-1.081c0.108-0.361,0.288-0.613,0.504-0.884c0.271-0.251,0.522-0.432,0.901-0.594
			C200.296,296.646,200.71,296.572,201.072,296.572z M220.641,296.572c0.45,0,0.776,0.073,1.117,0.216
			c0.252,0.144,0.505,0.379,0.703,0.667c0.181,0.27,0.29,0.595,0.396,0.884c0.071,0.377,0.108,0.774,0.108,1.261h-3.765
			c0,0.216,0.035,0.433,0.162,0.666c0.106,0.217,0.215,0.433,0.359,0.595c0.179,0.144,0.377,0.289,0.594,0.325
			c0.182,0.072,0.396,0.108,0.633,0.108c0.142,0,0.287,0,0.468-0.036c0.144-0.037,0.341-0.072,0.484-0.108
			c0.146-0.037,0.289-0.108,0.397-0.181c0.126-0.036,0.199-0.108,0.271-0.144v0.955c-0.036,0-0.072,0.037-0.146,0.037
			c-0.234,0.107-0.486,0.179-0.667,0.215c-0.27,0.036-0.521,0.073-0.846,0.073c-0.938,0-1.586-0.253-2.036-0.776
			c-0.487-0.468-0.703-1.171-0.703-2.054c0-0.414,0.071-0.757,0.179-1.117c0.108-0.289,0.309-0.558,0.524-0.812
			c0.179-0.251,0.45-0.449,0.774-0.558C219.938,296.646,220.281,296.572,220.641,296.572z M173.319,294.626
			c0.487,0,0.919,0.109,1.262,0.361c0.324,0.306,0.47,0.703,0.47,1.225c0,0.433-0.146,0.811-0.434,1.135
			c-0.306,0.343-0.666,0.56-1.153,0.739l1.478,1.693c0.144-0.216,0.252-0.468,0.325-0.684c0.054-0.306,0.125-0.631,0.125-1.08h0.992
			c-0.035,0.557-0.144,1.045-0.288,1.369c-0.126,0.395-0.343,0.774-0.56,1.153l1.243,1.387h-1.243l-0.631-0.702
			c-0.215,0.305-0.521,0.523-0.845,0.63c-0.344,0.145-0.741,0.235-1.228,0.235c-0.702,0-1.243-0.197-1.657-0.595
			c-0.434-0.378-0.631-0.811-0.631-1.442c0-0.558,0.107-0.955,0.414-1.297c0.252-0.324,0.666-0.63,1.172-0.846
			c-0.218-0.254-0.397-0.523-0.541-0.776c-0.107-0.252-0.197-0.559-0.197-0.847c0-0.523,0.197-0.955,0.557-1.261
			C172.292,294.735,172.726,294.626,173.319,294.626z M164.381,296.537c0.415,0,0.738,0.072,1.116,0.18
			c0.325,0.162,0.576,0.342,0.849,0.595c0.215,0.27,0.396,0.522,0.505,0.883c0.162,0.342,0.232,0.702,0.232,1.081
			c0,0.396-0.07,0.739-0.232,1.099c-0.109,0.343-0.29,0.595-0.541,0.847c-0.236,0.271-0.523,0.487-0.866,0.63
			c-0.324,0.145-0.647,0.235-1.063,0.235c-0.36,0-0.738-0.09-1.064-0.235c-0.34-0.143-0.63-0.359-0.846-0.63
			c-0.271-0.252-0.451-0.504-0.559-0.847c-0.145-0.36-0.217-0.703-0.217-1.099c0-0.379,0.072-0.739,0.217-1.081
			c0.107-0.361,0.288-0.613,0.522-0.883c0.252-0.253,0.504-0.433,0.882-0.595C163.606,296.609,164.021,296.537,164.381,296.537z
			 M186.097,296.537c0.395,0,0.737,0.072,1.098,0.234c0.343,0.108,0.595,0.325,0.847,0.576c0.234,0.271,0.415,0.523,0.523,0.848
			c0.144,0.342,0.216,0.738,0.216,1.117c0,0.36-0.072,0.739-0.216,1.063c-0.108,0.379-0.289,0.63-0.558,0.884
			c-0.218,0.269-0.506,0.45-0.848,0.593c-0.325,0.145-0.668,0.235-1.063,0.235c-0.379,0-0.739-0.09-1.064-0.235
			c-0.342-0.143-0.631-0.324-0.865-0.593c-0.252-0.254-0.433-0.541-0.541-0.884c-0.143-0.324-0.232-0.703-0.232-1.063
			c0-0.379,0.09-0.775,0.232-1.117c0.108-0.325,0.289-0.577,0.506-0.848c0.27-0.251,0.521-0.468,0.9-0.576
			C185.321,296.609,185.718,296.537,186.097,296.537z M195.466,296.537c0.45,0,0.776,0.072,1.117,0.215
			c0.252,0.145,0.505,0.379,0.703,0.668c0.18,0.252,0.289,0.595,0.396,0.883c0.073,0.378,0.108,0.775,0.108,1.261h-3.765
			c0,0.216,0.034,0.432,0.162,0.667c0.107,0.217,0.216,0.433,0.359,0.576c0.182,0.163,0.378,0.307,0.595,0.343
			c0.182,0.072,0.397,0.109,0.631,0.109c0.144,0,0.289,0,0.47-0.037c0.161-0.036,0.341-0.072,0.486-0.108
			c0.144-0.036,0.288-0.109,0.396-0.18c0.125-0.037,0.199-0.127,0.272-0.162v0.973c-0.038,0-0.073,0.036-0.147,0.036
			c-0.232,0.109-0.485,0.18-0.666,0.216c-0.269,0.036-0.521,0.072-0.846,0.072c-0.938,0-1.586-0.252-2.037-0.774
			c-0.487-0.488-0.703-1.19-0.703-2.073c0-0.397,0.072-0.739,0.18-1.099c0.127-0.289,0.308-0.56,0.523-0.811
			c0.181-0.271,0.451-0.451,0.775-0.56C194.763,296.609,195.107,296.537,195.466,296.537z M158.776,296.537
			c0.451,0,0.776,0.071,1.118,0.215c0.252,0.145,0.504,0.379,0.702,0.632c0.181,0.252,0.29,0.593,0.396,0.918
			c0.072,0.379,0.108,0.776,0.108,1.226h-3.765c0,0.216,0.035,0.432,0.162,0.668c0.106,0.216,0.216,0.431,0.358,0.576
			c0.182,0.198,0.379,0.306,0.597,0.342c0.179,0.108,0.395,0.145,0.631,0.145c0.143,0,0.288-0.037,0.468-0.073
			c0.144,0,0.342-0.072,0.486-0.108c0.144-0.036,0.286-0.073,0.396-0.144c0.126-0.073,0.199-0.109,0.271-0.199v0.973
			c-0.035,0.037-0.071,0.037-0.145,0.073c-0.235,0.071-0.486,0.143-0.666,0.216c-0.27,0.036-0.521,0.071-0.846,0.071
			c-0.939,0-1.605-0.287-2.037-0.809c-0.488-0.487-0.704-1.19-0.704-2.073c0-0.397,0.073-0.739,0.181-1.1
			c0.108-0.288,0.308-0.558,0.523-0.81c0.18-0.271,0.432-0.452,0.773-0.559C158.073,296.608,158.416,296.537,158.776,296.537z
			 M182.384,294.753v5.352c0,0.253-0.036,0.505-0.108,0.721c-0.09,0.271-0.199,0.45-0.379,0.667
			c-0.108,0.197-0.324,0.342-0.63,0.414c-0.216,0.108-0.541,0.145-0.954,0.145c-0.29,0-0.596-0.037-0.813-0.108v-0.884
			c0.181,0.072,0.396,0.108,0.666,0.108c0.434,0,0.738-0.108,0.885-0.379c0.179-0.216,0.252-0.539,0.252-1.026l0.036-5.01H182.384z
			 M144.577,296.5c0.396,0,0.736,0.073,1.098,0.236c0.343,0.107,0.595,0.324,0.848,0.576c0.233,0.271,0.414,0.522,0.523,0.847
			c0.143,0.343,0.215,0.738,0.215,1.117c0,0.36-0.072,0.739-0.215,1.063c-0.109,0.379-0.29,0.631-0.56,0.883
			c-0.217,0.271-0.505,0.451-0.848,0.595c-0.325,0.144-0.666,0.235-1.062,0.235c-0.378,0-0.74-0.091-1.065-0.235
			c-0.341-0.144-0.631-0.324-0.864-0.595c-0.252-0.252-0.433-0.541-0.541-0.883c-0.143-0.324-0.233-0.703-0.233-1.063
			c0-0.379,0.091-0.774,0.233-1.117c0.108-0.325,0.289-0.576,0.506-0.847c0.269-0.252,0.521-0.469,0.899-0.576
			C143.801,296.573,144.199,296.5,144.577,296.5z M191.071,296.555c0.215,0,0.414,0.037,0.594,0.072
			c0.179,0.036,0.414,0.073,0.631,0.144l-0.073,0.812c-0.106-0.036-0.306-0.109-0.522-0.182c-0.215-0.035-0.414-0.07-0.521-0.07
			c-0.253,0-0.469,0.035-0.648,0.179c-0.199,0.108-0.271,0.271-0.271,0.487c0,0.216,0.072,0.378,0.218,0.522
			c0.161,0.108,0.413,0.216,0.737,0.36c0.197,0.108,0.379,0.181,0.523,0.253c0.106,0.09,0.252,0.198,0.414,0.307
			c0.107,0.108,0.216,0.251,0.253,0.45c0.071,0.145,0.107,0.324,0.107,0.54c0,0.523-0.145,0.955-0.522,1.226
			c-0.361,0.252-0.775,0.397-1.279,0.397c-0.307,0-0.559,0-0.774-0.073c-0.271-0.035-0.485-0.107-0.667-0.216l0.035-0.847
			c0.182,0.108,0.36,0.216,0.632,0.289c0.216,0.071,0.396,0.071,0.595,0.071c0.252,0,0.467-0.036,0.684-0.179
			c0.197-0.109,0.308-0.289,0.308-0.595c0-0.181-0.072-0.325-0.271-0.433c-0.145-0.108-0.396-0.27-0.686-0.414
			c-0.234-0.108-0.414-0.216-0.522-0.289c-0.144-0.071-0.306-0.198-0.415-0.306c-0.106-0.108-0.216-0.216-0.287-0.397
			c-0.072-0.107-0.107-0.252-0.107-0.486c0-0.505,0.143-0.919,0.504-1.171C190.077,296.7,190.53,296.555,191.071,296.555z
			 M138.685,294.573c0.484,0,0.847,0.036,1.152,0.108c0.287,0.036,0.63,0.144,0.955,0.253l-0.073,1.044
			c-0.252-0.163-0.558-0.306-0.847-0.378c-0.305-0.072-0.703-0.108-1.153-0.108c-0.396,0-0.774,0.036-1.099,0.18
			c-0.379,0.143-0.668,0.342-0.883,0.595c-0.271,0.252-0.451,0.558-0.595,0.883c-0.109,0.378-0.181,0.739-0.181,1.117
			c0,0.433,0.071,0.811,0.217,1.172c0.107,0.378,0.324,0.63,0.596,0.882c0.216,0.27,0.504,0.451,0.846,0.595
			c0.324,0.144,0.703,0.216,1.064,0.216c0.269,0,0.484,0,0.594-0.035c0.144,0,0.289-0.037,0.451-0.073h0.107v-2.216h-1.514v-0.847
			h2.542v3.729c-0.253,0.109-0.561,0.182-0.92,0.254c-0.343,0.035-0.776,0.071-1.298,0.071c-0.559,0-1.064-0.108-1.549-0.287
			c-0.434-0.146-0.849-0.398-1.174-0.74c-0.341-0.324-0.594-0.738-0.773-1.171c-0.199-0.487-0.307-1.009-0.307-1.55
			c0-0.56,0.107-1.081,0.307-1.515c0.18-0.449,0.433-0.847,0.811-1.188c0.324-0.325,0.775-0.541,1.207-0.739
			C137.656,294.644,138.178,294.573,138.685,294.573z M228.661,296.752v5.262h-0.955v-5.262H228.661z M226.209,296.572
			c0.146,0,0.217,0,0.324,0.036c0.073,0,0.2,0,0.309,0.054h0.034v0.847c-0.143,0-0.343-0.036-0.559-0.036
			c-0.45,0-0.774,0.144-1.027,0.541c-0.27,0.379-0.414,0.937-0.414,1.549v2.451h-0.956v-5.279h0.885v0.774h0.034
			c0.146-0.233,0.344-0.486,0.597-0.667C225.688,296.7,225.957,296.572,226.209,296.572z M207.378,296.592
			c0.668,0,1.154,0.179,1.477,0.593c0.344,0.362,0.487,0.919,0.487,1.659v3.135h-0.956v-2.739c0-0.632-0.07-1.1-0.268-1.406
			c-0.146-0.287-0.434-0.433-0.85-0.468c-0.541,0-0.953,0.181-1.207,0.595c-0.27,0.36-0.414,0.918-0.414,1.586v2.432h-0.955V296.7
			h0.92v0.81h0.035c0.145-0.252,0.379-0.487,0.703-0.667C206.638,296.662,206.982,296.592,207.378,296.592z M215.056,294.735
			c0.415,0,0.773,0.036,1.098,0.109c0.342,0.125,0.596,0.233,0.867,0.377c0.251,0.18,0.395,0.415,0.54,0.667
			c0.144,0.288,0.234,0.631,0.234,1.026c0,0.416-0.091,0.704-0.234,0.993c-0.146,0.306-0.325,0.522-0.54,0.701
			c-0.271,0.163-0.525,0.308-0.831,0.344c-0.325,0.072-0.612,0.108-0.99,0.108h-0.992v2.919h-1.025l0.035-7.244H215.056z
			 M238.175,297.384c-0.252,0-0.485,0.054-0.667,0.163c-0.18,0.107-0.323,0.215-0.449,0.395c-0.146,0.181-0.217,0.415-0.254,0.666
			c-0.07,0.217-0.07,0.487-0.07,0.704c0,0.216,0,0.468,0.07,0.703c0.037,0.251,0.146,0.469,0.254,0.666
			c0.126,0.181,0.307,0.324,0.486,0.433c0.145,0.145,0.378,0.181,0.63,0.216c0.252,0,0.47-0.071,0.702-0.18
			c0.182-0.107,0.325-0.288,0.47-0.432c0.125-0.181,0.233-0.414,0.271-0.631c0.071-0.253,0.108-0.486,0.108-0.739
			c0-0.216-0.037-0.451-0.108-0.703c-0.073-0.216-0.146-0.45-0.308-0.63c-0.145-0.216-0.287-0.325-0.469-0.433
			C238.645,297.473,238.393,297.384,238.175,297.384z M232.41,297.383c-0.253,0-0.488,0.036-0.703,0.163
			c-0.182,0.107-0.362,0.215-0.524,0.431c-0.144,0.181-0.252,0.416-0.324,0.631c-0.036,0.253-0.071,0.524-0.071,0.74
			c0,0.215,0,0.468,0.071,0.702c0.072,0.253,0.146,0.468,0.288,0.667c0.162,0.144,0.344,0.325,0.523,0.433
			c0.215,0.108,0.487,0.144,0.74,0.144c0.288,0,0.52-0.036,0.736-0.144c0.182-0.108,0.361-0.289,0.524-0.433
			c0.144-0.199,0.216-0.414,0.288-0.667c0.072-0.234,0.072-0.487,0.072-0.702c0-0.216-0.036-0.487-0.109-0.74
			c-0.035-0.215-0.143-0.45-0.288-0.631c-0.163-0.216-0.342-0.324-0.522-0.431C232.895,297.419,232.662,297.383,232.41,297.383z
			 M201.072,297.346c-0.252,0-0.487,0.073-0.702,0.2c-0.182,0.107-0.362,0.215-0.524,0.396c-0.144,0.181-0.252,0.414-0.325,0.666
			c-0.034,0.216-0.07,0.486-0.07,0.703c0,0.252,0,0.468,0.07,0.739c0.073,0.216,0.146,0.433,0.289,0.667
			c0.162,0.144,0.344,0.288,0.523,0.396c0.216,0.108,0.487,0.181,0.739,0.181c0.288,0,0.521-0.073,0.737-0.181
			c0.183-0.108,0.361-0.252,0.524-0.396c0.144-0.234,0.215-0.451,0.288-0.667c0.072-0.271,0.072-0.487,0.072-0.739
			c0-0.217-0.037-0.487-0.108-0.703c-0.037-0.252-0.144-0.485-0.289-0.666c-0.163-0.181-0.341-0.289-0.523-0.396
			C201.557,297.419,201.323,297.346,201.072,297.346z M172.616,298.537c-0.324,0.252-0.595,0.487-0.738,0.666
			c-0.146,0.181-0.254,0.433-0.254,0.775c0,0.396,0.146,0.703,0.434,0.919c0.27,0.253,0.594,0.362,1.008,0.362
			c0.253,0,0.506-0.073,0.74-0.217c0.217-0.145,0.396-0.289,0.578-0.433L172.616,298.537z M186.097,297.347
			c-0.253,0-0.487,0.037-0.703,0.163c-0.182,0.108-0.361,0.216-0.523,0.432c-0.145,0.181-0.253,0.415-0.325,0.631
			c-0.035,0.252-0.071,0.522-0.071,0.739c0,0.216,0,0.468,0.071,0.703c0.072,0.251,0.146,0.469,0.288,0.666
			c0.146,0.145,0.344,0.324,0.524,0.433c0.216,0.108,0.486,0.145,0.739,0.145c0.287,0,0.521-0.037,0.737-0.145
			c0.181-0.109,0.36-0.288,0.523-0.433c0.144-0.197,0.216-0.415,0.288-0.666c0.072-0.235,0.072-0.487,0.072-0.703
			c0-0.217-0.035-0.487-0.109-0.739c-0.035-0.216-0.143-0.45-0.287-0.631c-0.162-0.216-0.343-0.324-0.524-0.432
			C186.581,297.384,186.349,297.347,186.097,297.347z M164.381,297.312c-0.252,0-0.487,0.072-0.702,0.198
			c-0.182,0.108-0.362,0.216-0.504,0.397c-0.163,0.179-0.272,0.414-0.345,0.666c-0.035,0.216-0.07,0.487-0.07,0.703
			c0,0.252,0,0.468,0.07,0.739c0.072,0.216,0.146,0.433,0.289,0.666c0.162,0.145,0.343,0.289,0.523,0.397
			c0.215,0.108,0.486,0.181,0.738,0.181c0.289,0,0.521-0.073,0.738-0.181c0.182-0.108,0.378-0.252,0.523-0.397
			c0.144-0.233,0.215-0.45,0.289-0.666c0.071-0.271,0.071-0.487,0.071-0.739c0-0.216-0.036-0.487-0.109-0.703
			c-0.036-0.252-0.144-0.487-0.288-0.666c-0.162-0.181-0.342-0.289-0.522-0.397C164.867,297.384,164.633,297.312,164.381,297.312z
			 M144.577,297.312c-0.255,0-0.487,0.035-0.703,0.162c-0.182,0.109-0.362,0.216-0.523,0.433c-0.144,0.179-0.253,0.414-0.324,0.631
			c-0.036,0.252-0.071,0.522-0.071,0.738c0,0.216,0,0.468,0.071,0.703c0.071,0.252,0.145,0.469,0.287,0.667
			c0.146,0.144,0.345,0.324,0.523,0.432c0.216,0.109,0.485,0.144,0.74,0.144c0.288,0,0.521-0.035,0.736-0.144
			c0.182-0.108,0.361-0.288,0.524-0.432c0.144-0.198,0.216-0.415,0.288-0.667c0.071-0.235,0.071-0.487,0.071-0.703
			c0-0.216-0.034-0.486-0.107-0.738c-0.036-0.217-0.144-0.452-0.289-0.631c-0.162-0.217-0.341-0.324-0.522-0.433
			C145.062,297.347,144.829,297.312,144.577,297.312z M220.605,297.383c-0.216,0-0.396,0.036-0.595,0.109
			c-0.18,0.108-0.324,0.233-0.395,0.377c-0.109,0.145-0.218,0.254-0.252,0.433c-0.073,0.181-0.127,0.378-0.162,0.559h2.737
			c0-0.451-0.107-0.775-0.378-1.027C221.344,297.528,221.056,297.383,220.605,297.383z M195.43,297.347
			c-0.216,0-0.396,0.037-0.575,0.108c-0.198,0.108-0.344,0.217-0.415,0.379c-0.109,0.144-0.218,0.252-0.252,0.433
			c-0.073,0.181-0.128,0.378-0.162,0.558h2.738c0-0.45-0.107-0.774-0.36-1.026C196.169,297.492,195.88,297.347,195.43,297.347z
			 M158.74,297.311c-0.216,0-0.395,0.073-0.594,0.144c-0.18,0.073-0.324,0.181-0.396,0.343c-0.108,0.144-0.217,0.252-0.251,0.432
			c-0.091,0.181-0.127,0.378-0.162,0.559h2.737c0-0.45-0.107-0.774-0.378-1.028C159.48,297.455,159.191,297.311,158.74,297.311z
			 M215.092,295.672h-0.885v2.505h1.027c0.146,0,0.343-0.037,0.524-0.073c0.143-0.035,0.288-0.108,0.431-0.234
			c0.163-0.109,0.271-0.216,0.343-0.397c0.071-0.107,0.145-0.323,0.145-0.559c0-0.214-0.073-0.395-0.145-0.593
			c-0.107-0.145-0.216-0.289-0.415-0.397c-0.143-0.036-0.322-0.109-0.504-0.181C215.415,295.708,215.235,295.672,215.092,295.672z
			 M173.282,295.401c-0.252,0-0.521,0.073-0.666,0.217c-0.143,0.179-0.217,0.414-0.217,0.666c0,0.216,0.037,0.451,0.145,0.63
			c0.107,0.181,0.252,0.397,0.486,0.632c0.288-0.108,0.504-0.307,0.739-0.523c0.216-0.253,0.325-0.486,0.325-0.776
			c0-0.251-0.072-0.521-0.218-0.665C173.716,295.474,173.534,295.401,173.282,295.401z M228.733,294.447v1.081h-1.1l0.037-1.081
			H228.733z M226.191,281.412v4.449h-9.338v1.715h9.738V289h-11.69v-4.596h9.375v-1.533h-9.375v-1.459H226.191z M199.965,283v4.359
			H210V289h-12v-6H199.965z M184.948,281v3.46H192V286h-16v-1.54h7.053V281H184.948z M209,272v12h-1.822v-6.964H204v-1.527h3.214
			V272H209z M189.93,273v1.554h-4.896v0.777c0,0.607,0.182,1.157,0.545,1.705c0.38,0.53,0.852,1.005,1.449,1.459
			c0.601,0.473,1.27,0.907,1.978,1.212c0.671,0.378,1.359,0.7,1.994,0.927l-1.034,1.328c-0.523-0.153-1.088-0.397-1.632-0.701
			c-0.598-0.228-1.16-0.587-1.669-0.967c-0.562-0.36-1.086-0.738-1.522-1.173c-0.489-0.417-0.853-0.891-1.16-1.308
			c-0.253,0.417-0.599,0.891-1.034,1.308c-0.454,0.435-0.924,0.777-1.451,1.173c-0.525,0.34-1.069,0.702-1.668,0.929
			c-0.599,0.302-1.197,0.585-1.795,0.777L177,280.634c0.452-0.15,0.854-0.302,1.341-0.549c0.438-0.188,0.89-0.416,1.343-0.643
			c0.436-0.284,0.889-0.549,1.252-0.891c0.417-0.322,0.744-0.625,1.089-0.986c0.29-0.34,0.507-0.7,0.707-1.079
			c0.181-0.342,0.29-0.74,0.29-1.157v-0.777h-4.859V273H189.93z M200.551,272l-0.037,3.307c0,0.673,0.149,1.27,0.373,1.732
			c0.278,0.52,0.652,0.979,1.079,1.346c0.41,0.384,0.912,0.75,1.434,1.019c0.539,0.327,1.08,0.557,1.601,0.75l-0.875,1.424
			c-0.372-0.155-0.8-0.366-1.21-0.56c-0.232-0.115-0.451-0.244-0.665-0.379l-0.638-0.41l0,0c-0.408-0.23-0.8-0.558-1.136-0.904
			c-0.354-0.346-0.651-0.749-0.875-1.095c-0.242,0.422-0.502,0.826-0.837,1.211c-0.355,0.365-0.728,0.672-1.116,0.981
			c-0.41,0.327-0.839,0.635-1.248,0.865c-0.465,0.29-0.931,0.48-1.34,0.712L194,280.75c0.521-0.25,1.097-0.558,1.637-0.865
			c0.56-0.366,1.063-0.75,1.47-1.231c0.468-0.384,0.819-0.904,1.08-1.462c0.261-0.499,0.41-1.173,0.41-1.884V272H200.551z M173,279
			v2h-2v-2H173z M218.384,272.293v1.896c0,0.62,0.109,1.167,0.402,1.676c0.273,0.476,0.602,0.949,1.021,1.242
			c0.4,0.364,0.894,0.693,1.422,0.986c0.512,0.254,1.041,0.472,1.569,0.692l-0.819,1.386c-0.421-0.145-0.841-0.291-1.242-0.511
			c-0.456-0.218-0.856-0.475-1.276-0.729c-0.4-0.293-0.783-0.584-1.112-0.913c-0.383-0.328-0.674-0.691-0.857-1.058
			c-0.272,0.366-0.528,0.804-0.857,1.132c-0.346,0.4-0.674,0.692-1.094,0.983c-0.365,0.293-0.822,0.547-1.223,0.804
			c-0.455,0.219-0.857,0.438-1.313,0.657L212,279.37c0.512-0.293,1.04-0.584,1.605-0.876c0.547-0.329,1.003-0.693,1.459-1.094
			c0.401-0.439,0.747-0.877,1.04-1.459c0.255-0.512,0.364-1.06,0.364-1.751v-1.896H218.384z M226.228,272v8.39h-1.86V272H226.228z"
			/>
	</g>
</g>
</svg>
