<svg xmlns="http://www.w3.org/2000/svg" width="1542" height="174" viewBox="0 0 1542 174">
    <path fill="#1F5153" fill-rule="nonzero" d="M88.3 174C35.991 174 0 137.23 0 87.48V87C0 39.174 37.191 0 88.06 0c30.232 0 48.468 8.171 65.984 23.072L130.769 51.19c-12.957-10.815-24.474-17.064-43.91-17.064-26.873 0-48.228 23.793-48.228 52.392V87c0 30.762 21.115 53.354 50.868 53.354 13.437 0 25.434-3.365 34.792-10.094v-24.033H87.1V74.262h72.943v73.061C142.767 161.983 119.013 174 88.299 174zm203.112 0c-52.308 0-88.3-36.77-88.3-86.52V87c0-47.826 37.192-87 88.06-87 30.233 0 48.469 8.171 65.985 23.072L333.882 51.19c-12.957-10.815-24.474-17.064-43.91-17.064-26.873 0-48.228 23.793-48.228 52.392V87c0 30.762 21.115 53.354 50.868 53.354 13.437 0 25.434-3.365 34.792-10.094v-24.033h-37.192V74.262h72.943v73.061C345.88 161.983 322.125 174 291.412 174zm122.251-2.884V2.884h39.831l44.15 71.138 44.15-71.138h39.83v168.232h-36.711V61.285l-47.27 71.859h-.959l-46.789-71.138v109.11h-36.232zm293.332 2.644c-45.11 0-72.703-25.235-72.703-74.743V2.884h36.951v95.171c0 27.398 13.677 41.578 36.232 41.578s36.231-13.7 36.231-40.376V2.884h36.952v94.93c0 50.951-28.554 75.946-73.663 75.946zm186.077-.24c-25.435 0-51.109-8.893-71.264-26.918l21.835-26.196c15.117 12.497 30.953 20.428 50.148 20.428 15.117 0 24.235-6.008 24.235-15.862v-.48c0-9.373-5.759-14.18-33.832-21.39-33.833-8.652-55.667-18.025-55.667-51.43v-.481C828.527 20.669 853 .48 887.313.48c24.474 0 45.35 7.69 62.385 21.39l-19.195 27.878c-14.877-10.335-29.513-16.583-43.67-16.583s-21.595 6.489-21.595 14.66v.48c0 11.056 7.198 14.66 36.232 22.111 34.072 8.892 53.267 21.15 53.267 50.47v.48c0 33.406-25.434 52.152-61.665 52.152zm108.814-2.404V2.884h126.69v32.925h-89.978v34.127h79.181v32.926h-79.181v35.329h91.178v32.925h-127.89zm245.823 2.644c-45.11 0-72.703-25.235-72.703-74.743V2.884h36.951v95.171c0 27.398 13.677 41.578 36.232 41.578 22.554 0 36.231-13.7 36.231-40.376V2.884h36.952v94.93c0 50.951-28.554 75.946-73.663 75.946zm126.33-2.644V2.884h39.83l44.15 71.138 44.15-71.138H1542v168.232h-36.711V61.285l-47.27 71.859h-.96l-46.788-71.138v109.11h-36.232z" opacity=".06"/>
</svg>
