<svg xmlns="http://www.w3.org/2000/svg" xmlns:xlink="http://www.w3.org/1999/xlink" width="82" height="56" viewBox="0 0 82 56">
    <defs>
        <path id="prefix__a" d="M0.137 0.157L5.796 0.157 5.796 3.69 0.137 3.69z"/>
        <path id="prefix__c" d="M0 55.974L81.804 55.974 81.804 0 0 0z"/>
    </defs>
    <g fill="none" fill-rule="evenodd">
        <g transform="translate(1.079 52.284)">
            <mask id="prefix__b" fill="#fff">
                <use xlink:href="#prefix__a"/>
            </mask>
            <path fill="#004F52" d="M4.79 1.932c0 .293-.155.524-.474.707-.321.184-.78.277-1.359.277-.573 0-1.025-.094-1.341-.281-.313-.186-.466-.417-.466-.703 0-.31.153-.55.466-.736.316-.187.768-.281 1.341-.281.58 0 1.038.094 1.358.28.32.187.475.427.475.737M5.106.649C4.874.492 4.576.37 4.22.284 3.865.2 3.438.157 2.95.157c-.472 0-.89.046-1.242.136C1.355.384 1.06.511.83.671c-.232.161-.406.35-.52.563-.116.211-.173.446-.173.693 0 .26.057.5.172.716.115.215.29.403.521.558.23.155.525.276.878.362.352.085.77.127 1.24.127.49 0 .916-.042 1.272-.127.355-.086.654-.207.885-.36.235-.156.41-.345.522-.56.112-.216.169-.457.169-.716 0-.258-.057-.497-.169-.714-.111-.217-.287-.405-.52-.564" mask="url(#prefix__b)"/>
        </g>
        <path fill="#004F52" d="M5.81 52.318L6.782 52.318 6.782 47.548 5.81 47.548 5.81 48.869 4.303 48.869 4.303 49.66 5.81 49.66 5.81 50.563 4.271 50.563 4.271 51.361 5.81 51.361zM3.014 50.962c.346-.347.636-.767.861-1.251.225-.484.35-1.065.373-1.727l.002-.036H.483v.772h2.714c-.048.356-.16.684-.335.974-.182.303-.418.582-.7.826-.283.246-.61.466-.969.655-.362.19-.748.363-1.15.514L0 51.707l.505.711.026-.01c.435-.156.876-.352 1.31-.58.432-.23.826-.522 1.173-.866"/>
        <mask id="prefix__d" fill="#fff">
            <use xlink:href="#prefix__c"/>
        </mask>
        <path fill="#004F52" d="M20.579 55.822L21.552 55.822 21.552 47.548 20.579 47.548zM15.252 48.966h2.928c-.013.482-.085.927-.212 1.324-.13.407-.328.79-.588 1.141-.26.352-.596.69-.995 1.001-.4.313-.876.626-1.417.928l-.04.021.63.681.025-.014c.52-.275 1.006-.583 1.443-.916.439-.334.821-.733 1.14-1.185.317-.452.57-.989.748-1.593.18-.603.277-1.33.289-2.16v-.036h-3.951v.808zM36.345 51.172L31.481 51.172 31.481 48.864 36.235 48.864 36.235 48.065 30.51 48.065 30.51 51.978 36.345 51.978zM33.854 52.416L32.865 52.416 32.865 53.821 29.449 53.821 29.449 54.628 37.254 54.628 37.254 53.821 33.854 53.821zM50.769 47.548L49.797 47.548 49.797 52.333 50.769 52.333 50.769 50.134 52.074 50.134 52.074 49.342 50.769 49.342zM45.418 51.088h2.058v-1.115h-2.058v1.115zm3.028-3.226h-.97v1.32h-2.058v-1.32h-.973v3.999h4.001v-3.999zM45.236 53.52L49.798 53.52 49.798 55.865 50.768 55.865 50.768 52.728 45.236 52.728zM61.095 49.512h3.758V48.44h-3.758v1.072zm-.945.774h5.649v-2.619h-5.65v2.619zM59.071 51.624L62.465 51.624 62.465 52.23 60.107 52.23 60.107 53.004 64.845 53.004 64.845 53.669 60.107 53.669 60.107 55.863 66.069 55.863 66.069 55.117 61.111 55.117 61.111 54.4 65.841 54.4 65.841 52.23 63.477 52.23 63.477 51.624 66.876 51.624 66.876 50.825 59.071 50.825zM80.501 50.114L80.501 47.548 79.529 47.548 79.529 53.554 80.501 53.554 80.501 50.905 81.804 50.905 81.804 50.114zM77.531 49.209c-.014.186-.03.378-.05.573-.02.196-.042.386-.063.563-.022.184-.046.346-.068.483l-.006.043h.98l.005-.03c.023-.144.047-.334.07-.565.028-.234.053-.485.077-.75.026-.26.049-.529.068-.796.02-.264.035-.507.046-.721l.003-.037h-4.297v.774h3.27c-.012.137-.022.293-.035.463" mask="url(#prefix__d)"/>
        <path fill="#004F52" d="M79.073 52.13l.031-.003v-.774l-.04.005c-.385.045-.802.082-1.235.11-.421.027-.872.05-1.342.066V49.8h-.971v1.754c-.264.01-.536.015-.806.015h-.895v.791h.036c.98 0 1.93-.015 2.82-.042.896-.028 1.704-.092 2.402-.187M76.032 53.077L75.036 53.077 75.036 55.695 80.761 55.695 80.761 54.887 76.032 54.887zM77.088.194c-.847-.234-1.766-.257-2.659-.065-.08.016-.151.033-.208.049L41.944 9.392c-.318.09-.645.133-1.031.133-.376 0-.722-.045-1.03-.133L7.602.178c-.056-.016-.128-.033-.207-.05-.892-.19-1.811-.168-2.658.066C1.98.954.056 3.497.056 6.374v35.004h3.268l.002-35.144c.04-.886.484-1.696 1.219-2.229.776-.563 1.742-.737 2.652-.477l32.02 9.13c.53.152 1.1.228 1.696.228.603 0 1.158-.074 1.697-.228l32.019-9.13c.91-.26 1.877-.086 2.653.477.734.533 1.178 1.343 1.218 2.21l.002 35.163h3.268V6.375c0-2.878-1.926-5.421-4.682-6.181" mask="url(#prefix__d)"/>
        <path fill="#004F52" d="M7.437 24.113L24.601 24.114 24.601 41.378 27.866 41.378 27.866 20.83 7.437 20.83zM30.698 24.113L47.857 24.114 47.857 41.378 51.127 41.378 51.127 20.83 30.698 20.83zM53.96 24.114L74.389 24.114 74.389 20.83 53.96 20.83zM53.96 41.378L74.389 41.378 74.389 38.094 53.96 38.094z" mask="url(#prefix__d)"/>
    </g>
</svg>
